%TF.GenerationSoftware,KiCad,Pcbnew,8.0.7*%
%TF.CreationDate,2025-03-02T22:18:17-05:00*%
%TF.ProjectId,Buck_Converter,4275636b-5f43-46f6-9e76-65727465722e,v0*%
%TF.SameCoordinates,Original*%
%TF.FileFunction,Soldermask,Bot*%
%TF.FilePolarity,Negative*%
%FSLAX46Y46*%
G04 Gerber Fmt 4.6, Leading zero omitted, Abs format (unit mm)*
G04 Created by KiCad (PCBNEW 8.0.7) date 2025-03-02 22:18:17*
%MOMM*%
%LPD*%
G01*
G04 APERTURE LIST*
G04 Aperture macros list*
%AMRoundRect*
0 Rectangle with rounded corners*
0 $1 Rounding radius*
0 $2 $3 $4 $5 $6 $7 $8 $9 X,Y pos of 4 corners*
0 Add a 4 corners polygon primitive as box body*
4,1,4,$2,$3,$4,$5,$6,$7,$8,$9,$2,$3,0*
0 Add four circle primitives for the rounded corners*
1,1,$1+$1,$2,$3*
1,1,$1+$1,$4,$5*
1,1,$1+$1,$6,$7*
1,1,$1+$1,$8,$9*
0 Add four rect primitives between the rounded corners*
20,1,$1+$1,$2,$3,$4,$5,0*
20,1,$1+$1,$4,$5,$6,$7,0*
20,1,$1+$1,$6,$7,$8,$9,0*
20,1,$1+$1,$8,$9,$2,$3,0*%
G04 Aperture macros list end*
%ADD10C,10.160000*%
%ADD11R,1.600000X1.600000*%
%ADD12C,1.600000*%
%ADD13C,2.000000*%
%ADD14C,2.700000*%
%ADD15C,3.175000*%
%ADD16RoundRect,0.102000X0.939800X0.939800X-0.939800X0.939800X-0.939800X-0.939800X0.939800X-0.939800X0*%
%ADD17C,2.083600*%
%ADD18RoundRect,0.102000X0.762000X0.762000X-0.762000X0.762000X-0.762000X-0.762000X0.762000X-0.762000X0*%
%ADD19C,1.728000*%
%ADD20RoundRect,0.102000X0.750000X0.750000X-0.750000X0.750000X-0.750000X-0.750000X0.750000X-0.750000X0*%
%ADD21C,1.704000*%
%ADD22RoundRect,0.102000X0.565000X0.565000X-0.565000X0.565000X-0.565000X-0.565000X0.565000X-0.565000X0*%
%ADD23C,1.334000*%
%ADD24R,1.905000X2.000000*%
%ADD25O,1.905000X2.000000*%
%ADD26R,1.270000X1.270000*%
%ADD27C,1.270000*%
%ADD28R,2.400000X2.400000*%
%ADD29C,2.400000*%
G04 APERTURE END LIST*
D10*
%TO.C,J3*%
X70358000Y-46412000D03*
%TD*%
D11*
%TO.C,C5*%
X135442888Y-84582000D03*
D12*
X137442888Y-84582000D03*
%TD*%
D13*
%TO.C,L1*%
X88772000Y-98806000D03*
X115952000Y-98806000D03*
%TD*%
D14*
%TO.C,REF\u002A\u002A*%
X25146000Y-36576000D03*
%TD*%
D15*
%TO.C,U2*%
X148590000Y-176784000D03*
X148590000Y-123444000D03*
X24130000Y-176784000D03*
X24130000Y-123444000D03*
D16*
X119380000Y-127254000D03*
D17*
X116840000Y-127254000D03*
X114300000Y-127254000D03*
X111760000Y-127254000D03*
X109220000Y-127254000D03*
X106680000Y-127254000D03*
X104140000Y-127254000D03*
X101600000Y-127254000D03*
X99060000Y-127254000D03*
X96520000Y-127254000D03*
D16*
X96520000Y-172974000D03*
D17*
X99060000Y-172974000D03*
X101600000Y-172974000D03*
X104140000Y-172974000D03*
X106680000Y-172974000D03*
X109220000Y-172974000D03*
X111760000Y-172974000D03*
X114300000Y-172974000D03*
X116840000Y-172974000D03*
X119380000Y-172974000D03*
D16*
X119380000Y-129794000D03*
D17*
X116840000Y-129794000D03*
X114300000Y-129794000D03*
X111760000Y-129794000D03*
X109220000Y-129794000D03*
X106680000Y-129794000D03*
X104140000Y-129794000D03*
X101600000Y-129794000D03*
X99060000Y-129794000D03*
X96520000Y-129794000D03*
D16*
X96520000Y-170434000D03*
D17*
X99060000Y-170434000D03*
X101600000Y-170434000D03*
X104140000Y-170434000D03*
X106680000Y-170434000D03*
X109220000Y-170434000D03*
X111760000Y-170434000D03*
X114300000Y-170434000D03*
X116840000Y-170434000D03*
X119380000Y-170434000D03*
D16*
X55880000Y-127254000D03*
D17*
X53340000Y-127254000D03*
X50800000Y-127254000D03*
X48260000Y-127254000D03*
X45720000Y-127254000D03*
X43180000Y-127254000D03*
X40640000Y-127254000D03*
X38100000Y-127254000D03*
X35560000Y-127254000D03*
X33020000Y-127254000D03*
D16*
X33020000Y-172974000D03*
D17*
X35560000Y-172974000D03*
X38100000Y-172974000D03*
X40640000Y-172974000D03*
X43180000Y-172974000D03*
X45720000Y-172974000D03*
X48260000Y-172974000D03*
X50800000Y-172974000D03*
X53340000Y-172974000D03*
X55880000Y-172974000D03*
D16*
X55880000Y-129794000D03*
D17*
X53340000Y-129794000D03*
X50800000Y-129794000D03*
X48260000Y-129794000D03*
X45720000Y-129794000D03*
X43180000Y-129794000D03*
X40640000Y-129794000D03*
X38100000Y-129794000D03*
X35560000Y-129794000D03*
X33020000Y-129794000D03*
D16*
X33020000Y-170434000D03*
D17*
X35560000Y-170434000D03*
X38100000Y-170434000D03*
X40640000Y-170434000D03*
X43180000Y-170434000D03*
X45720000Y-170434000D03*
X48260000Y-170434000D03*
X50800000Y-170434000D03*
X53340000Y-170434000D03*
X55880000Y-170434000D03*
D18*
X22860000Y-172974000D03*
D19*
X25400000Y-172974000D03*
X27940000Y-172974000D03*
D18*
X22860000Y-137414000D03*
D19*
X22860000Y-134874000D03*
X22860000Y-132334000D03*
D18*
X22860000Y-167894000D03*
D19*
X22860000Y-165354000D03*
X22860000Y-162814000D03*
X22860000Y-160274000D03*
X22860000Y-157734000D03*
D18*
X22860000Y-152654000D03*
D19*
X22860000Y-150114000D03*
X22860000Y-147574000D03*
X22860000Y-145034000D03*
X22860000Y-142494000D03*
D18*
X22860000Y-127254000D03*
D19*
X25400000Y-127254000D03*
X27940000Y-127254000D03*
D20*
X93036000Y-130028000D03*
D21*
X93036000Y-127488000D03*
X90496000Y-130028000D03*
X90496000Y-127488000D03*
X87956000Y-130028000D03*
X87956000Y-127488000D03*
X85416000Y-130028000D03*
X85416000Y-127488000D03*
%TD*%
D13*
%TO.C,L2*%
X88772000Y-55372000D03*
X115952000Y-55372000D03*
%TD*%
D14*
%TO.C,REF\u002A\u002A*%
X147320000Y-36576000D03*
%TD*%
%TO.C,REF\u002A\u002A*%
X25146000Y-184150000D03*
%TD*%
%TO.C,REF\u002A\u002A*%
X147320000Y-184150000D03*
%TD*%
D22*
%TO.C,U1*%
X138082000Y-109728000D03*
D23*
X138082000Y-107188000D03*
X138082000Y-104648000D03*
X138082000Y-102108000D03*
X130142000Y-102108000D03*
X130142000Y-104648000D03*
X130142000Y-107188000D03*
X130142000Y-109728000D03*
%TD*%
D24*
%TO.C,Q1*%
X65278000Y-93472000D03*
D25*
X67818000Y-93472000D03*
X70358000Y-93472000D03*
%TD*%
D26*
%TO.C,U4*%
X30480000Y-112776000D03*
D27*
X33020000Y-112776000D03*
X40640000Y-112776000D03*
X45720000Y-112776000D03*
%TD*%
D10*
%TO.C,J4*%
X141428000Y-46412000D03*
%TD*%
%TO.C,J1*%
X30428000Y-46412000D03*
%TD*%
%TO.C,J5*%
X30428000Y-71412000D03*
%TD*%
D28*
%TO.C,C3*%
X65398000Y-109982000D03*
D29*
X72898000Y-109982000D03*
%TD*%
D10*
%TO.C,J2*%
X141428000Y-71412000D03*
%TD*%
M02*
