%TF.GenerationSoftware,KiCad,Pcbnew,8.0.7*%
%TF.CreationDate,2025-03-02T22:18:17-05:00*%
%TF.ProjectId,Buck_Converter,4275636b-5f43-46f6-9e76-65727465722e,v0*%
%TF.SameCoordinates,Original*%
%TF.FileFunction,Legend,Top*%
%TF.FilePolarity,Positive*%
%FSLAX46Y46*%
G04 Gerber Fmt 4.6, Leading zero omitted, Abs format (unit mm)*
G04 Created by KiCad (PCBNEW 8.0.7) date 2025-03-02 22:18:17*
%MOMM*%
%LPD*%
G01*
G04 APERTURE LIST*
%ADD10C,0.100000*%
%ADD11C,0.187500*%
%ADD12C,0.150000*%
%ADD13C,0.120000*%
%ADD14C,0.000000*%
%ADD15C,0.127000*%
%ADD16C,0.200000*%
%ADD17C,0.152400*%
G04 APERTURE END LIST*
D10*
X131308360Y-117727300D02*
X131879789Y-117727300D01*
X131594074Y-118013014D02*
X131594074Y-117441585D01*
X132165502Y-117263014D02*
X132629788Y-117263014D01*
X132629788Y-117263014D02*
X132379788Y-117548728D01*
X132379788Y-117548728D02*
X132486931Y-117548728D01*
X132486931Y-117548728D02*
X132558360Y-117584442D01*
X132558360Y-117584442D02*
X132594074Y-117620157D01*
X132594074Y-117620157D02*
X132629788Y-117691585D01*
X132629788Y-117691585D02*
X132629788Y-117870157D01*
X132629788Y-117870157D02*
X132594074Y-117941585D01*
X132594074Y-117941585D02*
X132558360Y-117977300D01*
X132558360Y-117977300D02*
X132486931Y-118013014D01*
X132486931Y-118013014D02*
X132272645Y-118013014D01*
X132272645Y-118013014D02*
X132201217Y-117977300D01*
X132201217Y-117977300D02*
X132165502Y-117941585D01*
X132951217Y-117941585D02*
X132986931Y-117977300D01*
X132986931Y-117977300D02*
X132951217Y-118013014D01*
X132951217Y-118013014D02*
X132915503Y-117977300D01*
X132915503Y-117977300D02*
X132951217Y-117941585D01*
X132951217Y-117941585D02*
X132951217Y-118013014D01*
X133236931Y-117263014D02*
X133701217Y-117263014D01*
X133701217Y-117263014D02*
X133451217Y-117548728D01*
X133451217Y-117548728D02*
X133558360Y-117548728D01*
X133558360Y-117548728D02*
X133629789Y-117584442D01*
X133629789Y-117584442D02*
X133665503Y-117620157D01*
X133665503Y-117620157D02*
X133701217Y-117691585D01*
X133701217Y-117691585D02*
X133701217Y-117870157D01*
X133701217Y-117870157D02*
X133665503Y-117941585D01*
X133665503Y-117941585D02*
X133629789Y-117977300D01*
X133629789Y-117977300D02*
X133558360Y-118013014D01*
X133558360Y-118013014D02*
X133344074Y-118013014D01*
X133344074Y-118013014D02*
X133272646Y-117977300D01*
X133272646Y-117977300D02*
X133236931Y-117941585D01*
X133915503Y-117263014D02*
X134165503Y-118013014D01*
X134165503Y-118013014D02*
X134415503Y-117263014D01*
X53838360Y-116711300D02*
X54409789Y-116711300D01*
X54124074Y-116997014D02*
X54124074Y-116425585D01*
X55124074Y-116247014D02*
X54766931Y-116247014D01*
X54766931Y-116247014D02*
X54731217Y-116604157D01*
X54731217Y-116604157D02*
X54766931Y-116568442D01*
X54766931Y-116568442D02*
X54838360Y-116532728D01*
X54838360Y-116532728D02*
X55016931Y-116532728D01*
X55016931Y-116532728D02*
X55088360Y-116568442D01*
X55088360Y-116568442D02*
X55124074Y-116604157D01*
X55124074Y-116604157D02*
X55159788Y-116675585D01*
X55159788Y-116675585D02*
X55159788Y-116854157D01*
X55159788Y-116854157D02*
X55124074Y-116925585D01*
X55124074Y-116925585D02*
X55088360Y-116961300D01*
X55088360Y-116961300D02*
X55016931Y-116997014D01*
X55016931Y-116997014D02*
X54838360Y-116997014D01*
X54838360Y-116997014D02*
X54766931Y-116961300D01*
X54766931Y-116961300D02*
X54731217Y-116925585D01*
X55374074Y-116247014D02*
X55624074Y-116997014D01*
X55624074Y-116997014D02*
X55874074Y-116247014D01*
X134019027Y-40274419D02*
X134352360Y-41274419D01*
X134352360Y-41274419D02*
X134685693Y-40274419D01*
X135209503Y-40274419D02*
X135399979Y-40274419D01*
X135399979Y-40274419D02*
X135495217Y-40322038D01*
X135495217Y-40322038D02*
X135590455Y-40417276D01*
X135590455Y-40417276D02*
X135638074Y-40607752D01*
X135638074Y-40607752D02*
X135638074Y-40941085D01*
X135638074Y-40941085D02*
X135590455Y-41131561D01*
X135590455Y-41131561D02*
X135495217Y-41226800D01*
X135495217Y-41226800D02*
X135399979Y-41274419D01*
X135399979Y-41274419D02*
X135209503Y-41274419D01*
X135209503Y-41274419D02*
X135114265Y-41226800D01*
X135114265Y-41226800D02*
X135019027Y-41131561D01*
X135019027Y-41131561D02*
X134971408Y-40941085D01*
X134971408Y-40941085D02*
X134971408Y-40607752D01*
X134971408Y-40607752D02*
X135019027Y-40417276D01*
X135019027Y-40417276D02*
X135114265Y-40322038D01*
X135114265Y-40322038D02*
X135209503Y-40274419D01*
X136066646Y-40274419D02*
X136066646Y-41083942D01*
X136066646Y-41083942D02*
X136114265Y-41179180D01*
X136114265Y-41179180D02*
X136161884Y-41226800D01*
X136161884Y-41226800D02*
X136257122Y-41274419D01*
X136257122Y-41274419D02*
X136447598Y-41274419D01*
X136447598Y-41274419D02*
X136542836Y-41226800D01*
X136542836Y-41226800D02*
X136590455Y-41179180D01*
X136590455Y-41179180D02*
X136638074Y-41083942D01*
X136638074Y-41083942D02*
X136638074Y-40274419D01*
X136971408Y-40274419D02*
X137542836Y-40274419D01*
X137257122Y-41274419D02*
X137257122Y-40274419D01*
X34959027Y-40782419D02*
X35292360Y-41782419D01*
X35292360Y-41782419D02*
X35625693Y-40782419D01*
X35959027Y-41782419D02*
X35959027Y-40782419D01*
X36435217Y-41782419D02*
X36435217Y-40782419D01*
X36435217Y-40782419D02*
X37006645Y-41782419D01*
X37006645Y-41782419D02*
X37006645Y-40782419D01*
D11*
X44382783Y-67412227D02*
X44525640Y-67459846D01*
X44525640Y-67459846D02*
X44573259Y-67507465D01*
X44573259Y-67507465D02*
X44620878Y-67602703D01*
X44620878Y-67602703D02*
X44620878Y-67745560D01*
X44620878Y-67745560D02*
X44573259Y-67840798D01*
X44573259Y-67840798D02*
X44525640Y-67888418D01*
X44525640Y-67888418D02*
X44430402Y-67936037D01*
X44430402Y-67936037D02*
X44049450Y-67936037D01*
X44049450Y-67936037D02*
X44049450Y-66936037D01*
X44049450Y-66936037D02*
X44382783Y-66936037D01*
X44382783Y-66936037D02*
X44478021Y-66983656D01*
X44478021Y-66983656D02*
X44525640Y-67031275D01*
X44525640Y-67031275D02*
X44573259Y-67126513D01*
X44573259Y-67126513D02*
X44573259Y-67221751D01*
X44573259Y-67221751D02*
X44525640Y-67316989D01*
X44525640Y-67316989D02*
X44478021Y-67364608D01*
X44478021Y-67364608D02*
X44382783Y-67412227D01*
X44382783Y-67412227D02*
X44049450Y-67412227D01*
X45478021Y-67269370D02*
X45478021Y-67936037D01*
X45049450Y-67269370D02*
X45049450Y-67793179D01*
X45049450Y-67793179D02*
X45097069Y-67888418D01*
X45097069Y-67888418D02*
X45192307Y-67936037D01*
X45192307Y-67936037D02*
X45335164Y-67936037D01*
X45335164Y-67936037D02*
X45430402Y-67888418D01*
X45430402Y-67888418D02*
X45478021Y-67840798D01*
X46382783Y-67888418D02*
X46287545Y-67936037D01*
X46287545Y-67936037D02*
X46097069Y-67936037D01*
X46097069Y-67936037D02*
X46001831Y-67888418D01*
X46001831Y-67888418D02*
X45954212Y-67840798D01*
X45954212Y-67840798D02*
X45906593Y-67745560D01*
X45906593Y-67745560D02*
X45906593Y-67459846D01*
X45906593Y-67459846D02*
X45954212Y-67364608D01*
X45954212Y-67364608D02*
X46001831Y-67316989D01*
X46001831Y-67316989D02*
X46097069Y-67269370D01*
X46097069Y-67269370D02*
X46287545Y-67269370D01*
X46287545Y-67269370D02*
X46382783Y-67316989D01*
X46811355Y-67936037D02*
X46811355Y-66936037D01*
X46906593Y-67555084D02*
X47192307Y-67936037D01*
X47192307Y-67269370D02*
X46811355Y-67650322D01*
X48954212Y-67840798D02*
X48906593Y-67888418D01*
X48906593Y-67888418D02*
X48763736Y-67936037D01*
X48763736Y-67936037D02*
X48668498Y-67936037D01*
X48668498Y-67936037D02*
X48525641Y-67888418D01*
X48525641Y-67888418D02*
X48430403Y-67793179D01*
X48430403Y-67793179D02*
X48382784Y-67697941D01*
X48382784Y-67697941D02*
X48335165Y-67507465D01*
X48335165Y-67507465D02*
X48335165Y-67364608D01*
X48335165Y-67364608D02*
X48382784Y-67174132D01*
X48382784Y-67174132D02*
X48430403Y-67078894D01*
X48430403Y-67078894D02*
X48525641Y-66983656D01*
X48525641Y-66983656D02*
X48668498Y-66936037D01*
X48668498Y-66936037D02*
X48763736Y-66936037D01*
X48763736Y-66936037D02*
X48906593Y-66983656D01*
X48906593Y-66983656D02*
X48954212Y-67031275D01*
X49525641Y-67936037D02*
X49430403Y-67888418D01*
X49430403Y-67888418D02*
X49382784Y-67840798D01*
X49382784Y-67840798D02*
X49335165Y-67745560D01*
X49335165Y-67745560D02*
X49335165Y-67459846D01*
X49335165Y-67459846D02*
X49382784Y-67364608D01*
X49382784Y-67364608D02*
X49430403Y-67316989D01*
X49430403Y-67316989D02*
X49525641Y-67269370D01*
X49525641Y-67269370D02*
X49668498Y-67269370D01*
X49668498Y-67269370D02*
X49763736Y-67316989D01*
X49763736Y-67316989D02*
X49811355Y-67364608D01*
X49811355Y-67364608D02*
X49858974Y-67459846D01*
X49858974Y-67459846D02*
X49858974Y-67745560D01*
X49858974Y-67745560D02*
X49811355Y-67840798D01*
X49811355Y-67840798D02*
X49763736Y-67888418D01*
X49763736Y-67888418D02*
X49668498Y-67936037D01*
X49668498Y-67936037D02*
X49525641Y-67936037D01*
X50287546Y-67269370D02*
X50287546Y-67936037D01*
X50287546Y-67364608D02*
X50335165Y-67316989D01*
X50335165Y-67316989D02*
X50430403Y-67269370D01*
X50430403Y-67269370D02*
X50573260Y-67269370D01*
X50573260Y-67269370D02*
X50668498Y-67316989D01*
X50668498Y-67316989D02*
X50716117Y-67412227D01*
X50716117Y-67412227D02*
X50716117Y-67936037D01*
X51097070Y-67269370D02*
X51335165Y-67936037D01*
X51335165Y-67936037D02*
X51573260Y-67269370D01*
X52335165Y-67888418D02*
X52239927Y-67936037D01*
X52239927Y-67936037D02*
X52049451Y-67936037D01*
X52049451Y-67936037D02*
X51954213Y-67888418D01*
X51954213Y-67888418D02*
X51906594Y-67793179D01*
X51906594Y-67793179D02*
X51906594Y-67412227D01*
X51906594Y-67412227D02*
X51954213Y-67316989D01*
X51954213Y-67316989D02*
X52049451Y-67269370D01*
X52049451Y-67269370D02*
X52239927Y-67269370D01*
X52239927Y-67269370D02*
X52335165Y-67316989D01*
X52335165Y-67316989D02*
X52382784Y-67412227D01*
X52382784Y-67412227D02*
X52382784Y-67507465D01*
X52382784Y-67507465D02*
X51906594Y-67602703D01*
X52811356Y-67936037D02*
X52811356Y-67269370D01*
X52811356Y-67459846D02*
X52858975Y-67364608D01*
X52858975Y-67364608D02*
X52906594Y-67316989D01*
X52906594Y-67316989D02*
X53001832Y-67269370D01*
X53001832Y-67269370D02*
X53097070Y-67269370D01*
X53287547Y-67269370D02*
X53668499Y-67269370D01*
X53430404Y-66936037D02*
X53430404Y-67793179D01*
X53430404Y-67793179D02*
X53478023Y-67888418D01*
X53478023Y-67888418D02*
X53573261Y-67936037D01*
X53573261Y-67936037D02*
X53668499Y-67936037D01*
X54382785Y-67888418D02*
X54287547Y-67936037D01*
X54287547Y-67936037D02*
X54097071Y-67936037D01*
X54097071Y-67936037D02*
X54001833Y-67888418D01*
X54001833Y-67888418D02*
X53954214Y-67793179D01*
X53954214Y-67793179D02*
X53954214Y-67412227D01*
X53954214Y-67412227D02*
X54001833Y-67316989D01*
X54001833Y-67316989D02*
X54097071Y-67269370D01*
X54097071Y-67269370D02*
X54287547Y-67269370D01*
X54287547Y-67269370D02*
X54382785Y-67316989D01*
X54382785Y-67316989D02*
X54430404Y-67412227D01*
X54430404Y-67412227D02*
X54430404Y-67507465D01*
X54430404Y-67507465D02*
X53954214Y-67602703D01*
X54858976Y-67936037D02*
X54858976Y-67269370D01*
X54858976Y-67459846D02*
X54906595Y-67364608D01*
X54906595Y-67364608D02*
X54954214Y-67316989D01*
X54954214Y-67316989D02*
X55049452Y-67269370D01*
X55049452Y-67269370D02*
X55144690Y-67269370D01*
X43954212Y-68879314D02*
X44192307Y-69545981D01*
X44192307Y-69545981D02*
X44430402Y-68879314D01*
X45335164Y-69545981D02*
X44763736Y-69545981D01*
X45049450Y-69545981D02*
X45049450Y-68545981D01*
X45049450Y-68545981D02*
X44954212Y-68688838D01*
X44954212Y-68688838D02*
X44858974Y-68784076D01*
X44858974Y-68784076D02*
X44763736Y-68831695D01*
X46525641Y-69165028D02*
X47287546Y-69165028D01*
X48525641Y-69545981D02*
X48525641Y-68545981D01*
X48525641Y-68545981D02*
X48858974Y-69260266D01*
X48858974Y-69260266D02*
X49192307Y-68545981D01*
X49192307Y-68545981D02*
X49192307Y-69545981D01*
X50097069Y-69545981D02*
X50097069Y-69022171D01*
X50097069Y-69022171D02*
X50049450Y-68926933D01*
X50049450Y-68926933D02*
X49954212Y-68879314D01*
X49954212Y-68879314D02*
X49763736Y-68879314D01*
X49763736Y-68879314D02*
X49668498Y-68926933D01*
X50097069Y-69498362D02*
X50001831Y-69545981D01*
X50001831Y-69545981D02*
X49763736Y-69545981D01*
X49763736Y-69545981D02*
X49668498Y-69498362D01*
X49668498Y-69498362D02*
X49620879Y-69403123D01*
X49620879Y-69403123D02*
X49620879Y-69307885D01*
X49620879Y-69307885D02*
X49668498Y-69212647D01*
X49668498Y-69212647D02*
X49763736Y-69165028D01*
X49763736Y-69165028D02*
X50001831Y-69165028D01*
X50001831Y-69165028D02*
X50097069Y-69117409D01*
X50573260Y-69545981D02*
X50573260Y-68879314D01*
X50573260Y-69069790D02*
X50620879Y-68974552D01*
X50620879Y-68974552D02*
X50668498Y-68926933D01*
X50668498Y-68926933D02*
X50763736Y-68879314D01*
X50763736Y-68879314D02*
X50858974Y-68879314D01*
X51906594Y-68641219D02*
X51954213Y-68593600D01*
X51954213Y-68593600D02*
X52049451Y-68545981D01*
X52049451Y-68545981D02*
X52287546Y-68545981D01*
X52287546Y-68545981D02*
X52382784Y-68593600D01*
X52382784Y-68593600D02*
X52430403Y-68641219D01*
X52430403Y-68641219D02*
X52478022Y-68736457D01*
X52478022Y-68736457D02*
X52478022Y-68831695D01*
X52478022Y-68831695D02*
X52430403Y-68974552D01*
X52430403Y-68974552D02*
X51858975Y-69545981D01*
X51858975Y-69545981D02*
X52478022Y-69545981D01*
X52954213Y-69498362D02*
X52954213Y-69545981D01*
X52954213Y-69545981D02*
X52906594Y-69641219D01*
X52906594Y-69641219D02*
X52858975Y-69688838D01*
X54097070Y-68641219D02*
X54144689Y-68593600D01*
X54144689Y-68593600D02*
X54239927Y-68545981D01*
X54239927Y-68545981D02*
X54478022Y-68545981D01*
X54478022Y-68545981D02*
X54573260Y-68593600D01*
X54573260Y-68593600D02*
X54620879Y-68641219D01*
X54620879Y-68641219D02*
X54668498Y-68736457D01*
X54668498Y-68736457D02*
X54668498Y-68831695D01*
X54668498Y-68831695D02*
X54620879Y-68974552D01*
X54620879Y-68974552D02*
X54049451Y-69545981D01*
X54049451Y-69545981D02*
X54668498Y-69545981D01*
X55287546Y-68545981D02*
X55382784Y-68545981D01*
X55382784Y-68545981D02*
X55478022Y-68593600D01*
X55478022Y-68593600D02*
X55525641Y-68641219D01*
X55525641Y-68641219D02*
X55573260Y-68736457D01*
X55573260Y-68736457D02*
X55620879Y-68926933D01*
X55620879Y-68926933D02*
X55620879Y-69165028D01*
X55620879Y-69165028D02*
X55573260Y-69355504D01*
X55573260Y-69355504D02*
X55525641Y-69450742D01*
X55525641Y-69450742D02*
X55478022Y-69498362D01*
X55478022Y-69498362D02*
X55382784Y-69545981D01*
X55382784Y-69545981D02*
X55287546Y-69545981D01*
X55287546Y-69545981D02*
X55192308Y-69498362D01*
X55192308Y-69498362D02*
X55144689Y-69450742D01*
X55144689Y-69450742D02*
X55097070Y-69355504D01*
X55097070Y-69355504D02*
X55049451Y-69165028D01*
X55049451Y-69165028D02*
X55049451Y-68926933D01*
X55049451Y-68926933D02*
X55097070Y-68736457D01*
X55097070Y-68736457D02*
X55144689Y-68641219D01*
X55144689Y-68641219D02*
X55192308Y-68593600D01*
X55192308Y-68593600D02*
X55287546Y-68545981D01*
X56001832Y-68641219D02*
X56049451Y-68593600D01*
X56049451Y-68593600D02*
X56144689Y-68545981D01*
X56144689Y-68545981D02*
X56382784Y-68545981D01*
X56382784Y-68545981D02*
X56478022Y-68593600D01*
X56478022Y-68593600D02*
X56525641Y-68641219D01*
X56525641Y-68641219D02*
X56573260Y-68736457D01*
X56573260Y-68736457D02*
X56573260Y-68831695D01*
X56573260Y-68831695D02*
X56525641Y-68974552D01*
X56525641Y-68974552D02*
X55954213Y-69545981D01*
X55954213Y-69545981D02*
X56573260Y-69545981D01*
X57478022Y-68545981D02*
X57001832Y-68545981D01*
X57001832Y-68545981D02*
X56954213Y-69022171D01*
X56954213Y-69022171D02*
X57001832Y-68974552D01*
X57001832Y-68974552D02*
X57097070Y-68926933D01*
X57097070Y-68926933D02*
X57335165Y-68926933D01*
X57335165Y-68926933D02*
X57430403Y-68974552D01*
X57430403Y-68974552D02*
X57478022Y-69022171D01*
X57478022Y-69022171D02*
X57525641Y-69117409D01*
X57525641Y-69117409D02*
X57525641Y-69355504D01*
X57525641Y-69355504D02*
X57478022Y-69450742D01*
X57478022Y-69450742D02*
X57430403Y-69498362D01*
X57430403Y-69498362D02*
X57335165Y-69545981D01*
X57335165Y-69545981D02*
X57097070Y-69545981D01*
X57097070Y-69545981D02*
X57001832Y-69498362D01*
X57001832Y-69498362D02*
X56954213Y-69450742D01*
X44001831Y-70870210D02*
X44478021Y-70870210D01*
X43906593Y-71155925D02*
X44239926Y-70155925D01*
X44239926Y-70155925D02*
X44573259Y-71155925D01*
X45335164Y-71155925D02*
X45335164Y-70155925D01*
X45335164Y-71108306D02*
X45239926Y-71155925D01*
X45239926Y-71155925D02*
X45049450Y-71155925D01*
X45049450Y-71155925D02*
X44954212Y-71108306D01*
X44954212Y-71108306D02*
X44906593Y-71060686D01*
X44906593Y-71060686D02*
X44858974Y-70965448D01*
X44858974Y-70965448D02*
X44858974Y-70679734D01*
X44858974Y-70679734D02*
X44906593Y-70584496D01*
X44906593Y-70584496D02*
X44954212Y-70536877D01*
X44954212Y-70536877D02*
X45049450Y-70489258D01*
X45049450Y-70489258D02*
X45239926Y-70489258D01*
X45239926Y-70489258D02*
X45335164Y-70536877D01*
X46239926Y-71155925D02*
X46239926Y-70632115D01*
X46239926Y-70632115D02*
X46192307Y-70536877D01*
X46192307Y-70536877D02*
X46097069Y-70489258D01*
X46097069Y-70489258D02*
X45906593Y-70489258D01*
X45906593Y-70489258D02*
X45811355Y-70536877D01*
X46239926Y-71108306D02*
X46144688Y-71155925D01*
X46144688Y-71155925D02*
X45906593Y-71155925D01*
X45906593Y-71155925D02*
X45811355Y-71108306D01*
X45811355Y-71108306D02*
X45763736Y-71013067D01*
X45763736Y-71013067D02*
X45763736Y-70917829D01*
X45763736Y-70917829D02*
X45811355Y-70822591D01*
X45811355Y-70822591D02*
X45906593Y-70774972D01*
X45906593Y-70774972D02*
X46144688Y-70774972D01*
X46144688Y-70774972D02*
X46239926Y-70727353D01*
X46716117Y-71155925D02*
X46716117Y-70489258D01*
X46716117Y-70584496D02*
X46763736Y-70536877D01*
X46763736Y-70536877D02*
X46858974Y-70489258D01*
X46858974Y-70489258D02*
X47001831Y-70489258D01*
X47001831Y-70489258D02*
X47097069Y-70536877D01*
X47097069Y-70536877D02*
X47144688Y-70632115D01*
X47144688Y-70632115D02*
X47144688Y-71155925D01*
X47144688Y-70632115D02*
X47192307Y-70536877D01*
X47192307Y-70536877D02*
X47287545Y-70489258D01*
X47287545Y-70489258D02*
X47430402Y-70489258D01*
X47430402Y-70489258D02*
X47525641Y-70536877D01*
X47525641Y-70536877D02*
X47573260Y-70632115D01*
X47573260Y-70632115D02*
X47573260Y-71155925D01*
X48811355Y-71155925D02*
X48811355Y-70155925D01*
X48811355Y-70155925D02*
X49049450Y-70155925D01*
X49049450Y-70155925D02*
X49192307Y-70203544D01*
X49192307Y-70203544D02*
X49287545Y-70298782D01*
X49287545Y-70298782D02*
X49335164Y-70394020D01*
X49335164Y-70394020D02*
X49382783Y-70584496D01*
X49382783Y-70584496D02*
X49382783Y-70727353D01*
X49382783Y-70727353D02*
X49335164Y-70917829D01*
X49335164Y-70917829D02*
X49287545Y-71013067D01*
X49287545Y-71013067D02*
X49192307Y-71108306D01*
X49192307Y-71108306D02*
X49049450Y-71155925D01*
X49049450Y-71155925D02*
X48811355Y-71155925D01*
X50192307Y-71108306D02*
X50097069Y-71155925D01*
X50097069Y-71155925D02*
X49906593Y-71155925D01*
X49906593Y-71155925D02*
X49811355Y-71108306D01*
X49811355Y-71108306D02*
X49763736Y-71013067D01*
X49763736Y-71013067D02*
X49763736Y-70632115D01*
X49763736Y-70632115D02*
X49811355Y-70536877D01*
X49811355Y-70536877D02*
X49906593Y-70489258D01*
X49906593Y-70489258D02*
X50097069Y-70489258D01*
X50097069Y-70489258D02*
X50192307Y-70536877D01*
X50192307Y-70536877D02*
X50239926Y-70632115D01*
X50239926Y-70632115D02*
X50239926Y-70727353D01*
X50239926Y-70727353D02*
X49763736Y-70822591D01*
X50668498Y-71155925D02*
X50668498Y-70155925D01*
X50668498Y-70155925D02*
X51049450Y-70155925D01*
X51049450Y-70155925D02*
X51144688Y-70203544D01*
X51144688Y-70203544D02*
X51192307Y-70251163D01*
X51192307Y-70251163D02*
X51239926Y-70346401D01*
X51239926Y-70346401D02*
X51239926Y-70489258D01*
X51239926Y-70489258D02*
X51192307Y-70584496D01*
X51192307Y-70584496D02*
X51144688Y-70632115D01*
X51144688Y-70632115D02*
X51049450Y-70679734D01*
X51049450Y-70679734D02*
X50668498Y-70679734D01*
X51668498Y-71155925D02*
X51668498Y-70489258D01*
X51668498Y-70155925D02*
X51620879Y-70203544D01*
X51620879Y-70203544D02*
X51668498Y-70251163D01*
X51668498Y-70251163D02*
X51716117Y-70203544D01*
X51716117Y-70203544D02*
X51668498Y-70155925D01*
X51668498Y-70155925D02*
X51668498Y-70251163D01*
X52144688Y-70489258D02*
X52144688Y-71155925D01*
X52144688Y-70584496D02*
X52192307Y-70536877D01*
X52192307Y-70536877D02*
X52287545Y-70489258D01*
X52287545Y-70489258D02*
X52430402Y-70489258D01*
X52430402Y-70489258D02*
X52525640Y-70536877D01*
X52525640Y-70536877D02*
X52573259Y-70632115D01*
X52573259Y-70632115D02*
X52573259Y-71155925D01*
X52906593Y-70489258D02*
X53287545Y-70489258D01*
X53049450Y-70155925D02*
X53049450Y-71013067D01*
X53049450Y-71013067D02*
X53097069Y-71108306D01*
X53097069Y-71108306D02*
X53192307Y-71155925D01*
X53192307Y-71155925D02*
X53287545Y-71155925D01*
X53763736Y-71155925D02*
X53668498Y-71108306D01*
X53668498Y-71108306D02*
X53620879Y-71060686D01*
X53620879Y-71060686D02*
X53573260Y-70965448D01*
X53573260Y-70965448D02*
X53573260Y-70679734D01*
X53573260Y-70679734D02*
X53620879Y-70584496D01*
X53620879Y-70584496D02*
X53668498Y-70536877D01*
X53668498Y-70536877D02*
X53763736Y-70489258D01*
X53763736Y-70489258D02*
X53906593Y-70489258D01*
X53906593Y-70489258D02*
X54001831Y-70536877D01*
X54001831Y-70536877D02*
X54049450Y-70584496D01*
X54049450Y-70584496D02*
X54097069Y-70679734D01*
X54097069Y-70679734D02*
X54097069Y-70965448D01*
X54097069Y-70965448D02*
X54049450Y-71060686D01*
X54049450Y-71060686D02*
X54001831Y-71108306D01*
X54001831Y-71108306D02*
X53906593Y-71155925D01*
X53906593Y-71155925D02*
X53763736Y-71155925D01*
X44001831Y-72480154D02*
X44478021Y-72480154D01*
X43906593Y-72765869D02*
X44239926Y-71765869D01*
X44239926Y-71765869D02*
X44573259Y-72765869D01*
X45335164Y-72765869D02*
X45335164Y-71765869D01*
X45335164Y-72718250D02*
X45239926Y-72765869D01*
X45239926Y-72765869D02*
X45049450Y-72765869D01*
X45049450Y-72765869D02*
X44954212Y-72718250D01*
X44954212Y-72718250D02*
X44906593Y-72670630D01*
X44906593Y-72670630D02*
X44858974Y-72575392D01*
X44858974Y-72575392D02*
X44858974Y-72289678D01*
X44858974Y-72289678D02*
X44906593Y-72194440D01*
X44906593Y-72194440D02*
X44954212Y-72146821D01*
X44954212Y-72146821D02*
X45049450Y-72099202D01*
X45049450Y-72099202D02*
X45239926Y-72099202D01*
X45239926Y-72099202D02*
X45335164Y-72146821D01*
X46239926Y-72765869D02*
X46239926Y-72242059D01*
X46239926Y-72242059D02*
X46192307Y-72146821D01*
X46192307Y-72146821D02*
X46097069Y-72099202D01*
X46097069Y-72099202D02*
X45906593Y-72099202D01*
X45906593Y-72099202D02*
X45811355Y-72146821D01*
X46239926Y-72718250D02*
X46144688Y-72765869D01*
X46144688Y-72765869D02*
X45906593Y-72765869D01*
X45906593Y-72765869D02*
X45811355Y-72718250D01*
X45811355Y-72718250D02*
X45763736Y-72623011D01*
X45763736Y-72623011D02*
X45763736Y-72527773D01*
X45763736Y-72527773D02*
X45811355Y-72432535D01*
X45811355Y-72432535D02*
X45906593Y-72384916D01*
X45906593Y-72384916D02*
X46144688Y-72384916D01*
X46144688Y-72384916D02*
X46239926Y-72337297D01*
X46716117Y-72765869D02*
X46716117Y-72099202D01*
X46716117Y-72194440D02*
X46763736Y-72146821D01*
X46763736Y-72146821D02*
X46858974Y-72099202D01*
X46858974Y-72099202D02*
X47001831Y-72099202D01*
X47001831Y-72099202D02*
X47097069Y-72146821D01*
X47097069Y-72146821D02*
X47144688Y-72242059D01*
X47144688Y-72242059D02*
X47144688Y-72765869D01*
X47144688Y-72242059D02*
X47192307Y-72146821D01*
X47192307Y-72146821D02*
X47287545Y-72099202D01*
X47287545Y-72099202D02*
X47430402Y-72099202D01*
X47430402Y-72099202D02*
X47525641Y-72146821D01*
X47525641Y-72146821D02*
X47573260Y-72242059D01*
X47573260Y-72242059D02*
X47573260Y-72765869D01*
X49335164Y-71813488D02*
X49239926Y-71765869D01*
X49239926Y-71765869D02*
X49097069Y-71765869D01*
X49097069Y-71765869D02*
X48954212Y-71813488D01*
X48954212Y-71813488D02*
X48858974Y-71908726D01*
X48858974Y-71908726D02*
X48811355Y-72003964D01*
X48811355Y-72003964D02*
X48763736Y-72194440D01*
X48763736Y-72194440D02*
X48763736Y-72337297D01*
X48763736Y-72337297D02*
X48811355Y-72527773D01*
X48811355Y-72527773D02*
X48858974Y-72623011D01*
X48858974Y-72623011D02*
X48954212Y-72718250D01*
X48954212Y-72718250D02*
X49097069Y-72765869D01*
X49097069Y-72765869D02*
X49192307Y-72765869D01*
X49192307Y-72765869D02*
X49335164Y-72718250D01*
X49335164Y-72718250D02*
X49382783Y-72670630D01*
X49382783Y-72670630D02*
X49382783Y-72337297D01*
X49382783Y-72337297D02*
X49192307Y-72337297D01*
X49811355Y-72765869D02*
X49811355Y-72099202D01*
X49811355Y-71765869D02*
X49763736Y-71813488D01*
X49763736Y-71813488D02*
X49811355Y-71861107D01*
X49811355Y-71861107D02*
X49858974Y-71813488D01*
X49858974Y-71813488D02*
X49811355Y-71765869D01*
X49811355Y-71765869D02*
X49811355Y-71861107D01*
X50716116Y-72765869D02*
X50716116Y-72242059D01*
X50716116Y-72242059D02*
X50668497Y-72146821D01*
X50668497Y-72146821D02*
X50573259Y-72099202D01*
X50573259Y-72099202D02*
X50382783Y-72099202D01*
X50382783Y-72099202D02*
X50287545Y-72146821D01*
X50716116Y-72718250D02*
X50620878Y-72765869D01*
X50620878Y-72765869D02*
X50382783Y-72765869D01*
X50382783Y-72765869D02*
X50287545Y-72718250D01*
X50287545Y-72718250D02*
X50239926Y-72623011D01*
X50239926Y-72623011D02*
X50239926Y-72527773D01*
X50239926Y-72527773D02*
X50287545Y-72432535D01*
X50287545Y-72432535D02*
X50382783Y-72384916D01*
X50382783Y-72384916D02*
X50620878Y-72384916D01*
X50620878Y-72384916D02*
X50716116Y-72337297D01*
X51192307Y-72099202D02*
X51192307Y-72765869D01*
X51192307Y-72194440D02*
X51239926Y-72146821D01*
X51239926Y-72146821D02*
X51335164Y-72099202D01*
X51335164Y-72099202D02*
X51478021Y-72099202D01*
X51478021Y-72099202D02*
X51573259Y-72146821D01*
X51573259Y-72146821D02*
X51620878Y-72242059D01*
X51620878Y-72242059D02*
X51620878Y-72765869D01*
X52097069Y-72099202D02*
X52097069Y-72765869D01*
X52097069Y-72194440D02*
X52144688Y-72146821D01*
X52144688Y-72146821D02*
X52239926Y-72099202D01*
X52239926Y-72099202D02*
X52382783Y-72099202D01*
X52382783Y-72099202D02*
X52478021Y-72146821D01*
X52478021Y-72146821D02*
X52525640Y-72242059D01*
X52525640Y-72242059D02*
X52525640Y-72765869D01*
X53382783Y-72718250D02*
X53287545Y-72765869D01*
X53287545Y-72765869D02*
X53097069Y-72765869D01*
X53097069Y-72765869D02*
X53001831Y-72718250D01*
X53001831Y-72718250D02*
X52954212Y-72623011D01*
X52954212Y-72623011D02*
X52954212Y-72242059D01*
X52954212Y-72242059D02*
X53001831Y-72146821D01*
X53001831Y-72146821D02*
X53097069Y-72099202D01*
X53097069Y-72099202D02*
X53287545Y-72099202D01*
X53287545Y-72099202D02*
X53382783Y-72146821D01*
X53382783Y-72146821D02*
X53430402Y-72242059D01*
X53430402Y-72242059D02*
X53430402Y-72337297D01*
X53430402Y-72337297D02*
X52954212Y-72432535D01*
X53716117Y-72099202D02*
X54097069Y-72099202D01*
X53858974Y-71765869D02*
X53858974Y-72623011D01*
X53858974Y-72623011D02*
X53906593Y-72718250D01*
X53906593Y-72718250D02*
X54001831Y-72765869D01*
X54001831Y-72765869D02*
X54097069Y-72765869D01*
X54287546Y-72099202D02*
X54668498Y-72099202D01*
X54430403Y-71765869D02*
X54430403Y-72623011D01*
X54430403Y-72623011D02*
X54478022Y-72718250D01*
X54478022Y-72718250D02*
X54573260Y-72765869D01*
X54573260Y-72765869D02*
X54668498Y-72765869D01*
X55001832Y-72765869D02*
X55001832Y-72099202D01*
X55001832Y-71765869D02*
X54954213Y-71813488D01*
X54954213Y-71813488D02*
X55001832Y-71861107D01*
X55001832Y-71861107D02*
X55049451Y-71813488D01*
X55049451Y-71813488D02*
X55001832Y-71765869D01*
X55001832Y-71765869D02*
X55001832Y-71861107D01*
D10*
X25812360Y-105567014D02*
X25812360Y-104817014D01*
X25812360Y-104817014D02*
X26098074Y-104817014D01*
X26098074Y-104817014D02*
X26169503Y-104852728D01*
X26169503Y-104852728D02*
X26205217Y-104888442D01*
X26205217Y-104888442D02*
X26240931Y-104959871D01*
X26240931Y-104959871D02*
X26240931Y-105067014D01*
X26240931Y-105067014D02*
X26205217Y-105138442D01*
X26205217Y-105138442D02*
X26169503Y-105174157D01*
X26169503Y-105174157D02*
X26098074Y-105209871D01*
X26098074Y-105209871D02*
X25812360Y-105209871D01*
X26490931Y-104817014D02*
X26669503Y-105567014D01*
X26669503Y-105567014D02*
X26812360Y-105031300D01*
X26812360Y-105031300D02*
X26955217Y-105567014D01*
X26955217Y-105567014D02*
X27133789Y-104817014D01*
X27419503Y-105567014D02*
X27419503Y-104817014D01*
X27419503Y-104817014D02*
X27669503Y-105352728D01*
X27669503Y-105352728D02*
X27919503Y-104817014D01*
X27919503Y-104817014D02*
X27919503Y-105567014D01*
X135955693Y-64960038D02*
X135860455Y-64912419D01*
X135860455Y-64912419D02*
X135717598Y-64912419D01*
X135717598Y-64912419D02*
X135574741Y-64960038D01*
X135574741Y-64960038D02*
X135479503Y-65055276D01*
X135479503Y-65055276D02*
X135431884Y-65150514D01*
X135431884Y-65150514D02*
X135384265Y-65340990D01*
X135384265Y-65340990D02*
X135384265Y-65483847D01*
X135384265Y-65483847D02*
X135431884Y-65674323D01*
X135431884Y-65674323D02*
X135479503Y-65769561D01*
X135479503Y-65769561D02*
X135574741Y-65864800D01*
X135574741Y-65864800D02*
X135717598Y-65912419D01*
X135717598Y-65912419D02*
X135812836Y-65912419D01*
X135812836Y-65912419D02*
X135955693Y-65864800D01*
X135955693Y-65864800D02*
X136003312Y-65817180D01*
X136003312Y-65817180D02*
X136003312Y-65483847D01*
X136003312Y-65483847D02*
X135812836Y-65483847D01*
X136431884Y-65912419D02*
X136431884Y-64912419D01*
X136431884Y-64912419D02*
X137003312Y-65912419D01*
X137003312Y-65912419D02*
X137003312Y-64912419D01*
X137479503Y-65912419D02*
X137479503Y-64912419D01*
X137479503Y-64912419D02*
X137717598Y-64912419D01*
X137717598Y-64912419D02*
X137860455Y-64960038D01*
X137860455Y-64960038D02*
X137955693Y-65055276D01*
X137955693Y-65055276D02*
X138003312Y-65150514D01*
X138003312Y-65150514D02*
X138050931Y-65340990D01*
X138050931Y-65340990D02*
X138050931Y-65483847D01*
X138050931Y-65483847D02*
X138003312Y-65674323D01*
X138003312Y-65674323D02*
X137955693Y-65769561D01*
X137955693Y-65769561D02*
X137860455Y-65864800D01*
X137860455Y-65864800D02*
X137717598Y-65912419D01*
X137717598Y-65912419D02*
X137479503Y-65912419D01*
X53418417Y-84278728D02*
X53346989Y-84243014D01*
X53346989Y-84243014D02*
X53239846Y-84243014D01*
X53239846Y-84243014D02*
X53132703Y-84278728D01*
X53132703Y-84278728D02*
X53061274Y-84350157D01*
X53061274Y-84350157D02*
X53025560Y-84421585D01*
X53025560Y-84421585D02*
X52989846Y-84564442D01*
X52989846Y-84564442D02*
X52989846Y-84671585D01*
X52989846Y-84671585D02*
X53025560Y-84814442D01*
X53025560Y-84814442D02*
X53061274Y-84885871D01*
X53061274Y-84885871D02*
X53132703Y-84957300D01*
X53132703Y-84957300D02*
X53239846Y-84993014D01*
X53239846Y-84993014D02*
X53311274Y-84993014D01*
X53311274Y-84993014D02*
X53418417Y-84957300D01*
X53418417Y-84957300D02*
X53454131Y-84921585D01*
X53454131Y-84921585D02*
X53454131Y-84671585D01*
X53454131Y-84671585D02*
X53311274Y-84671585D01*
X53775560Y-84993014D02*
X53775560Y-84243014D01*
X53775560Y-84243014D02*
X53954131Y-84243014D01*
X53954131Y-84243014D02*
X54061274Y-84278728D01*
X54061274Y-84278728D02*
X54132703Y-84350157D01*
X54132703Y-84350157D02*
X54168417Y-84421585D01*
X54168417Y-84421585D02*
X54204131Y-84564442D01*
X54204131Y-84564442D02*
X54204131Y-84671585D01*
X54204131Y-84671585D02*
X54168417Y-84814442D01*
X54168417Y-84814442D02*
X54132703Y-84885871D01*
X54132703Y-84885871D02*
X54061274Y-84957300D01*
X54061274Y-84957300D02*
X53954131Y-84993014D01*
X53954131Y-84993014D02*
X53775560Y-84993014D01*
X55096989Y-84993014D02*
X55096989Y-84243014D01*
X55096989Y-84243014D02*
X55382703Y-84243014D01*
X55382703Y-84243014D02*
X55454132Y-84278728D01*
X55454132Y-84278728D02*
X55489846Y-84314442D01*
X55489846Y-84314442D02*
X55525560Y-84385871D01*
X55525560Y-84385871D02*
X55525560Y-84493014D01*
X55525560Y-84493014D02*
X55489846Y-84564442D01*
X55489846Y-84564442D02*
X55454132Y-84600157D01*
X55454132Y-84600157D02*
X55382703Y-84635871D01*
X55382703Y-84635871D02*
X55096989Y-84635871D01*
X55775560Y-84243014D02*
X55954132Y-84993014D01*
X55954132Y-84993014D02*
X56096989Y-84457300D01*
X56096989Y-84457300D02*
X56239846Y-84993014D01*
X56239846Y-84993014D02*
X56418418Y-84243014D01*
X56704132Y-84993014D02*
X56704132Y-84243014D01*
X56704132Y-84243014D02*
X56954132Y-84778728D01*
X56954132Y-84778728D02*
X57204132Y-84243014D01*
X57204132Y-84243014D02*
X57204132Y-84993014D01*
X35625693Y-65976038D02*
X35530455Y-65928419D01*
X35530455Y-65928419D02*
X35387598Y-65928419D01*
X35387598Y-65928419D02*
X35244741Y-65976038D01*
X35244741Y-65976038D02*
X35149503Y-66071276D01*
X35149503Y-66071276D02*
X35101884Y-66166514D01*
X35101884Y-66166514D02*
X35054265Y-66356990D01*
X35054265Y-66356990D02*
X35054265Y-66499847D01*
X35054265Y-66499847D02*
X35101884Y-66690323D01*
X35101884Y-66690323D02*
X35149503Y-66785561D01*
X35149503Y-66785561D02*
X35244741Y-66880800D01*
X35244741Y-66880800D02*
X35387598Y-66928419D01*
X35387598Y-66928419D02*
X35482836Y-66928419D01*
X35482836Y-66928419D02*
X35625693Y-66880800D01*
X35625693Y-66880800D02*
X35673312Y-66833180D01*
X35673312Y-66833180D02*
X35673312Y-66499847D01*
X35673312Y-66499847D02*
X35482836Y-66499847D01*
X36101884Y-66928419D02*
X36101884Y-65928419D01*
X36101884Y-65928419D02*
X36673312Y-66928419D01*
X36673312Y-66928419D02*
X36673312Y-65928419D01*
X37149503Y-66928419D02*
X37149503Y-65928419D01*
X37149503Y-65928419D02*
X37387598Y-65928419D01*
X37387598Y-65928419D02*
X37530455Y-65976038D01*
X37530455Y-65976038D02*
X37625693Y-66071276D01*
X37625693Y-66071276D02*
X37673312Y-66166514D01*
X37673312Y-66166514D02*
X37720931Y-66356990D01*
X37720931Y-66356990D02*
X37720931Y-66499847D01*
X37720931Y-66499847D02*
X37673312Y-66690323D01*
X37673312Y-66690323D02*
X37625693Y-66785561D01*
X37625693Y-66785561D02*
X37530455Y-66880800D01*
X37530455Y-66880800D02*
X37387598Y-66928419D01*
X37387598Y-66928419D02*
X37149503Y-66928419D01*
X38668360Y-109885014D02*
X38668360Y-109135014D01*
X38989789Y-109849300D02*
X39096932Y-109885014D01*
X39096932Y-109885014D02*
X39275503Y-109885014D01*
X39275503Y-109885014D02*
X39346932Y-109849300D01*
X39346932Y-109849300D02*
X39382646Y-109813585D01*
X39382646Y-109813585D02*
X39418360Y-109742157D01*
X39418360Y-109742157D02*
X39418360Y-109670728D01*
X39418360Y-109670728D02*
X39382646Y-109599300D01*
X39382646Y-109599300D02*
X39346932Y-109563585D01*
X39346932Y-109563585D02*
X39275503Y-109527871D01*
X39275503Y-109527871D02*
X39132646Y-109492157D01*
X39132646Y-109492157D02*
X39061217Y-109456442D01*
X39061217Y-109456442D02*
X39025503Y-109420728D01*
X39025503Y-109420728D02*
X38989789Y-109349300D01*
X38989789Y-109349300D02*
X38989789Y-109277871D01*
X38989789Y-109277871D02*
X39025503Y-109206442D01*
X39025503Y-109206442D02*
X39061217Y-109170728D01*
X39061217Y-109170728D02*
X39132646Y-109135014D01*
X39132646Y-109135014D02*
X39311217Y-109135014D01*
X39311217Y-109135014D02*
X39418360Y-109170728D01*
X39882646Y-109135014D02*
X40025503Y-109135014D01*
X40025503Y-109135014D02*
X40096932Y-109170728D01*
X40096932Y-109170728D02*
X40168360Y-109242157D01*
X40168360Y-109242157D02*
X40204075Y-109385014D01*
X40204075Y-109385014D02*
X40204075Y-109635014D01*
X40204075Y-109635014D02*
X40168360Y-109777871D01*
X40168360Y-109777871D02*
X40096932Y-109849300D01*
X40096932Y-109849300D02*
X40025503Y-109885014D01*
X40025503Y-109885014D02*
X39882646Y-109885014D01*
X39882646Y-109885014D02*
X39811218Y-109849300D01*
X39811218Y-109849300D02*
X39739789Y-109777871D01*
X39739789Y-109777871D02*
X39704075Y-109635014D01*
X39704075Y-109635014D02*
X39704075Y-109385014D01*
X39704075Y-109385014D02*
X39739789Y-109242157D01*
X39739789Y-109242157D02*
X39811218Y-109170728D01*
X39811218Y-109170728D02*
X39882646Y-109135014D01*
X40346932Y-109956442D02*
X40918360Y-109956442D01*
X41489789Y-109885014D02*
X41061218Y-109885014D01*
X41275503Y-109885014D02*
X41275503Y-109135014D01*
X41275503Y-109135014D02*
X41204075Y-109242157D01*
X41204075Y-109242157D02*
X41132646Y-109313585D01*
X41132646Y-109313585D02*
X41061218Y-109349300D01*
X41775504Y-109206442D02*
X41811218Y-109170728D01*
X41811218Y-109170728D02*
X41882647Y-109135014D01*
X41882647Y-109135014D02*
X42061218Y-109135014D01*
X42061218Y-109135014D02*
X42132647Y-109170728D01*
X42132647Y-109170728D02*
X42168361Y-109206442D01*
X42168361Y-109206442D02*
X42204075Y-109277871D01*
X42204075Y-109277871D02*
X42204075Y-109349300D01*
X42204075Y-109349300D02*
X42168361Y-109456442D01*
X42168361Y-109456442D02*
X41739789Y-109885014D01*
X41739789Y-109885014D02*
X42204075Y-109885014D01*
X74583027Y-40782419D02*
X74916360Y-41782419D01*
X74916360Y-41782419D02*
X75249693Y-40782419D01*
X75535408Y-41734800D02*
X75678265Y-41782419D01*
X75678265Y-41782419D02*
X75916360Y-41782419D01*
X75916360Y-41782419D02*
X76011598Y-41734800D01*
X76011598Y-41734800D02*
X76059217Y-41687180D01*
X76059217Y-41687180D02*
X76106836Y-41591942D01*
X76106836Y-41591942D02*
X76106836Y-41496704D01*
X76106836Y-41496704D02*
X76059217Y-41401466D01*
X76059217Y-41401466D02*
X76011598Y-41353847D01*
X76011598Y-41353847D02*
X75916360Y-41306228D01*
X75916360Y-41306228D02*
X75725884Y-41258609D01*
X75725884Y-41258609D02*
X75630646Y-41210990D01*
X75630646Y-41210990D02*
X75583027Y-41163371D01*
X75583027Y-41163371D02*
X75535408Y-41068133D01*
X75535408Y-41068133D02*
X75535408Y-40972895D01*
X75535408Y-40972895D02*
X75583027Y-40877657D01*
X75583027Y-40877657D02*
X75630646Y-40830038D01*
X75630646Y-40830038D02*
X75725884Y-40782419D01*
X75725884Y-40782419D02*
X75963979Y-40782419D01*
X75963979Y-40782419D02*
X76106836Y-40830038D01*
X76440170Y-40782419D02*
X76678265Y-41782419D01*
X76678265Y-41782419D02*
X76868741Y-41068133D01*
X76868741Y-41068133D02*
X77059217Y-41782419D01*
X77059217Y-41782419D02*
X77297313Y-40782419D01*
D12*
X51077905Y-118564819D02*
X51077905Y-117564819D01*
X51077905Y-117564819D02*
X51316000Y-117564819D01*
X51316000Y-117564819D02*
X51458857Y-117612438D01*
X51458857Y-117612438D02*
X51554095Y-117707676D01*
X51554095Y-117707676D02*
X51601714Y-117802914D01*
X51601714Y-117802914D02*
X51649333Y-117993390D01*
X51649333Y-117993390D02*
X51649333Y-118136247D01*
X51649333Y-118136247D02*
X51601714Y-118326723D01*
X51601714Y-118326723D02*
X51554095Y-118421961D01*
X51554095Y-118421961D02*
X51458857Y-118517200D01*
X51458857Y-118517200D02*
X51316000Y-118564819D01*
X51316000Y-118564819D02*
X51077905Y-118564819D01*
X51982667Y-117564819D02*
X52601714Y-117564819D01*
X52601714Y-117564819D02*
X52268381Y-117945771D01*
X52268381Y-117945771D02*
X52411238Y-117945771D01*
X52411238Y-117945771D02*
X52506476Y-117993390D01*
X52506476Y-117993390D02*
X52554095Y-118041009D01*
X52554095Y-118041009D02*
X52601714Y-118136247D01*
X52601714Y-118136247D02*
X52601714Y-118374342D01*
X52601714Y-118374342D02*
X52554095Y-118469580D01*
X52554095Y-118469580D02*
X52506476Y-118517200D01*
X52506476Y-118517200D02*
X52411238Y-118564819D01*
X52411238Y-118564819D02*
X52125524Y-118564819D01*
X52125524Y-118564819D02*
X52030286Y-118517200D01*
X52030286Y-118517200D02*
X51982667Y-118469580D01*
X48957142Y-105015580D02*
X48909523Y-105063200D01*
X48909523Y-105063200D02*
X48766666Y-105110819D01*
X48766666Y-105110819D02*
X48671428Y-105110819D01*
X48671428Y-105110819D02*
X48528571Y-105063200D01*
X48528571Y-105063200D02*
X48433333Y-104967961D01*
X48433333Y-104967961D02*
X48385714Y-104872723D01*
X48385714Y-104872723D02*
X48338095Y-104682247D01*
X48338095Y-104682247D02*
X48338095Y-104539390D01*
X48338095Y-104539390D02*
X48385714Y-104348914D01*
X48385714Y-104348914D02*
X48433333Y-104253676D01*
X48433333Y-104253676D02*
X48528571Y-104158438D01*
X48528571Y-104158438D02*
X48671428Y-104110819D01*
X48671428Y-104110819D02*
X48766666Y-104110819D01*
X48766666Y-104110819D02*
X48909523Y-104158438D01*
X48909523Y-104158438D02*
X48957142Y-104206057D01*
X49909523Y-105110819D02*
X49338095Y-105110819D01*
X49623809Y-105110819D02*
X49623809Y-104110819D01*
X49623809Y-104110819D02*
X49528571Y-104253676D01*
X49528571Y-104253676D02*
X49433333Y-104348914D01*
X49433333Y-104348914D02*
X49338095Y-104396533D01*
X50861904Y-105110819D02*
X50290476Y-105110819D01*
X50576190Y-105110819D02*
X50576190Y-104110819D01*
X50576190Y-104110819D02*
X50480952Y-104253676D01*
X50480952Y-104253676D02*
X50385714Y-104348914D01*
X50385714Y-104348914D02*
X50290476Y-104396533D01*
X48947105Y-90624819D02*
X48947105Y-89624819D01*
X48947105Y-89624819D02*
X49185200Y-89624819D01*
X49185200Y-89624819D02*
X49328057Y-89672438D01*
X49328057Y-89672438D02*
X49423295Y-89767676D01*
X49423295Y-89767676D02*
X49470914Y-89862914D01*
X49470914Y-89862914D02*
X49518533Y-90053390D01*
X49518533Y-90053390D02*
X49518533Y-90196247D01*
X49518533Y-90196247D02*
X49470914Y-90386723D01*
X49470914Y-90386723D02*
X49423295Y-90481961D01*
X49423295Y-90481961D02*
X49328057Y-90577200D01*
X49328057Y-90577200D02*
X49185200Y-90624819D01*
X49185200Y-90624819D02*
X48947105Y-90624819D01*
X50375676Y-89624819D02*
X50185200Y-89624819D01*
X50185200Y-89624819D02*
X50089962Y-89672438D01*
X50089962Y-89672438D02*
X50042343Y-89720057D01*
X50042343Y-89720057D02*
X49947105Y-89862914D01*
X49947105Y-89862914D02*
X49899486Y-90053390D01*
X49899486Y-90053390D02*
X49899486Y-90434342D01*
X49899486Y-90434342D02*
X49947105Y-90529580D01*
X49947105Y-90529580D02*
X49994724Y-90577200D01*
X49994724Y-90577200D02*
X50089962Y-90624819D01*
X50089962Y-90624819D02*
X50280438Y-90624819D01*
X50280438Y-90624819D02*
X50375676Y-90577200D01*
X50375676Y-90577200D02*
X50423295Y-90529580D01*
X50423295Y-90529580D02*
X50470914Y-90434342D01*
X50470914Y-90434342D02*
X50470914Y-90196247D01*
X50470914Y-90196247D02*
X50423295Y-90101009D01*
X50423295Y-90101009D02*
X50375676Y-90053390D01*
X50375676Y-90053390D02*
X50280438Y-90005771D01*
X50280438Y-90005771D02*
X50089962Y-90005771D01*
X50089962Y-90005771D02*
X49994724Y-90053390D01*
X49994724Y-90053390D02*
X49947105Y-90101009D01*
X49947105Y-90101009D02*
X49899486Y-90196247D01*
X31837333Y-93871580D02*
X31789714Y-93919200D01*
X31789714Y-93919200D02*
X31646857Y-93966819D01*
X31646857Y-93966819D02*
X31551619Y-93966819D01*
X31551619Y-93966819D02*
X31408762Y-93919200D01*
X31408762Y-93919200D02*
X31313524Y-93823961D01*
X31313524Y-93823961D02*
X31265905Y-93728723D01*
X31265905Y-93728723D02*
X31218286Y-93538247D01*
X31218286Y-93538247D02*
X31218286Y-93395390D01*
X31218286Y-93395390D02*
X31265905Y-93204914D01*
X31265905Y-93204914D02*
X31313524Y-93109676D01*
X31313524Y-93109676D02*
X31408762Y-93014438D01*
X31408762Y-93014438D02*
X31551619Y-92966819D01*
X31551619Y-92966819D02*
X31646857Y-92966819D01*
X31646857Y-92966819D02*
X31789714Y-93014438D01*
X31789714Y-93014438D02*
X31837333Y-93062057D01*
X32408762Y-93395390D02*
X32313524Y-93347771D01*
X32313524Y-93347771D02*
X32265905Y-93300152D01*
X32265905Y-93300152D02*
X32218286Y-93204914D01*
X32218286Y-93204914D02*
X32218286Y-93157295D01*
X32218286Y-93157295D02*
X32265905Y-93062057D01*
X32265905Y-93062057D02*
X32313524Y-93014438D01*
X32313524Y-93014438D02*
X32408762Y-92966819D01*
X32408762Y-92966819D02*
X32599238Y-92966819D01*
X32599238Y-92966819D02*
X32694476Y-93014438D01*
X32694476Y-93014438D02*
X32742095Y-93062057D01*
X32742095Y-93062057D02*
X32789714Y-93157295D01*
X32789714Y-93157295D02*
X32789714Y-93204914D01*
X32789714Y-93204914D02*
X32742095Y-93300152D01*
X32742095Y-93300152D02*
X32694476Y-93347771D01*
X32694476Y-93347771D02*
X32599238Y-93395390D01*
X32599238Y-93395390D02*
X32408762Y-93395390D01*
X32408762Y-93395390D02*
X32313524Y-93443009D01*
X32313524Y-93443009D02*
X32265905Y-93490628D01*
X32265905Y-93490628D02*
X32218286Y-93585866D01*
X32218286Y-93585866D02*
X32218286Y-93776342D01*
X32218286Y-93776342D02*
X32265905Y-93871580D01*
X32265905Y-93871580D02*
X32313524Y-93919200D01*
X32313524Y-93919200D02*
X32408762Y-93966819D01*
X32408762Y-93966819D02*
X32599238Y-93966819D01*
X32599238Y-93966819D02*
X32694476Y-93919200D01*
X32694476Y-93919200D02*
X32742095Y-93871580D01*
X32742095Y-93871580D02*
X32789714Y-93776342D01*
X32789714Y-93776342D02*
X32789714Y-93585866D01*
X32789714Y-93585866D02*
X32742095Y-93490628D01*
X32742095Y-93490628D02*
X32694476Y-93443009D01*
X32694476Y-93443009D02*
X32599238Y-93395390D01*
X37053333Y-105396819D02*
X36720000Y-104920628D01*
X36481905Y-105396819D02*
X36481905Y-104396819D01*
X36481905Y-104396819D02*
X36862857Y-104396819D01*
X36862857Y-104396819D02*
X36958095Y-104444438D01*
X36958095Y-104444438D02*
X37005714Y-104492057D01*
X37005714Y-104492057D02*
X37053333Y-104587295D01*
X37053333Y-104587295D02*
X37053333Y-104730152D01*
X37053333Y-104730152D02*
X37005714Y-104825390D01*
X37005714Y-104825390D02*
X36958095Y-104873009D01*
X36958095Y-104873009D02*
X36862857Y-104920628D01*
X36862857Y-104920628D02*
X36481905Y-104920628D01*
X37958095Y-104396819D02*
X37481905Y-104396819D01*
X37481905Y-104396819D02*
X37434286Y-104873009D01*
X37434286Y-104873009D02*
X37481905Y-104825390D01*
X37481905Y-104825390D02*
X37577143Y-104777771D01*
X37577143Y-104777771D02*
X37815238Y-104777771D01*
X37815238Y-104777771D02*
X37910476Y-104825390D01*
X37910476Y-104825390D02*
X37958095Y-104873009D01*
X37958095Y-104873009D02*
X38005714Y-104968247D01*
X38005714Y-104968247D02*
X38005714Y-105206342D01*
X38005714Y-105206342D02*
X37958095Y-105301580D01*
X37958095Y-105301580D02*
X37910476Y-105349200D01*
X37910476Y-105349200D02*
X37815238Y-105396819D01*
X37815238Y-105396819D02*
X37577143Y-105396819D01*
X37577143Y-105396819D02*
X37481905Y-105349200D01*
X37481905Y-105349200D02*
X37434286Y-105301580D01*
X70024666Y-39366819D02*
X70024666Y-40081104D01*
X70024666Y-40081104D02*
X69977047Y-40223961D01*
X69977047Y-40223961D02*
X69881809Y-40319200D01*
X69881809Y-40319200D02*
X69738952Y-40366819D01*
X69738952Y-40366819D02*
X69643714Y-40366819D01*
X70405619Y-39366819D02*
X71024666Y-39366819D01*
X71024666Y-39366819D02*
X70691333Y-39747771D01*
X70691333Y-39747771D02*
X70834190Y-39747771D01*
X70834190Y-39747771D02*
X70929428Y-39795390D01*
X70929428Y-39795390D02*
X70977047Y-39843009D01*
X70977047Y-39843009D02*
X71024666Y-39938247D01*
X71024666Y-39938247D02*
X71024666Y-40176342D01*
X71024666Y-40176342D02*
X70977047Y-40271580D01*
X70977047Y-40271580D02*
X70929428Y-40319200D01*
X70929428Y-40319200D02*
X70834190Y-40366819D01*
X70834190Y-40366819D02*
X70548476Y-40366819D01*
X70548476Y-40366819D02*
X70453238Y-40319200D01*
X70453238Y-40319200D02*
X70405619Y-40271580D01*
X46114342Y-86560819D02*
X45781009Y-86084628D01*
X45542914Y-86560819D02*
X45542914Y-85560819D01*
X45542914Y-85560819D02*
X45923866Y-85560819D01*
X45923866Y-85560819D02*
X46019104Y-85608438D01*
X46019104Y-85608438D02*
X46066723Y-85656057D01*
X46066723Y-85656057D02*
X46114342Y-85751295D01*
X46114342Y-85751295D02*
X46114342Y-85894152D01*
X46114342Y-85894152D02*
X46066723Y-85989390D01*
X46066723Y-85989390D02*
X46019104Y-86037009D01*
X46019104Y-86037009D02*
X45923866Y-86084628D01*
X45923866Y-86084628D02*
X45542914Y-86084628D01*
X47066723Y-86560819D02*
X46495295Y-86560819D01*
X46781009Y-86560819D02*
X46781009Y-85560819D01*
X46781009Y-85560819D02*
X46685771Y-85703676D01*
X46685771Y-85703676D02*
X46590533Y-85798914D01*
X46590533Y-85798914D02*
X46495295Y-85846533D01*
X47400057Y-85560819D02*
X48019104Y-85560819D01*
X48019104Y-85560819D02*
X47685771Y-85941771D01*
X47685771Y-85941771D02*
X47828628Y-85941771D01*
X47828628Y-85941771D02*
X47923866Y-85989390D01*
X47923866Y-85989390D02*
X47971485Y-86037009D01*
X47971485Y-86037009D02*
X48019104Y-86132247D01*
X48019104Y-86132247D02*
X48019104Y-86370342D01*
X48019104Y-86370342D02*
X47971485Y-86465580D01*
X47971485Y-86465580D02*
X47923866Y-86513200D01*
X47923866Y-86513200D02*
X47828628Y-86560819D01*
X47828628Y-86560819D02*
X47542914Y-86560819D01*
X47542914Y-86560819D02*
X47447676Y-86513200D01*
X47447676Y-86513200D02*
X47400057Y-86465580D01*
X57218342Y-99794819D02*
X56885009Y-99318628D01*
X56646914Y-99794819D02*
X56646914Y-98794819D01*
X56646914Y-98794819D02*
X57027866Y-98794819D01*
X57027866Y-98794819D02*
X57123104Y-98842438D01*
X57123104Y-98842438D02*
X57170723Y-98890057D01*
X57170723Y-98890057D02*
X57218342Y-98985295D01*
X57218342Y-98985295D02*
X57218342Y-99128152D01*
X57218342Y-99128152D02*
X57170723Y-99223390D01*
X57170723Y-99223390D02*
X57123104Y-99271009D01*
X57123104Y-99271009D02*
X57027866Y-99318628D01*
X57027866Y-99318628D02*
X56646914Y-99318628D01*
X58170723Y-99794819D02*
X57599295Y-99794819D01*
X57885009Y-99794819D02*
X57885009Y-98794819D01*
X57885009Y-98794819D02*
X57789771Y-98937676D01*
X57789771Y-98937676D02*
X57694533Y-99032914D01*
X57694533Y-99032914D02*
X57599295Y-99080533D01*
X58551676Y-98890057D02*
X58599295Y-98842438D01*
X58599295Y-98842438D02*
X58694533Y-98794819D01*
X58694533Y-98794819D02*
X58932628Y-98794819D01*
X58932628Y-98794819D02*
X59027866Y-98842438D01*
X59027866Y-98842438D02*
X59075485Y-98890057D01*
X59075485Y-98890057D02*
X59123104Y-98985295D01*
X59123104Y-98985295D02*
X59123104Y-99080533D01*
X59123104Y-99080533D02*
X59075485Y-99223390D01*
X59075485Y-99223390D02*
X58504057Y-99794819D01*
X58504057Y-99794819D02*
X59123104Y-99794819D01*
X136276221Y-81191580D02*
X136228602Y-81239200D01*
X136228602Y-81239200D02*
X136085745Y-81286819D01*
X136085745Y-81286819D02*
X135990507Y-81286819D01*
X135990507Y-81286819D02*
X135847650Y-81239200D01*
X135847650Y-81239200D02*
X135752412Y-81143961D01*
X135752412Y-81143961D02*
X135704793Y-81048723D01*
X135704793Y-81048723D02*
X135657174Y-80858247D01*
X135657174Y-80858247D02*
X135657174Y-80715390D01*
X135657174Y-80715390D02*
X135704793Y-80524914D01*
X135704793Y-80524914D02*
X135752412Y-80429676D01*
X135752412Y-80429676D02*
X135847650Y-80334438D01*
X135847650Y-80334438D02*
X135990507Y-80286819D01*
X135990507Y-80286819D02*
X136085745Y-80286819D01*
X136085745Y-80286819D02*
X136228602Y-80334438D01*
X136228602Y-80334438D02*
X136276221Y-80382057D01*
X137180983Y-80286819D02*
X136704793Y-80286819D01*
X136704793Y-80286819D02*
X136657174Y-80763009D01*
X136657174Y-80763009D02*
X136704793Y-80715390D01*
X136704793Y-80715390D02*
X136800031Y-80667771D01*
X136800031Y-80667771D02*
X137038126Y-80667771D01*
X137038126Y-80667771D02*
X137133364Y-80715390D01*
X137133364Y-80715390D02*
X137180983Y-80763009D01*
X137180983Y-80763009D02*
X137228602Y-80858247D01*
X137228602Y-80858247D02*
X137228602Y-81096342D01*
X137228602Y-81096342D02*
X137180983Y-81191580D01*
X137180983Y-81191580D02*
X137133364Y-81239200D01*
X137133364Y-81239200D02*
X137038126Y-81286819D01*
X137038126Y-81286819D02*
X136800031Y-81286819D01*
X136800031Y-81286819D02*
X136704793Y-81239200D01*
X136704793Y-81239200D02*
X136657174Y-81191580D01*
X53916342Y-98498819D02*
X53583009Y-98022628D01*
X53344914Y-98498819D02*
X53344914Y-97498819D01*
X53344914Y-97498819D02*
X53725866Y-97498819D01*
X53725866Y-97498819D02*
X53821104Y-97546438D01*
X53821104Y-97546438D02*
X53868723Y-97594057D01*
X53868723Y-97594057D02*
X53916342Y-97689295D01*
X53916342Y-97689295D02*
X53916342Y-97832152D01*
X53916342Y-97832152D02*
X53868723Y-97927390D01*
X53868723Y-97927390D02*
X53821104Y-97975009D01*
X53821104Y-97975009D02*
X53725866Y-98022628D01*
X53725866Y-98022628D02*
X53344914Y-98022628D01*
X54868723Y-98498819D02*
X54297295Y-98498819D01*
X54583009Y-98498819D02*
X54583009Y-97498819D01*
X54583009Y-97498819D02*
X54487771Y-97641676D01*
X54487771Y-97641676D02*
X54392533Y-97736914D01*
X54392533Y-97736914D02*
X54297295Y-97784533D01*
X55487771Y-97498819D02*
X55583009Y-97498819D01*
X55583009Y-97498819D02*
X55678247Y-97546438D01*
X55678247Y-97546438D02*
X55725866Y-97594057D01*
X55725866Y-97594057D02*
X55773485Y-97689295D01*
X55773485Y-97689295D02*
X55821104Y-97879771D01*
X55821104Y-97879771D02*
X55821104Y-98117866D01*
X55821104Y-98117866D02*
X55773485Y-98308342D01*
X55773485Y-98308342D02*
X55725866Y-98403580D01*
X55725866Y-98403580D02*
X55678247Y-98451200D01*
X55678247Y-98451200D02*
X55583009Y-98498819D01*
X55583009Y-98498819D02*
X55487771Y-98498819D01*
X55487771Y-98498819D02*
X55392533Y-98451200D01*
X55392533Y-98451200D02*
X55344914Y-98403580D01*
X55344914Y-98403580D02*
X55297295Y-98308342D01*
X55297295Y-98308342D02*
X55249676Y-98117866D01*
X55249676Y-98117866D02*
X55249676Y-97879771D01*
X55249676Y-97879771D02*
X55297295Y-97689295D01*
X55297295Y-97689295D02*
X55344914Y-97594057D01*
X55344914Y-97594057D02*
X55392533Y-97546438D01*
X55392533Y-97546438D02*
X55487771Y-97498819D01*
X36980405Y-108452819D02*
X36980405Y-107452819D01*
X36980405Y-107452819D02*
X37218500Y-107452819D01*
X37218500Y-107452819D02*
X37361357Y-107500438D01*
X37361357Y-107500438D02*
X37456595Y-107595676D01*
X37456595Y-107595676D02*
X37504214Y-107690914D01*
X37504214Y-107690914D02*
X37551833Y-107881390D01*
X37551833Y-107881390D02*
X37551833Y-108024247D01*
X37551833Y-108024247D02*
X37504214Y-108214723D01*
X37504214Y-108214723D02*
X37456595Y-108309961D01*
X37456595Y-108309961D02*
X37361357Y-108405200D01*
X37361357Y-108405200D02*
X37218500Y-108452819D01*
X37218500Y-108452819D02*
X36980405Y-108452819D01*
X37932786Y-107548057D02*
X37980405Y-107500438D01*
X37980405Y-107500438D02*
X38075643Y-107452819D01*
X38075643Y-107452819D02*
X38313738Y-107452819D01*
X38313738Y-107452819D02*
X38408976Y-107500438D01*
X38408976Y-107500438D02*
X38456595Y-107548057D01*
X38456595Y-107548057D02*
X38504214Y-107643295D01*
X38504214Y-107643295D02*
X38504214Y-107738533D01*
X38504214Y-107738533D02*
X38456595Y-107881390D01*
X38456595Y-107881390D02*
X37885167Y-108452819D01*
X37885167Y-108452819D02*
X38504214Y-108452819D01*
X119847333Y-81226819D02*
X119371143Y-81226819D01*
X119371143Y-81226819D02*
X119371143Y-80226819D01*
X120704476Y-81226819D02*
X120133048Y-81226819D01*
X120418762Y-81226819D02*
X120418762Y-80226819D01*
X120418762Y-80226819D02*
X120323524Y-80369676D01*
X120323524Y-80369676D02*
X120228286Y-80464914D01*
X120228286Y-80464914D02*
X120133048Y-80512533D01*
X137575333Y-96450819D02*
X137242000Y-95974628D01*
X137003905Y-96450819D02*
X137003905Y-95450819D01*
X137003905Y-95450819D02*
X137384857Y-95450819D01*
X137384857Y-95450819D02*
X137480095Y-95498438D01*
X137480095Y-95498438D02*
X137527714Y-95546057D01*
X137527714Y-95546057D02*
X137575333Y-95641295D01*
X137575333Y-95641295D02*
X137575333Y-95784152D01*
X137575333Y-95784152D02*
X137527714Y-95879390D01*
X137527714Y-95879390D02*
X137480095Y-95927009D01*
X137480095Y-95927009D02*
X137384857Y-95974628D01*
X137384857Y-95974628D02*
X137003905Y-95974628D01*
X138432476Y-95784152D02*
X138432476Y-96450819D01*
X138194381Y-95403200D02*
X137956286Y-96117485D01*
X137956286Y-96117485D02*
X138575333Y-96117485D01*
X57236105Y-86560819D02*
X57236105Y-85560819D01*
X57236105Y-85560819D02*
X57474200Y-85560819D01*
X57474200Y-85560819D02*
X57617057Y-85608438D01*
X57617057Y-85608438D02*
X57712295Y-85703676D01*
X57712295Y-85703676D02*
X57759914Y-85798914D01*
X57759914Y-85798914D02*
X57807533Y-85989390D01*
X57807533Y-85989390D02*
X57807533Y-86132247D01*
X57807533Y-86132247D02*
X57759914Y-86322723D01*
X57759914Y-86322723D02*
X57712295Y-86417961D01*
X57712295Y-86417961D02*
X57617057Y-86513200D01*
X57617057Y-86513200D02*
X57474200Y-86560819D01*
X57474200Y-86560819D02*
X57236105Y-86560819D01*
X58140867Y-85560819D02*
X58807533Y-85560819D01*
X58807533Y-85560819D02*
X58378962Y-86560819D01*
X49852342Y-98498819D02*
X49519009Y-98022628D01*
X49280914Y-98498819D02*
X49280914Y-97498819D01*
X49280914Y-97498819D02*
X49661866Y-97498819D01*
X49661866Y-97498819D02*
X49757104Y-97546438D01*
X49757104Y-97546438D02*
X49804723Y-97594057D01*
X49804723Y-97594057D02*
X49852342Y-97689295D01*
X49852342Y-97689295D02*
X49852342Y-97832152D01*
X49852342Y-97832152D02*
X49804723Y-97927390D01*
X49804723Y-97927390D02*
X49757104Y-97975009D01*
X49757104Y-97975009D02*
X49661866Y-98022628D01*
X49661866Y-98022628D02*
X49280914Y-98022628D01*
X50804723Y-98498819D02*
X50233295Y-98498819D01*
X50519009Y-98498819D02*
X50519009Y-97498819D01*
X50519009Y-97498819D02*
X50423771Y-97641676D01*
X50423771Y-97641676D02*
X50328533Y-97736914D01*
X50328533Y-97736914D02*
X50233295Y-97784533D01*
X51757104Y-98498819D02*
X51185676Y-98498819D01*
X51471390Y-98498819D02*
X51471390Y-97498819D01*
X51471390Y-97498819D02*
X51376152Y-97641676D01*
X51376152Y-97641676D02*
X51280914Y-97736914D01*
X51280914Y-97736914D02*
X51185676Y-97784533D01*
X149098095Y-119342819D02*
X149098095Y-120152342D01*
X149098095Y-120152342D02*
X149145714Y-120247580D01*
X149145714Y-120247580D02*
X149193333Y-120295200D01*
X149193333Y-120295200D02*
X149288571Y-120342819D01*
X149288571Y-120342819D02*
X149479047Y-120342819D01*
X149479047Y-120342819D02*
X149574285Y-120295200D01*
X149574285Y-120295200D02*
X149621904Y-120247580D01*
X149621904Y-120247580D02*
X149669523Y-120152342D01*
X149669523Y-120152342D02*
X149669523Y-119342819D01*
X150098095Y-119438057D02*
X150145714Y-119390438D01*
X150145714Y-119390438D02*
X150240952Y-119342819D01*
X150240952Y-119342819D02*
X150479047Y-119342819D01*
X150479047Y-119342819D02*
X150574285Y-119390438D01*
X150574285Y-119390438D02*
X150621904Y-119438057D01*
X150621904Y-119438057D02*
X150669523Y-119533295D01*
X150669523Y-119533295D02*
X150669523Y-119628533D01*
X150669523Y-119628533D02*
X150621904Y-119771390D01*
X150621904Y-119771390D02*
X150050476Y-120342819D01*
X150050476Y-120342819D02*
X150669523Y-120342819D01*
X23795476Y-138233819D02*
X23795476Y-138948104D01*
X23795476Y-138948104D02*
X23747857Y-139090961D01*
X23747857Y-139090961D02*
X23652619Y-139186200D01*
X23652619Y-139186200D02*
X23509762Y-139233819D01*
X23509762Y-139233819D02*
X23414524Y-139233819D01*
X24795476Y-139233819D02*
X24224048Y-139233819D01*
X24509762Y-139233819D02*
X24509762Y-138233819D01*
X24509762Y-138233819D02*
X24414524Y-138376676D01*
X24414524Y-138376676D02*
X24319286Y-138471914D01*
X24319286Y-138471914D02*
X24224048Y-138519533D01*
X25176429Y-138329057D02*
X25224048Y-138281438D01*
X25224048Y-138281438D02*
X25319286Y-138233819D01*
X25319286Y-138233819D02*
X25557381Y-138233819D01*
X25557381Y-138233819D02*
X25652619Y-138281438D01*
X25652619Y-138281438D02*
X25700238Y-138329057D01*
X25700238Y-138329057D02*
X25747857Y-138424295D01*
X25747857Y-138424295D02*
X25747857Y-138519533D01*
X25747857Y-138519533D02*
X25700238Y-138662390D01*
X25700238Y-138662390D02*
X25128810Y-139233819D01*
X25128810Y-139233819D02*
X25747857Y-139233819D01*
X121586666Y-171793819D02*
X121586666Y-172508104D01*
X121586666Y-172508104D02*
X121539047Y-172650961D01*
X121539047Y-172650961D02*
X121443809Y-172746200D01*
X121443809Y-172746200D02*
X121300952Y-172793819D01*
X121300952Y-172793819D02*
X121205714Y-172793819D01*
X122015238Y-171889057D02*
X122062857Y-171841438D01*
X122062857Y-171841438D02*
X122158095Y-171793819D01*
X122158095Y-171793819D02*
X122396190Y-171793819D01*
X122396190Y-171793819D02*
X122491428Y-171841438D01*
X122491428Y-171841438D02*
X122539047Y-171889057D01*
X122539047Y-171889057D02*
X122586666Y-171984295D01*
X122586666Y-171984295D02*
X122586666Y-172079533D01*
X122586666Y-172079533D02*
X122539047Y-172222390D01*
X122539047Y-172222390D02*
X121967619Y-172793819D01*
X121967619Y-172793819D02*
X122586666Y-172793819D01*
X57451666Y-126073819D02*
X57451666Y-126788104D01*
X57451666Y-126788104D02*
X57404047Y-126930961D01*
X57404047Y-126930961D02*
X57308809Y-127026200D01*
X57308809Y-127026200D02*
X57165952Y-127073819D01*
X57165952Y-127073819D02*
X57070714Y-127073819D01*
X58404047Y-126073819D02*
X57927857Y-126073819D01*
X57927857Y-126073819D02*
X57880238Y-126550009D01*
X57880238Y-126550009D02*
X57927857Y-126502390D01*
X57927857Y-126502390D02*
X58023095Y-126454771D01*
X58023095Y-126454771D02*
X58261190Y-126454771D01*
X58261190Y-126454771D02*
X58356428Y-126502390D01*
X58356428Y-126502390D02*
X58404047Y-126550009D01*
X58404047Y-126550009D02*
X58451666Y-126645247D01*
X58451666Y-126645247D02*
X58451666Y-126883342D01*
X58451666Y-126883342D02*
X58404047Y-126978580D01*
X58404047Y-126978580D02*
X58356428Y-127026200D01*
X58356428Y-127026200D02*
X58261190Y-127073819D01*
X58261190Y-127073819D02*
X58023095Y-127073819D01*
X58023095Y-127073819D02*
X57927857Y-127026200D01*
X57927857Y-127026200D02*
X57880238Y-126978580D01*
X121586666Y-169253819D02*
X121586666Y-169968104D01*
X121586666Y-169968104D02*
X121539047Y-170110961D01*
X121539047Y-170110961D02*
X121443809Y-170206200D01*
X121443809Y-170206200D02*
X121300952Y-170253819D01*
X121300952Y-170253819D02*
X121205714Y-170253819D01*
X122491428Y-169587152D02*
X122491428Y-170253819D01*
X122253333Y-169206200D02*
X122015238Y-169920485D01*
X122015238Y-169920485D02*
X122634285Y-169920485D01*
X57451666Y-171793819D02*
X57451666Y-172508104D01*
X57451666Y-172508104D02*
X57404047Y-172650961D01*
X57404047Y-172650961D02*
X57308809Y-172746200D01*
X57308809Y-172746200D02*
X57165952Y-172793819D01*
X57165952Y-172793819D02*
X57070714Y-172793819D01*
X58356428Y-171793819D02*
X58165952Y-171793819D01*
X58165952Y-171793819D02*
X58070714Y-171841438D01*
X58070714Y-171841438D02*
X58023095Y-171889057D01*
X58023095Y-171889057D02*
X57927857Y-172031914D01*
X57927857Y-172031914D02*
X57880238Y-172222390D01*
X57880238Y-172222390D02*
X57880238Y-172603342D01*
X57880238Y-172603342D02*
X57927857Y-172698580D01*
X57927857Y-172698580D02*
X57975476Y-172746200D01*
X57975476Y-172746200D02*
X58070714Y-172793819D01*
X58070714Y-172793819D02*
X58261190Y-172793819D01*
X58261190Y-172793819D02*
X58356428Y-172746200D01*
X58356428Y-172746200D02*
X58404047Y-172698580D01*
X58404047Y-172698580D02*
X58451666Y-172603342D01*
X58451666Y-172603342D02*
X58451666Y-172365247D01*
X58451666Y-172365247D02*
X58404047Y-172270009D01*
X58404047Y-172270009D02*
X58356428Y-172222390D01*
X58356428Y-172222390D02*
X58261190Y-172174771D01*
X58261190Y-172174771D02*
X58070714Y-172174771D01*
X58070714Y-172174771D02*
X57975476Y-172222390D01*
X57975476Y-172222390D02*
X57927857Y-172270009D01*
X57927857Y-172270009D02*
X57880238Y-172365247D01*
X23845476Y-168873819D02*
X23845476Y-169588104D01*
X23845476Y-169588104D02*
X23797857Y-169730961D01*
X23797857Y-169730961D02*
X23702619Y-169826200D01*
X23702619Y-169826200D02*
X23559762Y-169873819D01*
X23559762Y-169873819D02*
X23464524Y-169873819D01*
X24845476Y-169873819D02*
X24274048Y-169873819D01*
X24559762Y-169873819D02*
X24559762Y-168873819D01*
X24559762Y-168873819D02*
X24464524Y-169016676D01*
X24464524Y-169016676D02*
X24369286Y-169111914D01*
X24369286Y-169111914D02*
X24274048Y-169159533D01*
X25702619Y-169207152D02*
X25702619Y-169873819D01*
X25464524Y-168826200D02*
X25226429Y-169540485D01*
X25226429Y-169540485D02*
X25845476Y-169540485D01*
X28245476Y-173873819D02*
X28245476Y-174588104D01*
X28245476Y-174588104D02*
X28197857Y-174730961D01*
X28197857Y-174730961D02*
X28102619Y-174826200D01*
X28102619Y-174826200D02*
X27959762Y-174873819D01*
X27959762Y-174873819D02*
X27864524Y-174873819D01*
X29245476Y-174873819D02*
X28674048Y-174873819D01*
X28959762Y-174873819D02*
X28959762Y-173873819D01*
X28959762Y-173873819D02*
X28864524Y-174016676D01*
X28864524Y-174016676D02*
X28769286Y-174111914D01*
X28769286Y-174111914D02*
X28674048Y-174159533D01*
X29864524Y-173873819D02*
X29959762Y-173873819D01*
X29959762Y-173873819D02*
X30055000Y-173921438D01*
X30055000Y-173921438D02*
X30102619Y-173969057D01*
X30102619Y-173969057D02*
X30150238Y-174064295D01*
X30150238Y-174064295D02*
X30197857Y-174254771D01*
X30197857Y-174254771D02*
X30197857Y-174492866D01*
X30197857Y-174492866D02*
X30150238Y-174683342D01*
X30150238Y-174683342D02*
X30102619Y-174778580D01*
X30102619Y-174778580D02*
X30055000Y-174826200D01*
X30055000Y-174826200D02*
X29959762Y-174873819D01*
X29959762Y-174873819D02*
X29864524Y-174873819D01*
X29864524Y-174873819D02*
X29769286Y-174826200D01*
X29769286Y-174826200D02*
X29721667Y-174778580D01*
X29721667Y-174778580D02*
X29674048Y-174683342D01*
X29674048Y-174683342D02*
X29626429Y-174492866D01*
X29626429Y-174492866D02*
X29626429Y-174254771D01*
X29626429Y-174254771D02*
X29674048Y-174064295D01*
X29674048Y-174064295D02*
X29721667Y-173969057D01*
X29721667Y-173969057D02*
X29769286Y-173921438D01*
X29769286Y-173921438D02*
X29864524Y-173873819D01*
X57451666Y-128613819D02*
X57451666Y-129328104D01*
X57451666Y-129328104D02*
X57404047Y-129470961D01*
X57404047Y-129470961D02*
X57308809Y-129566200D01*
X57308809Y-129566200D02*
X57165952Y-129613819D01*
X57165952Y-129613819D02*
X57070714Y-129613819D01*
X57832619Y-128613819D02*
X58499285Y-128613819D01*
X58499285Y-128613819D02*
X58070714Y-129613819D01*
X93170476Y-131788819D02*
X93170476Y-132503104D01*
X93170476Y-132503104D02*
X93122857Y-132645961D01*
X93122857Y-132645961D02*
X93027619Y-132741200D01*
X93027619Y-132741200D02*
X92884762Y-132788819D01*
X92884762Y-132788819D02*
X92789524Y-132788819D01*
X93599048Y-131884057D02*
X93646667Y-131836438D01*
X93646667Y-131836438D02*
X93741905Y-131788819D01*
X93741905Y-131788819D02*
X93980000Y-131788819D01*
X93980000Y-131788819D02*
X94075238Y-131836438D01*
X94075238Y-131836438D02*
X94122857Y-131884057D01*
X94122857Y-131884057D02*
X94170476Y-131979295D01*
X94170476Y-131979295D02*
X94170476Y-132074533D01*
X94170476Y-132074533D02*
X94122857Y-132217390D01*
X94122857Y-132217390D02*
X93551429Y-132788819D01*
X93551429Y-132788819D02*
X94170476Y-132788819D01*
X95122857Y-132788819D02*
X94551429Y-132788819D01*
X94837143Y-132788819D02*
X94837143Y-131788819D01*
X94837143Y-131788819D02*
X94741905Y-131931676D01*
X94741905Y-131931676D02*
X94646667Y-132026914D01*
X94646667Y-132026914D02*
X94551429Y-132074533D01*
X28070476Y-124888819D02*
X28070476Y-125603104D01*
X28070476Y-125603104D02*
X28022857Y-125745961D01*
X28022857Y-125745961D02*
X27927619Y-125841200D01*
X27927619Y-125841200D02*
X27784762Y-125888819D01*
X27784762Y-125888819D02*
X27689524Y-125888819D01*
X29070476Y-125888819D02*
X28499048Y-125888819D01*
X28784762Y-125888819D02*
X28784762Y-124888819D01*
X28784762Y-124888819D02*
X28689524Y-125031676D01*
X28689524Y-125031676D02*
X28594286Y-125126914D01*
X28594286Y-125126914D02*
X28499048Y-125174533D01*
X29927619Y-124888819D02*
X29737143Y-124888819D01*
X29737143Y-124888819D02*
X29641905Y-124936438D01*
X29641905Y-124936438D02*
X29594286Y-124984057D01*
X29594286Y-124984057D02*
X29499048Y-125126914D01*
X29499048Y-125126914D02*
X29451429Y-125317390D01*
X29451429Y-125317390D02*
X29451429Y-125698342D01*
X29451429Y-125698342D02*
X29499048Y-125793580D01*
X29499048Y-125793580D02*
X29546667Y-125841200D01*
X29546667Y-125841200D02*
X29641905Y-125888819D01*
X29641905Y-125888819D02*
X29832381Y-125888819D01*
X29832381Y-125888819D02*
X29927619Y-125841200D01*
X29927619Y-125841200D02*
X29975238Y-125793580D01*
X29975238Y-125793580D02*
X30022857Y-125698342D01*
X30022857Y-125698342D02*
X30022857Y-125460247D01*
X30022857Y-125460247D02*
X29975238Y-125365009D01*
X29975238Y-125365009D02*
X29927619Y-125317390D01*
X29927619Y-125317390D02*
X29832381Y-125269771D01*
X29832381Y-125269771D02*
X29641905Y-125269771D01*
X29641905Y-125269771D02*
X29546667Y-125317390D01*
X29546667Y-125317390D02*
X29499048Y-125365009D01*
X29499048Y-125365009D02*
X29451429Y-125460247D01*
X23795476Y-153473819D02*
X23795476Y-154188104D01*
X23795476Y-154188104D02*
X23747857Y-154330961D01*
X23747857Y-154330961D02*
X23652619Y-154426200D01*
X23652619Y-154426200D02*
X23509762Y-154473819D01*
X23509762Y-154473819D02*
X23414524Y-154473819D01*
X24795476Y-154473819D02*
X24224048Y-154473819D01*
X24509762Y-154473819D02*
X24509762Y-153473819D01*
X24509762Y-153473819D02*
X24414524Y-153616676D01*
X24414524Y-153616676D02*
X24319286Y-153711914D01*
X24319286Y-153711914D02*
X24224048Y-153759533D01*
X25700238Y-153473819D02*
X25224048Y-153473819D01*
X25224048Y-153473819D02*
X25176429Y-153950009D01*
X25176429Y-153950009D02*
X25224048Y-153902390D01*
X25224048Y-153902390D02*
X25319286Y-153854771D01*
X25319286Y-153854771D02*
X25557381Y-153854771D01*
X25557381Y-153854771D02*
X25652619Y-153902390D01*
X25652619Y-153902390D02*
X25700238Y-153950009D01*
X25700238Y-153950009D02*
X25747857Y-154045247D01*
X25747857Y-154045247D02*
X25747857Y-154283342D01*
X25747857Y-154283342D02*
X25700238Y-154378580D01*
X25700238Y-154378580D02*
X25652619Y-154426200D01*
X25652619Y-154426200D02*
X25557381Y-154473819D01*
X25557381Y-154473819D02*
X25319286Y-154473819D01*
X25319286Y-154473819D02*
X25224048Y-154426200D01*
X25224048Y-154426200D02*
X25176429Y-154378580D01*
X57451666Y-169253819D02*
X57451666Y-169968104D01*
X57451666Y-169968104D02*
X57404047Y-170110961D01*
X57404047Y-170110961D02*
X57308809Y-170206200D01*
X57308809Y-170206200D02*
X57165952Y-170253819D01*
X57165952Y-170253819D02*
X57070714Y-170253819D01*
X58070714Y-169682390D02*
X57975476Y-169634771D01*
X57975476Y-169634771D02*
X57927857Y-169587152D01*
X57927857Y-169587152D02*
X57880238Y-169491914D01*
X57880238Y-169491914D02*
X57880238Y-169444295D01*
X57880238Y-169444295D02*
X57927857Y-169349057D01*
X57927857Y-169349057D02*
X57975476Y-169301438D01*
X57975476Y-169301438D02*
X58070714Y-169253819D01*
X58070714Y-169253819D02*
X58261190Y-169253819D01*
X58261190Y-169253819D02*
X58356428Y-169301438D01*
X58356428Y-169301438D02*
X58404047Y-169349057D01*
X58404047Y-169349057D02*
X58451666Y-169444295D01*
X58451666Y-169444295D02*
X58451666Y-169491914D01*
X58451666Y-169491914D02*
X58404047Y-169587152D01*
X58404047Y-169587152D02*
X58356428Y-169634771D01*
X58356428Y-169634771D02*
X58261190Y-169682390D01*
X58261190Y-169682390D02*
X58070714Y-169682390D01*
X58070714Y-169682390D02*
X57975476Y-169730009D01*
X57975476Y-169730009D02*
X57927857Y-169777628D01*
X57927857Y-169777628D02*
X57880238Y-169872866D01*
X57880238Y-169872866D02*
X57880238Y-170063342D01*
X57880238Y-170063342D02*
X57927857Y-170158580D01*
X57927857Y-170158580D02*
X57975476Y-170206200D01*
X57975476Y-170206200D02*
X58070714Y-170253819D01*
X58070714Y-170253819D02*
X58261190Y-170253819D01*
X58261190Y-170253819D02*
X58356428Y-170206200D01*
X58356428Y-170206200D02*
X58404047Y-170158580D01*
X58404047Y-170158580D02*
X58451666Y-170063342D01*
X58451666Y-170063342D02*
X58451666Y-169872866D01*
X58451666Y-169872866D02*
X58404047Y-169777628D01*
X58404047Y-169777628D02*
X58356428Y-169730009D01*
X58356428Y-169730009D02*
X58261190Y-169682390D01*
X121586666Y-128613819D02*
X121586666Y-129328104D01*
X121586666Y-129328104D02*
X121539047Y-129470961D01*
X121539047Y-129470961D02*
X121443809Y-129566200D01*
X121443809Y-129566200D02*
X121300952Y-129613819D01*
X121300952Y-129613819D02*
X121205714Y-129613819D01*
X121967619Y-128613819D02*
X122586666Y-128613819D01*
X122586666Y-128613819D02*
X122253333Y-128994771D01*
X122253333Y-128994771D02*
X122396190Y-128994771D01*
X122396190Y-128994771D02*
X122491428Y-129042390D01*
X122491428Y-129042390D02*
X122539047Y-129090009D01*
X122539047Y-129090009D02*
X122586666Y-129185247D01*
X122586666Y-129185247D02*
X122586666Y-129423342D01*
X122586666Y-129423342D02*
X122539047Y-129518580D01*
X122539047Y-129518580D02*
X122491428Y-129566200D01*
X122491428Y-129566200D02*
X122396190Y-129613819D01*
X122396190Y-129613819D02*
X122110476Y-129613819D01*
X122110476Y-129613819D02*
X122015238Y-129566200D01*
X122015238Y-129566200D02*
X121967619Y-129518580D01*
X121586666Y-126073819D02*
X121586666Y-126788104D01*
X121586666Y-126788104D02*
X121539047Y-126930961D01*
X121539047Y-126930961D02*
X121443809Y-127026200D01*
X121443809Y-127026200D02*
X121300952Y-127073819D01*
X121300952Y-127073819D02*
X121205714Y-127073819D01*
X122586666Y-127073819D02*
X122015238Y-127073819D01*
X122300952Y-127073819D02*
X122300952Y-126073819D01*
X122300952Y-126073819D02*
X122205714Y-126216676D01*
X122205714Y-126216676D02*
X122110476Y-126311914D01*
X122110476Y-126311914D02*
X122015238Y-126359533D01*
X28535333Y-91037580D02*
X28487714Y-91085200D01*
X28487714Y-91085200D02*
X28344857Y-91132819D01*
X28344857Y-91132819D02*
X28249619Y-91132819D01*
X28249619Y-91132819D02*
X28106762Y-91085200D01*
X28106762Y-91085200D02*
X28011524Y-90989961D01*
X28011524Y-90989961D02*
X27963905Y-90894723D01*
X27963905Y-90894723D02*
X27916286Y-90704247D01*
X27916286Y-90704247D02*
X27916286Y-90561390D01*
X27916286Y-90561390D02*
X27963905Y-90370914D01*
X27963905Y-90370914D02*
X28011524Y-90275676D01*
X28011524Y-90275676D02*
X28106762Y-90180438D01*
X28106762Y-90180438D02*
X28249619Y-90132819D01*
X28249619Y-90132819D02*
X28344857Y-90132819D01*
X28344857Y-90132819D02*
X28487714Y-90180438D01*
X28487714Y-90180438D02*
X28535333Y-90228057D01*
X29011524Y-91132819D02*
X29202000Y-91132819D01*
X29202000Y-91132819D02*
X29297238Y-91085200D01*
X29297238Y-91085200D02*
X29344857Y-91037580D01*
X29344857Y-91037580D02*
X29440095Y-90894723D01*
X29440095Y-90894723D02*
X29487714Y-90704247D01*
X29487714Y-90704247D02*
X29487714Y-90323295D01*
X29487714Y-90323295D02*
X29440095Y-90228057D01*
X29440095Y-90228057D02*
X29392476Y-90180438D01*
X29392476Y-90180438D02*
X29297238Y-90132819D01*
X29297238Y-90132819D02*
X29106762Y-90132819D01*
X29106762Y-90132819D02*
X29011524Y-90180438D01*
X29011524Y-90180438D02*
X28963905Y-90228057D01*
X28963905Y-90228057D02*
X28916286Y-90323295D01*
X28916286Y-90323295D02*
X28916286Y-90561390D01*
X28916286Y-90561390D02*
X28963905Y-90656628D01*
X28963905Y-90656628D02*
X29011524Y-90704247D01*
X29011524Y-90704247D02*
X29106762Y-90751866D01*
X29106762Y-90751866D02*
X29297238Y-90751866D01*
X29297238Y-90751866D02*
X29392476Y-90704247D01*
X29392476Y-90704247D02*
X29440095Y-90656628D01*
X29440095Y-90656628D02*
X29487714Y-90561390D01*
X119085333Y-37792819D02*
X118609143Y-37792819D01*
X118609143Y-37792819D02*
X118609143Y-36792819D01*
X119371048Y-36888057D02*
X119418667Y-36840438D01*
X119418667Y-36840438D02*
X119513905Y-36792819D01*
X119513905Y-36792819D02*
X119752000Y-36792819D01*
X119752000Y-36792819D02*
X119847238Y-36840438D01*
X119847238Y-36840438D02*
X119894857Y-36888057D01*
X119894857Y-36888057D02*
X119942476Y-36983295D01*
X119942476Y-36983295D02*
X119942476Y-37078533D01*
X119942476Y-37078533D02*
X119894857Y-37221390D01*
X119894857Y-37221390D02*
X119323429Y-37792819D01*
X119323429Y-37792819D02*
X119942476Y-37792819D01*
X48957142Y-101673580D02*
X48909523Y-101721200D01*
X48909523Y-101721200D02*
X48766666Y-101768819D01*
X48766666Y-101768819D02*
X48671428Y-101768819D01*
X48671428Y-101768819D02*
X48528571Y-101721200D01*
X48528571Y-101721200D02*
X48433333Y-101625961D01*
X48433333Y-101625961D02*
X48385714Y-101530723D01*
X48385714Y-101530723D02*
X48338095Y-101340247D01*
X48338095Y-101340247D02*
X48338095Y-101197390D01*
X48338095Y-101197390D02*
X48385714Y-101006914D01*
X48385714Y-101006914D02*
X48433333Y-100911676D01*
X48433333Y-100911676D02*
X48528571Y-100816438D01*
X48528571Y-100816438D02*
X48671428Y-100768819D01*
X48671428Y-100768819D02*
X48766666Y-100768819D01*
X48766666Y-100768819D02*
X48909523Y-100816438D01*
X48909523Y-100816438D02*
X48957142Y-100864057D01*
X49909523Y-101768819D02*
X49338095Y-101768819D01*
X49623809Y-101768819D02*
X49623809Y-100768819D01*
X49623809Y-100768819D02*
X49528571Y-100911676D01*
X49528571Y-100911676D02*
X49433333Y-101006914D01*
X49433333Y-101006914D02*
X49338095Y-101054533D01*
X50528571Y-100768819D02*
X50623809Y-100768819D01*
X50623809Y-100768819D02*
X50719047Y-100816438D01*
X50719047Y-100816438D02*
X50766666Y-100864057D01*
X50766666Y-100864057D02*
X50814285Y-100959295D01*
X50814285Y-100959295D02*
X50861904Y-101149771D01*
X50861904Y-101149771D02*
X50861904Y-101387866D01*
X50861904Y-101387866D02*
X50814285Y-101578342D01*
X50814285Y-101578342D02*
X50766666Y-101673580D01*
X50766666Y-101673580D02*
X50719047Y-101721200D01*
X50719047Y-101721200D02*
X50623809Y-101768819D01*
X50623809Y-101768819D02*
X50528571Y-101768819D01*
X50528571Y-101768819D02*
X50433333Y-101721200D01*
X50433333Y-101721200D02*
X50385714Y-101673580D01*
X50385714Y-101673580D02*
X50338095Y-101578342D01*
X50338095Y-101578342D02*
X50290476Y-101387866D01*
X50290476Y-101387866D02*
X50290476Y-101149771D01*
X50290476Y-101149771D02*
X50338095Y-100959295D01*
X50338095Y-100959295D02*
X50385714Y-100864057D01*
X50385714Y-100864057D02*
X50433333Y-100816438D01*
X50433333Y-100816438D02*
X50528571Y-100768819D01*
X28822905Y-104086819D02*
X28822905Y-103086819D01*
X28822905Y-103086819D02*
X29061000Y-103086819D01*
X29061000Y-103086819D02*
X29203857Y-103134438D01*
X29203857Y-103134438D02*
X29299095Y-103229676D01*
X29299095Y-103229676D02*
X29346714Y-103324914D01*
X29346714Y-103324914D02*
X29394333Y-103515390D01*
X29394333Y-103515390D02*
X29394333Y-103658247D01*
X29394333Y-103658247D02*
X29346714Y-103848723D01*
X29346714Y-103848723D02*
X29299095Y-103943961D01*
X29299095Y-103943961D02*
X29203857Y-104039200D01*
X29203857Y-104039200D02*
X29061000Y-104086819D01*
X29061000Y-104086819D02*
X28822905Y-104086819D01*
X30299095Y-103086819D02*
X29822905Y-103086819D01*
X29822905Y-103086819D02*
X29775286Y-103563009D01*
X29775286Y-103563009D02*
X29822905Y-103515390D01*
X29822905Y-103515390D02*
X29918143Y-103467771D01*
X29918143Y-103467771D02*
X30156238Y-103467771D01*
X30156238Y-103467771D02*
X30251476Y-103515390D01*
X30251476Y-103515390D02*
X30299095Y-103563009D01*
X30299095Y-103563009D02*
X30346714Y-103658247D01*
X30346714Y-103658247D02*
X30346714Y-103896342D01*
X30346714Y-103896342D02*
X30299095Y-103991580D01*
X30299095Y-103991580D02*
X30251476Y-104039200D01*
X30251476Y-104039200D02*
X30156238Y-104086819D01*
X30156238Y-104086819D02*
X29918143Y-104086819D01*
X29918143Y-104086819D02*
X29822905Y-104039200D01*
X29822905Y-104039200D02*
X29775286Y-103991580D01*
X146775333Y-111556819D02*
X146442000Y-111080628D01*
X146203905Y-111556819D02*
X146203905Y-110556819D01*
X146203905Y-110556819D02*
X146584857Y-110556819D01*
X146584857Y-110556819D02*
X146680095Y-110604438D01*
X146680095Y-110604438D02*
X146727714Y-110652057D01*
X146727714Y-110652057D02*
X146775333Y-110747295D01*
X146775333Y-110747295D02*
X146775333Y-110890152D01*
X146775333Y-110890152D02*
X146727714Y-110985390D01*
X146727714Y-110985390D02*
X146680095Y-111033009D01*
X146680095Y-111033009D02*
X146584857Y-111080628D01*
X146584857Y-111080628D02*
X146203905Y-111080628D01*
X147156286Y-110652057D02*
X147203905Y-110604438D01*
X147203905Y-110604438D02*
X147299143Y-110556819D01*
X147299143Y-110556819D02*
X147537238Y-110556819D01*
X147537238Y-110556819D02*
X147632476Y-110604438D01*
X147632476Y-110604438D02*
X147680095Y-110652057D01*
X147680095Y-110652057D02*
X147727714Y-110747295D01*
X147727714Y-110747295D02*
X147727714Y-110842533D01*
X147727714Y-110842533D02*
X147680095Y-110985390D01*
X147680095Y-110985390D02*
X147108667Y-111556819D01*
X147108667Y-111556819D02*
X147727714Y-111556819D01*
X37713333Y-101927580D02*
X37665714Y-101975200D01*
X37665714Y-101975200D02*
X37522857Y-102022819D01*
X37522857Y-102022819D02*
X37427619Y-102022819D01*
X37427619Y-102022819D02*
X37284762Y-101975200D01*
X37284762Y-101975200D02*
X37189524Y-101879961D01*
X37189524Y-101879961D02*
X37141905Y-101784723D01*
X37141905Y-101784723D02*
X37094286Y-101594247D01*
X37094286Y-101594247D02*
X37094286Y-101451390D01*
X37094286Y-101451390D02*
X37141905Y-101260914D01*
X37141905Y-101260914D02*
X37189524Y-101165676D01*
X37189524Y-101165676D02*
X37284762Y-101070438D01*
X37284762Y-101070438D02*
X37427619Y-101022819D01*
X37427619Y-101022819D02*
X37522857Y-101022819D01*
X37522857Y-101022819D02*
X37665714Y-101070438D01*
X37665714Y-101070438D02*
X37713333Y-101118057D01*
X38046667Y-101022819D02*
X38713333Y-101022819D01*
X38713333Y-101022819D02*
X38284762Y-102022819D01*
X71715333Y-98657580D02*
X71667714Y-98705200D01*
X71667714Y-98705200D02*
X71524857Y-98752819D01*
X71524857Y-98752819D02*
X71429619Y-98752819D01*
X71429619Y-98752819D02*
X71286762Y-98705200D01*
X71286762Y-98705200D02*
X71191524Y-98609961D01*
X71191524Y-98609961D02*
X71143905Y-98514723D01*
X71143905Y-98514723D02*
X71096286Y-98324247D01*
X71096286Y-98324247D02*
X71096286Y-98181390D01*
X71096286Y-98181390D02*
X71143905Y-97990914D01*
X71143905Y-97990914D02*
X71191524Y-97895676D01*
X71191524Y-97895676D02*
X71286762Y-97800438D01*
X71286762Y-97800438D02*
X71429619Y-97752819D01*
X71429619Y-97752819D02*
X71524857Y-97752819D01*
X71524857Y-97752819D02*
X71667714Y-97800438D01*
X71667714Y-97800438D02*
X71715333Y-97848057D01*
X72572476Y-98086152D02*
X72572476Y-98752819D01*
X72334381Y-97705200D02*
X72096286Y-98419485D01*
X72096286Y-98419485D02*
X72715333Y-98419485D01*
X146629333Y-107642819D02*
X146296000Y-107166628D01*
X146057905Y-107642819D02*
X146057905Y-106642819D01*
X146057905Y-106642819D02*
X146438857Y-106642819D01*
X146438857Y-106642819D02*
X146534095Y-106690438D01*
X146534095Y-106690438D02*
X146581714Y-106738057D01*
X146581714Y-106738057D02*
X146629333Y-106833295D01*
X146629333Y-106833295D02*
X146629333Y-106976152D01*
X146629333Y-106976152D02*
X146581714Y-107071390D01*
X146581714Y-107071390D02*
X146534095Y-107119009D01*
X146534095Y-107119009D02*
X146438857Y-107166628D01*
X146438857Y-107166628D02*
X146057905Y-107166628D01*
X147581714Y-107642819D02*
X147010286Y-107642819D01*
X147296000Y-107642819D02*
X147296000Y-106642819D01*
X147296000Y-106642819D02*
X147200762Y-106785676D01*
X147200762Y-106785676D02*
X147105524Y-106880914D01*
X147105524Y-106880914D02*
X147010286Y-106928533D01*
X129286095Y-99276819D02*
X129286095Y-100086342D01*
X129286095Y-100086342D02*
X129333714Y-100181580D01*
X129333714Y-100181580D02*
X129381333Y-100229200D01*
X129381333Y-100229200D02*
X129476571Y-100276819D01*
X129476571Y-100276819D02*
X129667047Y-100276819D01*
X129667047Y-100276819D02*
X129762285Y-100229200D01*
X129762285Y-100229200D02*
X129809904Y-100181580D01*
X129809904Y-100181580D02*
X129857523Y-100086342D01*
X129857523Y-100086342D02*
X129857523Y-99276819D01*
X130857523Y-100276819D02*
X130286095Y-100276819D01*
X130571809Y-100276819D02*
X130571809Y-99276819D01*
X130571809Y-99276819D02*
X130476571Y-99419676D01*
X130476571Y-99419676D02*
X130381333Y-99514914D01*
X130381333Y-99514914D02*
X130286095Y-99562533D01*
X49013642Y-108357580D02*
X48966023Y-108405200D01*
X48966023Y-108405200D02*
X48823166Y-108452819D01*
X48823166Y-108452819D02*
X48727928Y-108452819D01*
X48727928Y-108452819D02*
X48585071Y-108405200D01*
X48585071Y-108405200D02*
X48489833Y-108309961D01*
X48489833Y-108309961D02*
X48442214Y-108214723D01*
X48442214Y-108214723D02*
X48394595Y-108024247D01*
X48394595Y-108024247D02*
X48394595Y-107881390D01*
X48394595Y-107881390D02*
X48442214Y-107690914D01*
X48442214Y-107690914D02*
X48489833Y-107595676D01*
X48489833Y-107595676D02*
X48585071Y-107500438D01*
X48585071Y-107500438D02*
X48727928Y-107452819D01*
X48727928Y-107452819D02*
X48823166Y-107452819D01*
X48823166Y-107452819D02*
X48966023Y-107500438D01*
X48966023Y-107500438D02*
X49013642Y-107548057D01*
X49966023Y-108452819D02*
X49394595Y-108452819D01*
X49680309Y-108452819D02*
X49680309Y-107452819D01*
X49680309Y-107452819D02*
X49585071Y-107595676D01*
X49585071Y-107595676D02*
X49489833Y-107690914D01*
X49489833Y-107690914D02*
X49394595Y-107738533D01*
X50346976Y-107548057D02*
X50394595Y-107500438D01*
X50394595Y-107500438D02*
X50489833Y-107452819D01*
X50489833Y-107452819D02*
X50727928Y-107452819D01*
X50727928Y-107452819D02*
X50823166Y-107500438D01*
X50823166Y-107500438D02*
X50870785Y-107548057D01*
X50870785Y-107548057D02*
X50918404Y-107643295D01*
X50918404Y-107643295D02*
X50918404Y-107738533D01*
X50918404Y-107738533D02*
X50870785Y-107881390D01*
X50870785Y-107881390D02*
X50299357Y-108452819D01*
X50299357Y-108452819D02*
X50918404Y-108452819D01*
X67722761Y-89752057D02*
X67627523Y-89704438D01*
X67627523Y-89704438D02*
X67532285Y-89609200D01*
X67532285Y-89609200D02*
X67389428Y-89466342D01*
X67389428Y-89466342D02*
X67294190Y-89418723D01*
X67294190Y-89418723D02*
X67198952Y-89418723D01*
X67246571Y-89656819D02*
X67151333Y-89609200D01*
X67151333Y-89609200D02*
X67056095Y-89513961D01*
X67056095Y-89513961D02*
X67008476Y-89323485D01*
X67008476Y-89323485D02*
X67008476Y-88990152D01*
X67008476Y-88990152D02*
X67056095Y-88799676D01*
X67056095Y-88799676D02*
X67151333Y-88704438D01*
X67151333Y-88704438D02*
X67246571Y-88656819D01*
X67246571Y-88656819D02*
X67437047Y-88656819D01*
X67437047Y-88656819D02*
X67532285Y-88704438D01*
X67532285Y-88704438D02*
X67627523Y-88799676D01*
X67627523Y-88799676D02*
X67675142Y-88990152D01*
X67675142Y-88990152D02*
X67675142Y-89323485D01*
X67675142Y-89323485D02*
X67627523Y-89513961D01*
X67627523Y-89513961D02*
X67532285Y-89609200D01*
X67532285Y-89609200D02*
X67437047Y-89656819D01*
X67437047Y-89656819D02*
X67246571Y-89656819D01*
X68627523Y-89656819D02*
X68056095Y-89656819D01*
X68341809Y-89656819D02*
X68341809Y-88656819D01*
X68341809Y-88656819D02*
X68246571Y-88799676D01*
X68246571Y-88799676D02*
X68151333Y-88894914D01*
X68151333Y-88894914D02*
X68056095Y-88942533D01*
X146759333Y-100006819D02*
X146426000Y-99530628D01*
X146187905Y-100006819D02*
X146187905Y-99006819D01*
X146187905Y-99006819D02*
X146568857Y-99006819D01*
X146568857Y-99006819D02*
X146664095Y-99054438D01*
X146664095Y-99054438D02*
X146711714Y-99102057D01*
X146711714Y-99102057D02*
X146759333Y-99197295D01*
X146759333Y-99197295D02*
X146759333Y-99340152D01*
X146759333Y-99340152D02*
X146711714Y-99435390D01*
X146711714Y-99435390D02*
X146664095Y-99483009D01*
X146664095Y-99483009D02*
X146568857Y-99530628D01*
X146568857Y-99530628D02*
X146187905Y-99530628D01*
X147092667Y-99006819D02*
X147711714Y-99006819D01*
X147711714Y-99006819D02*
X147378381Y-99387771D01*
X147378381Y-99387771D02*
X147521238Y-99387771D01*
X147521238Y-99387771D02*
X147616476Y-99435390D01*
X147616476Y-99435390D02*
X147664095Y-99483009D01*
X147664095Y-99483009D02*
X147711714Y-99578247D01*
X147711714Y-99578247D02*
X147711714Y-99816342D01*
X147711714Y-99816342D02*
X147664095Y-99911580D01*
X147664095Y-99911580D02*
X147616476Y-99959200D01*
X147616476Y-99959200D02*
X147521238Y-100006819D01*
X147521238Y-100006819D02*
X147235524Y-100006819D01*
X147235524Y-100006819D02*
X147140286Y-99959200D01*
X147140286Y-99959200D02*
X147092667Y-99911580D01*
X24979333Y-91132819D02*
X24646000Y-90656628D01*
X24407905Y-91132819D02*
X24407905Y-90132819D01*
X24407905Y-90132819D02*
X24788857Y-90132819D01*
X24788857Y-90132819D02*
X24884095Y-90180438D01*
X24884095Y-90180438D02*
X24931714Y-90228057D01*
X24931714Y-90228057D02*
X24979333Y-90323295D01*
X24979333Y-90323295D02*
X24979333Y-90466152D01*
X24979333Y-90466152D02*
X24931714Y-90561390D01*
X24931714Y-90561390D02*
X24884095Y-90609009D01*
X24884095Y-90609009D02*
X24788857Y-90656628D01*
X24788857Y-90656628D02*
X24407905Y-90656628D01*
X25455524Y-91132819D02*
X25646000Y-91132819D01*
X25646000Y-91132819D02*
X25741238Y-91085200D01*
X25741238Y-91085200D02*
X25788857Y-91037580D01*
X25788857Y-91037580D02*
X25884095Y-90894723D01*
X25884095Y-90894723D02*
X25931714Y-90704247D01*
X25931714Y-90704247D02*
X25931714Y-90323295D01*
X25931714Y-90323295D02*
X25884095Y-90228057D01*
X25884095Y-90228057D02*
X25836476Y-90180438D01*
X25836476Y-90180438D02*
X25741238Y-90132819D01*
X25741238Y-90132819D02*
X25550762Y-90132819D01*
X25550762Y-90132819D02*
X25455524Y-90180438D01*
X25455524Y-90180438D02*
X25407905Y-90228057D01*
X25407905Y-90228057D02*
X25360286Y-90323295D01*
X25360286Y-90323295D02*
X25360286Y-90561390D01*
X25360286Y-90561390D02*
X25407905Y-90656628D01*
X25407905Y-90656628D02*
X25455524Y-90704247D01*
X25455524Y-90704247D02*
X25550762Y-90751866D01*
X25550762Y-90751866D02*
X25741238Y-90751866D01*
X25741238Y-90751866D02*
X25836476Y-90704247D01*
X25836476Y-90704247D02*
X25884095Y-90656628D01*
X25884095Y-90656628D02*
X25931714Y-90561390D01*
X139179333Y-115130819D02*
X138846000Y-114654628D01*
X138607905Y-115130819D02*
X138607905Y-114130819D01*
X138607905Y-114130819D02*
X138988857Y-114130819D01*
X138988857Y-114130819D02*
X139084095Y-114178438D01*
X139084095Y-114178438D02*
X139131714Y-114226057D01*
X139131714Y-114226057D02*
X139179333Y-114321295D01*
X139179333Y-114321295D02*
X139179333Y-114464152D01*
X139179333Y-114464152D02*
X139131714Y-114559390D01*
X139131714Y-114559390D02*
X139084095Y-114607009D01*
X139084095Y-114607009D02*
X138988857Y-114654628D01*
X138988857Y-114654628D02*
X138607905Y-114654628D01*
X139512667Y-114130819D02*
X140179333Y-114130819D01*
X140179333Y-114130819D02*
X139750762Y-115130819D01*
X75678819Y-97004094D02*
X74678819Y-97004094D01*
X74678819Y-97004094D02*
X74678819Y-96765999D01*
X74678819Y-96765999D02*
X74726438Y-96623142D01*
X74726438Y-96623142D02*
X74821676Y-96527904D01*
X74821676Y-96527904D02*
X74916914Y-96480285D01*
X74916914Y-96480285D02*
X75107390Y-96432666D01*
X75107390Y-96432666D02*
X75250247Y-96432666D01*
X75250247Y-96432666D02*
X75440723Y-96480285D01*
X75440723Y-96480285D02*
X75535961Y-96527904D01*
X75535961Y-96527904D02*
X75631200Y-96623142D01*
X75631200Y-96623142D02*
X75678819Y-96765999D01*
X75678819Y-96765999D02*
X75678819Y-97004094D01*
X75678819Y-95480285D02*
X75678819Y-96051713D01*
X75678819Y-95765999D02*
X74678819Y-95765999D01*
X74678819Y-95765999D02*
X74821676Y-95861237D01*
X74821676Y-95861237D02*
X74916914Y-95956475D01*
X74916914Y-95956475D02*
X74964533Y-96051713D01*
X49022095Y-111214819D02*
X49022095Y-112024342D01*
X49022095Y-112024342D02*
X49069714Y-112119580D01*
X49069714Y-112119580D02*
X49117333Y-112167200D01*
X49117333Y-112167200D02*
X49212571Y-112214819D01*
X49212571Y-112214819D02*
X49403047Y-112214819D01*
X49403047Y-112214819D02*
X49498285Y-112167200D01*
X49498285Y-112167200D02*
X49545904Y-112119580D01*
X49545904Y-112119580D02*
X49593523Y-112024342D01*
X49593523Y-112024342D02*
X49593523Y-111214819D01*
X50498285Y-111548152D02*
X50498285Y-112214819D01*
X50260190Y-111167200D02*
X50022095Y-111881485D01*
X50022095Y-111881485D02*
X50641142Y-111881485D01*
X141094666Y-39366819D02*
X141094666Y-40081104D01*
X141094666Y-40081104D02*
X141047047Y-40223961D01*
X141047047Y-40223961D02*
X140951809Y-40319200D01*
X140951809Y-40319200D02*
X140808952Y-40366819D01*
X140808952Y-40366819D02*
X140713714Y-40366819D01*
X141999428Y-39700152D02*
X141999428Y-40366819D01*
X141761333Y-39319200D02*
X141523238Y-40033485D01*
X141523238Y-40033485D02*
X142142285Y-40033485D01*
X30094666Y-39366819D02*
X30094666Y-40081104D01*
X30094666Y-40081104D02*
X30047047Y-40223961D01*
X30047047Y-40223961D02*
X29951809Y-40319200D01*
X29951809Y-40319200D02*
X29808952Y-40366819D01*
X29808952Y-40366819D02*
X29713714Y-40366819D01*
X31094666Y-40366819D02*
X30523238Y-40366819D01*
X30808952Y-40366819D02*
X30808952Y-39366819D01*
X30808952Y-39366819D02*
X30713714Y-39509676D01*
X30713714Y-39509676D02*
X30618476Y-39604914D01*
X30618476Y-39604914D02*
X30523238Y-39652533D01*
X31377833Y-106629580D02*
X31330214Y-106677200D01*
X31330214Y-106677200D02*
X31187357Y-106724819D01*
X31187357Y-106724819D02*
X31092119Y-106724819D01*
X31092119Y-106724819D02*
X30949262Y-106677200D01*
X30949262Y-106677200D02*
X30854024Y-106581961D01*
X30854024Y-106581961D02*
X30806405Y-106486723D01*
X30806405Y-106486723D02*
X30758786Y-106296247D01*
X30758786Y-106296247D02*
X30758786Y-106153390D01*
X30758786Y-106153390D02*
X30806405Y-105962914D01*
X30806405Y-105962914D02*
X30854024Y-105867676D01*
X30854024Y-105867676D02*
X30949262Y-105772438D01*
X30949262Y-105772438D02*
X31092119Y-105724819D01*
X31092119Y-105724819D02*
X31187357Y-105724819D01*
X31187357Y-105724819D02*
X31330214Y-105772438D01*
X31330214Y-105772438D02*
X31377833Y-105820057D01*
X32234976Y-105724819D02*
X32044500Y-105724819D01*
X32044500Y-105724819D02*
X31949262Y-105772438D01*
X31949262Y-105772438D02*
X31901643Y-105820057D01*
X31901643Y-105820057D02*
X31806405Y-105962914D01*
X31806405Y-105962914D02*
X31758786Y-106153390D01*
X31758786Y-106153390D02*
X31758786Y-106534342D01*
X31758786Y-106534342D02*
X31806405Y-106629580D01*
X31806405Y-106629580D02*
X31854024Y-106677200D01*
X31854024Y-106677200D02*
X31949262Y-106724819D01*
X31949262Y-106724819D02*
X32139738Y-106724819D01*
X32139738Y-106724819D02*
X32234976Y-106677200D01*
X32234976Y-106677200D02*
X32282595Y-106629580D01*
X32282595Y-106629580D02*
X32330214Y-106534342D01*
X32330214Y-106534342D02*
X32330214Y-106296247D01*
X32330214Y-106296247D02*
X32282595Y-106201009D01*
X32282595Y-106201009D02*
X32234976Y-106153390D01*
X32234976Y-106153390D02*
X32139738Y-106105771D01*
X32139738Y-106105771D02*
X31949262Y-106105771D01*
X31949262Y-106105771D02*
X31854024Y-106153390D01*
X31854024Y-106153390D02*
X31806405Y-106201009D01*
X31806405Y-106201009D02*
X31758786Y-106296247D01*
X30094666Y-64366819D02*
X30094666Y-65081104D01*
X30094666Y-65081104D02*
X30047047Y-65223961D01*
X30047047Y-65223961D02*
X29951809Y-65319200D01*
X29951809Y-65319200D02*
X29808952Y-65366819D01*
X29808952Y-65366819D02*
X29713714Y-65366819D01*
X31047047Y-64366819D02*
X30570857Y-64366819D01*
X30570857Y-64366819D02*
X30523238Y-64843009D01*
X30523238Y-64843009D02*
X30570857Y-64795390D01*
X30570857Y-64795390D02*
X30666095Y-64747771D01*
X30666095Y-64747771D02*
X30904190Y-64747771D01*
X30904190Y-64747771D02*
X30999428Y-64795390D01*
X30999428Y-64795390D02*
X31047047Y-64843009D01*
X31047047Y-64843009D02*
X31094666Y-64938247D01*
X31094666Y-64938247D02*
X31094666Y-65176342D01*
X31094666Y-65176342D02*
X31047047Y-65271580D01*
X31047047Y-65271580D02*
X30999428Y-65319200D01*
X30999428Y-65319200D02*
X30904190Y-65366819D01*
X30904190Y-65366819D02*
X30666095Y-65366819D01*
X30666095Y-65366819D02*
X30570857Y-65319200D01*
X30570857Y-65319200D02*
X30523238Y-65271580D01*
X29423333Y-100784819D02*
X29090000Y-100308628D01*
X28851905Y-100784819D02*
X28851905Y-99784819D01*
X28851905Y-99784819D02*
X29232857Y-99784819D01*
X29232857Y-99784819D02*
X29328095Y-99832438D01*
X29328095Y-99832438D02*
X29375714Y-99880057D01*
X29375714Y-99880057D02*
X29423333Y-99975295D01*
X29423333Y-99975295D02*
X29423333Y-100118152D01*
X29423333Y-100118152D02*
X29375714Y-100213390D01*
X29375714Y-100213390D02*
X29328095Y-100261009D01*
X29328095Y-100261009D02*
X29232857Y-100308628D01*
X29232857Y-100308628D02*
X28851905Y-100308628D01*
X29994762Y-100213390D02*
X29899524Y-100165771D01*
X29899524Y-100165771D02*
X29851905Y-100118152D01*
X29851905Y-100118152D02*
X29804286Y-100022914D01*
X29804286Y-100022914D02*
X29804286Y-99975295D01*
X29804286Y-99975295D02*
X29851905Y-99880057D01*
X29851905Y-99880057D02*
X29899524Y-99832438D01*
X29899524Y-99832438D02*
X29994762Y-99784819D01*
X29994762Y-99784819D02*
X30185238Y-99784819D01*
X30185238Y-99784819D02*
X30280476Y-99832438D01*
X30280476Y-99832438D02*
X30328095Y-99880057D01*
X30328095Y-99880057D02*
X30375714Y-99975295D01*
X30375714Y-99975295D02*
X30375714Y-100022914D01*
X30375714Y-100022914D02*
X30328095Y-100118152D01*
X30328095Y-100118152D02*
X30280476Y-100165771D01*
X30280476Y-100165771D02*
X30185238Y-100213390D01*
X30185238Y-100213390D02*
X29994762Y-100213390D01*
X29994762Y-100213390D02*
X29899524Y-100261009D01*
X29899524Y-100261009D02*
X29851905Y-100308628D01*
X29851905Y-100308628D02*
X29804286Y-100403866D01*
X29804286Y-100403866D02*
X29804286Y-100594342D01*
X29804286Y-100594342D02*
X29851905Y-100689580D01*
X29851905Y-100689580D02*
X29899524Y-100737200D01*
X29899524Y-100737200D02*
X29994762Y-100784819D01*
X29994762Y-100784819D02*
X30185238Y-100784819D01*
X30185238Y-100784819D02*
X30280476Y-100737200D01*
X30280476Y-100737200D02*
X30328095Y-100689580D01*
X30328095Y-100689580D02*
X30375714Y-100594342D01*
X30375714Y-100594342D02*
X30375714Y-100403866D01*
X30375714Y-100403866D02*
X30328095Y-100308628D01*
X30328095Y-100308628D02*
X30280476Y-100261009D01*
X30280476Y-100261009D02*
X30185238Y-100213390D01*
X134897905Y-115638819D02*
X134897905Y-114638819D01*
X134897905Y-114638819D02*
X135136000Y-114638819D01*
X135136000Y-114638819D02*
X135278857Y-114686438D01*
X135278857Y-114686438D02*
X135374095Y-114781676D01*
X135374095Y-114781676D02*
X135421714Y-114876914D01*
X135421714Y-114876914D02*
X135469333Y-115067390D01*
X135469333Y-115067390D02*
X135469333Y-115210247D01*
X135469333Y-115210247D02*
X135421714Y-115400723D01*
X135421714Y-115400723D02*
X135374095Y-115495961D01*
X135374095Y-115495961D02*
X135278857Y-115591200D01*
X135278857Y-115591200D02*
X135136000Y-115638819D01*
X135136000Y-115638819D02*
X134897905Y-115638819D01*
X136326476Y-114972152D02*
X136326476Y-115638819D01*
X136088381Y-114591200D02*
X135850286Y-115305485D01*
X135850286Y-115305485D02*
X136469333Y-115305485D01*
X62105113Y-102261580D02*
X62057494Y-102309200D01*
X62057494Y-102309200D02*
X61914637Y-102356819D01*
X61914637Y-102356819D02*
X61819399Y-102356819D01*
X61819399Y-102356819D02*
X61676542Y-102309200D01*
X61676542Y-102309200D02*
X61581304Y-102213961D01*
X61581304Y-102213961D02*
X61533685Y-102118723D01*
X61533685Y-102118723D02*
X61486066Y-101928247D01*
X61486066Y-101928247D02*
X61486066Y-101785390D01*
X61486066Y-101785390D02*
X61533685Y-101594914D01*
X61533685Y-101594914D02*
X61581304Y-101499676D01*
X61581304Y-101499676D02*
X61676542Y-101404438D01*
X61676542Y-101404438D02*
X61819399Y-101356819D01*
X61819399Y-101356819D02*
X61914637Y-101356819D01*
X61914637Y-101356819D02*
X62057494Y-101404438D01*
X62057494Y-101404438D02*
X62105113Y-101452057D01*
X62438447Y-101356819D02*
X63057494Y-101356819D01*
X63057494Y-101356819D02*
X62724161Y-101737771D01*
X62724161Y-101737771D02*
X62867018Y-101737771D01*
X62867018Y-101737771D02*
X62962256Y-101785390D01*
X62962256Y-101785390D02*
X63009875Y-101833009D01*
X63009875Y-101833009D02*
X63057494Y-101928247D01*
X63057494Y-101928247D02*
X63057494Y-102166342D01*
X63057494Y-102166342D02*
X63009875Y-102261580D01*
X63009875Y-102261580D02*
X62962256Y-102309200D01*
X62962256Y-102309200D02*
X62867018Y-102356819D01*
X62867018Y-102356819D02*
X62581304Y-102356819D01*
X62581304Y-102356819D02*
X62486066Y-102309200D01*
X62486066Y-102309200D02*
X62438447Y-102261580D01*
X51762333Y-114968819D02*
X51429000Y-114492628D01*
X51190905Y-114968819D02*
X51190905Y-113968819D01*
X51190905Y-113968819D02*
X51571857Y-113968819D01*
X51571857Y-113968819D02*
X51667095Y-114016438D01*
X51667095Y-114016438D02*
X51714714Y-114064057D01*
X51714714Y-114064057D02*
X51762333Y-114159295D01*
X51762333Y-114159295D02*
X51762333Y-114302152D01*
X51762333Y-114302152D02*
X51714714Y-114397390D01*
X51714714Y-114397390D02*
X51667095Y-114445009D01*
X51667095Y-114445009D02*
X51571857Y-114492628D01*
X51571857Y-114492628D02*
X51190905Y-114492628D01*
X52619476Y-113968819D02*
X52429000Y-113968819D01*
X52429000Y-113968819D02*
X52333762Y-114016438D01*
X52333762Y-114016438D02*
X52286143Y-114064057D01*
X52286143Y-114064057D02*
X52190905Y-114206914D01*
X52190905Y-114206914D02*
X52143286Y-114397390D01*
X52143286Y-114397390D02*
X52143286Y-114778342D01*
X52143286Y-114778342D02*
X52190905Y-114873580D01*
X52190905Y-114873580D02*
X52238524Y-114921200D01*
X52238524Y-114921200D02*
X52333762Y-114968819D01*
X52333762Y-114968819D02*
X52524238Y-114968819D01*
X52524238Y-114968819D02*
X52619476Y-114921200D01*
X52619476Y-114921200D02*
X52667095Y-114873580D01*
X52667095Y-114873580D02*
X52714714Y-114778342D01*
X52714714Y-114778342D02*
X52714714Y-114540247D01*
X52714714Y-114540247D02*
X52667095Y-114445009D01*
X52667095Y-114445009D02*
X52619476Y-114397390D01*
X52619476Y-114397390D02*
X52524238Y-114349771D01*
X52524238Y-114349771D02*
X52333762Y-114349771D01*
X52333762Y-114349771D02*
X52238524Y-114397390D01*
X52238524Y-114397390D02*
X52190905Y-114445009D01*
X52190905Y-114445009D02*
X52143286Y-114540247D01*
X141094666Y-64366819D02*
X141094666Y-65081104D01*
X141094666Y-65081104D02*
X141047047Y-65223961D01*
X141047047Y-65223961D02*
X140951809Y-65319200D01*
X140951809Y-65319200D02*
X140808952Y-65366819D01*
X140808952Y-65366819D02*
X140713714Y-65366819D01*
X141523238Y-64462057D02*
X141570857Y-64414438D01*
X141570857Y-64414438D02*
X141666095Y-64366819D01*
X141666095Y-64366819D02*
X141904190Y-64366819D01*
X141904190Y-64366819D02*
X141999428Y-64414438D01*
X141999428Y-64414438D02*
X142047047Y-64462057D01*
X142047047Y-64462057D02*
X142094666Y-64557295D01*
X142094666Y-64557295D02*
X142094666Y-64652533D01*
X142094666Y-64652533D02*
X142047047Y-64795390D01*
X142047047Y-64795390D02*
X141475619Y-65366819D01*
X141475619Y-65366819D02*
X142094666Y-65366819D01*
X146716333Y-103761580D02*
X146668714Y-103809200D01*
X146668714Y-103809200D02*
X146525857Y-103856819D01*
X146525857Y-103856819D02*
X146430619Y-103856819D01*
X146430619Y-103856819D02*
X146287762Y-103809200D01*
X146287762Y-103809200D02*
X146192524Y-103713961D01*
X146192524Y-103713961D02*
X146144905Y-103618723D01*
X146144905Y-103618723D02*
X146097286Y-103428247D01*
X146097286Y-103428247D02*
X146097286Y-103285390D01*
X146097286Y-103285390D02*
X146144905Y-103094914D01*
X146144905Y-103094914D02*
X146192524Y-102999676D01*
X146192524Y-102999676D02*
X146287762Y-102904438D01*
X146287762Y-102904438D02*
X146430619Y-102856819D01*
X146430619Y-102856819D02*
X146525857Y-102856819D01*
X146525857Y-102856819D02*
X146668714Y-102904438D01*
X146668714Y-102904438D02*
X146716333Y-102952057D01*
X147668714Y-103856819D02*
X147097286Y-103856819D01*
X147383000Y-103856819D02*
X147383000Y-102856819D01*
X147383000Y-102856819D02*
X147287762Y-102999676D01*
X147287762Y-102999676D02*
X147192524Y-103094914D01*
X147192524Y-103094914D02*
X147097286Y-103142533D01*
X128203333Y-114501580D02*
X128155714Y-114549200D01*
X128155714Y-114549200D02*
X128012857Y-114596819D01*
X128012857Y-114596819D02*
X127917619Y-114596819D01*
X127917619Y-114596819D02*
X127774762Y-114549200D01*
X127774762Y-114549200D02*
X127679524Y-114453961D01*
X127679524Y-114453961D02*
X127631905Y-114358723D01*
X127631905Y-114358723D02*
X127584286Y-114168247D01*
X127584286Y-114168247D02*
X127584286Y-114025390D01*
X127584286Y-114025390D02*
X127631905Y-113834914D01*
X127631905Y-113834914D02*
X127679524Y-113739676D01*
X127679524Y-113739676D02*
X127774762Y-113644438D01*
X127774762Y-113644438D02*
X127917619Y-113596819D01*
X127917619Y-113596819D02*
X128012857Y-113596819D01*
X128012857Y-113596819D02*
X128155714Y-113644438D01*
X128155714Y-113644438D02*
X128203333Y-113692057D01*
X128584286Y-113692057D02*
X128631905Y-113644438D01*
X128631905Y-113644438D02*
X128727143Y-113596819D01*
X128727143Y-113596819D02*
X128965238Y-113596819D01*
X128965238Y-113596819D02*
X129060476Y-113644438D01*
X129060476Y-113644438D02*
X129108095Y-113692057D01*
X129108095Y-113692057D02*
X129155714Y-113787295D01*
X129155714Y-113787295D02*
X129155714Y-113882533D01*
X129155714Y-113882533D02*
X129108095Y-114025390D01*
X129108095Y-114025390D02*
X128536667Y-114596819D01*
X128536667Y-114596819D02*
X129155714Y-114596819D01*
X40640095Y-94958819D02*
X40640095Y-95768342D01*
X40640095Y-95768342D02*
X40687714Y-95863580D01*
X40687714Y-95863580D02*
X40735333Y-95911200D01*
X40735333Y-95911200D02*
X40830571Y-95958819D01*
X40830571Y-95958819D02*
X41021047Y-95958819D01*
X41021047Y-95958819D02*
X41116285Y-95911200D01*
X41116285Y-95911200D02*
X41163904Y-95863580D01*
X41163904Y-95863580D02*
X41211523Y-95768342D01*
X41211523Y-95768342D02*
X41211523Y-94958819D01*
X41592476Y-94958819D02*
X42211523Y-94958819D01*
X42211523Y-94958819D02*
X41878190Y-95339771D01*
X41878190Y-95339771D02*
X42021047Y-95339771D01*
X42021047Y-95339771D02*
X42116285Y-95387390D01*
X42116285Y-95387390D02*
X42163904Y-95435009D01*
X42163904Y-95435009D02*
X42211523Y-95530247D01*
X42211523Y-95530247D02*
X42211523Y-95768342D01*
X42211523Y-95768342D02*
X42163904Y-95863580D01*
X42163904Y-95863580D02*
X42116285Y-95911200D01*
X42116285Y-95911200D02*
X42021047Y-95958819D01*
X42021047Y-95958819D02*
X41735333Y-95958819D01*
X41735333Y-95958819D02*
X41640095Y-95911200D01*
X41640095Y-95911200D02*
X41592476Y-95863580D01*
D13*
%TO.C,D3*%
X53204000Y-117375000D02*
X53204000Y-118845000D01*
X53204000Y-118845000D02*
X55664000Y-118845000D01*
X55664000Y-117375000D02*
X53204000Y-117375000D01*
D14*
%TO.C,G\u002A\u002A\u002A*%
G36*
X52605875Y-61838584D02*
G01*
X52640225Y-61936062D01*
X52602925Y-62035900D01*
X52481077Y-62063380D01*
X52356279Y-62033541D01*
X52321929Y-61936062D01*
X52359229Y-61836224D01*
X52481077Y-61808744D01*
X52605875Y-61838584D01*
G37*
G36*
X57712033Y-61853758D02*
G01*
X57732957Y-61936062D01*
X57687943Y-62042456D01*
X57605639Y-62063380D01*
X57499245Y-62018367D01*
X57478320Y-61936062D01*
X57523334Y-61829668D01*
X57605639Y-61808744D01*
X57712033Y-61853758D01*
G37*
G36*
X58114912Y-55856613D02*
G01*
X58114912Y-56143080D01*
X57860275Y-56143080D01*
X57605639Y-56143080D01*
X57605639Y-55856613D01*
X57605639Y-55570147D01*
X57860275Y-55570147D01*
X58114912Y-55570147D01*
X58114912Y-55856613D01*
G37*
G36*
X58114912Y-58052854D02*
G01*
X58114912Y-59389696D01*
X57860275Y-59389696D01*
X57605639Y-59389696D01*
X57605639Y-58052854D01*
X57605639Y-56716012D01*
X57860275Y-56716012D01*
X58114912Y-56716012D01*
X58114912Y-58052854D01*
G37*
G36*
X65414790Y-61853758D02*
G01*
X65435714Y-61936062D01*
X65390700Y-62042456D01*
X65308396Y-62063380D01*
X65202002Y-62018367D01*
X65181077Y-61936062D01*
X65226091Y-61829668D01*
X65308396Y-61808744D01*
X65414790Y-61853758D01*
G37*
G36*
X69318922Y-55856613D02*
G01*
X69318922Y-56143080D01*
X69064285Y-56143080D01*
X68809649Y-56143080D01*
X68809649Y-55856613D01*
X68809649Y-55570147D01*
X69064285Y-55570147D01*
X69318922Y-55570147D01*
X69318922Y-55856613D01*
G37*
G36*
X69318922Y-58052854D02*
G01*
X69318922Y-59389696D01*
X69064285Y-59389696D01*
X68809649Y-59389696D01*
X68809649Y-58052854D01*
X68809649Y-56716012D01*
X69064285Y-56716012D01*
X69318922Y-56716012D01*
X69318922Y-58052854D01*
G37*
G36*
X40744034Y-59218029D02*
G01*
X40770183Y-59285775D01*
X40766516Y-59420238D01*
X40732131Y-59638721D01*
X40666124Y-59958530D01*
X40644181Y-60058117D01*
X40573463Y-60376413D01*
X40486887Y-59844431D01*
X40445863Y-59554158D01*
X40440785Y-59366181D01*
X40478435Y-59258861D01*
X40565596Y-59210561D01*
X40688972Y-59199694D01*
X40744034Y-59218029D01*
G37*
G36*
X42536045Y-57677496D02*
G01*
X42619798Y-57709919D01*
X42644645Y-57787121D01*
X42645739Y-57830047D01*
X42635706Y-57923758D01*
X42584109Y-57970969D01*
X42458702Y-57987466D01*
X42320632Y-57989195D01*
X42129606Y-57982877D01*
X42040534Y-57958068D01*
X42028420Y-57905980D01*
X42034166Y-57888500D01*
X42068517Y-57767219D01*
X42072807Y-57729352D01*
X42129715Y-57694489D01*
X42273695Y-57673579D01*
X42359273Y-57670899D01*
X42536045Y-57677496D01*
G37*
G36*
X44163758Y-59214252D02*
G01*
X44240735Y-59269785D01*
X44268053Y-59388382D01*
X44252506Y-59592132D01*
X44217727Y-59808862D01*
X44173034Y-60049801D01*
X44140967Y-60178260D01*
X44115759Y-60207744D01*
X44091644Y-60151756D01*
X44084107Y-60121776D01*
X44001338Y-59765412D01*
X43948852Y-59514309D01*
X43925593Y-59350328D01*
X43930502Y-59255330D01*
X43962520Y-59211174D01*
X44020591Y-59199723D01*
X44030325Y-59199694D01*
X44163758Y-59214252D01*
G37*
G36*
X42292787Y-58571692D02*
G01*
X42374722Y-58575123D01*
X42602960Y-58587893D01*
X42733540Y-58609577D01*
X42796065Y-58652919D01*
X42820136Y-58730667D01*
X42825030Y-58769020D01*
X42845173Y-58944082D01*
X42331672Y-58944082D01*
X42094072Y-58940920D01*
X41914769Y-58932511D01*
X41823766Y-58920474D01*
X41818170Y-58916397D01*
X41838375Y-58843007D01*
X41881363Y-58722500D01*
X41922476Y-58634609D01*
X41983041Y-58586662D01*
X42095623Y-58568933D01*
X42292787Y-58571692D01*
G37*
G36*
X42373532Y-56521783D02*
G01*
X42406892Y-56648054D01*
X42416363Y-56697965D01*
X42457826Y-56926174D01*
X42504793Y-57173627D01*
X42511781Y-57209370D01*
X42564984Y-57479922D01*
X42350725Y-57479922D01*
X42206833Y-57467470D01*
X42137571Y-57437005D01*
X42136466Y-57432154D01*
X42149358Y-57335556D01*
X42182324Y-57163234D01*
X42226795Y-56953831D01*
X42274203Y-56745986D01*
X42315982Y-56578341D01*
X42343563Y-56489538D01*
X42346535Y-56484723D01*
X42373532Y-56521783D01*
G37*
G36*
X42654646Y-58141102D02*
G01*
X42709141Y-58192231D01*
X42729965Y-58251947D01*
X42748163Y-58377840D01*
X42706901Y-58452280D01*
X42584717Y-58488155D01*
X42360148Y-58498355D01*
X42319458Y-58498468D01*
X42108181Y-58495966D01*
X41995830Y-58479313D01*
X41954013Y-58434789D01*
X41954338Y-58348676D01*
X41957175Y-58323405D01*
X41977865Y-58223307D01*
X42032218Y-58168488D01*
X42152954Y-58142163D01*
X42335166Y-58129496D01*
X42541292Y-58123697D01*
X42654646Y-58141102D01*
G37*
G36*
X57617414Y-62338509D02*
G01*
X57645781Y-62413688D01*
X57661845Y-62564106D01*
X57668542Y-62810316D01*
X57669298Y-62986438D01*
X57666370Y-63291676D01*
X57655631Y-63490241D01*
X57634142Y-63602688D01*
X57598969Y-63649569D01*
X57573809Y-63654859D01*
X57530204Y-63634367D01*
X57501837Y-63559188D01*
X57485773Y-63408770D01*
X57479076Y-63162560D01*
X57478320Y-62986438D01*
X57481248Y-62681200D01*
X57491988Y-62482635D01*
X57513476Y-62370188D01*
X57548649Y-62323307D01*
X57573809Y-62318017D01*
X57617414Y-62338509D01*
G37*
G36*
X52496992Y-62330136D02*
G01*
X52548348Y-62354717D01*
X52581198Y-62420139D01*
X52599495Y-62549698D01*
X52607194Y-62766692D01*
X52608396Y-62986438D01*
X52605818Y-63279596D01*
X52595447Y-63468791D01*
X52573331Y-63577318D01*
X52535513Y-63628476D01*
X52496992Y-63642740D01*
X52447444Y-63640883D01*
X52415134Y-63598288D01*
X52396459Y-63493725D01*
X52387814Y-63305962D01*
X52385596Y-63013765D01*
X52385589Y-62986438D01*
X52387462Y-62685356D01*
X52395486Y-62490335D01*
X52413265Y-62380143D01*
X52444401Y-62333548D01*
X52492500Y-62329318D01*
X52496992Y-62330136D01*
G37*
G36*
X65292481Y-62330136D02*
G01*
X65343837Y-62354717D01*
X65376687Y-62420139D01*
X65394984Y-62549698D01*
X65402683Y-62766692D01*
X65403884Y-62986438D01*
X65401306Y-63279596D01*
X65390936Y-63468791D01*
X65368819Y-63577318D01*
X65331001Y-63628476D01*
X65292481Y-63642740D01*
X65242932Y-63640883D01*
X65210623Y-63598288D01*
X65191947Y-63493725D01*
X65183303Y-63305962D01*
X65181085Y-63013765D01*
X65181077Y-62986438D01*
X65182951Y-62685356D01*
X65190975Y-62490335D01*
X65208753Y-62380143D01*
X65239890Y-62333548D01*
X65287989Y-62329318D01*
X65292481Y-62330136D01*
G37*
G36*
X51737116Y-55840699D02*
G01*
X51717167Y-56047591D01*
X50778195Y-56065208D01*
X49839223Y-56082824D01*
X49839223Y-56654055D01*
X49839223Y-57225285D01*
X50634962Y-57225285D01*
X51430701Y-57225285D01*
X51430701Y-57448092D01*
X51430701Y-57670899D01*
X50634962Y-57670899D01*
X49839223Y-57670899D01*
X49839223Y-58307491D01*
X49839223Y-58944082D01*
X50794110Y-58944082D01*
X51748997Y-58944082D01*
X51748997Y-59166889D01*
X51748997Y-59389696D01*
X50571303Y-59389696D01*
X49393609Y-59389696D01*
X49393609Y-57511751D01*
X49393609Y-55633806D01*
X50575336Y-55633806D01*
X51757064Y-55633806D01*
X51737116Y-55840699D01*
G37*
G36*
X55915778Y-62341695D02*
G01*
X56081731Y-62390382D01*
X56132898Y-62482609D01*
X56121348Y-62533292D01*
X56056962Y-62600298D01*
X55919912Y-62600828D01*
X55879711Y-62593508D01*
X55711928Y-62588499D01*
X55599278Y-62661833D01*
X55533582Y-62827212D01*
X55506661Y-63098335D01*
X55504887Y-63221412D01*
X55499226Y-63458678D01*
X55478622Y-63593130D01*
X55437644Y-63648917D01*
X55407400Y-63654859D01*
X55301546Y-63607275D01*
X55277445Y-63570247D01*
X55264859Y-63471500D01*
X55258977Y-63280011D01*
X55260535Y-63030214D01*
X55263528Y-62917924D01*
X55282080Y-62350213D01*
X55632205Y-62335402D01*
X55915778Y-62341695D01*
G37*
G36*
X71516763Y-62349303D02*
G01*
X71694116Y-62393624D01*
X71765622Y-62465327D01*
X71738138Y-62540622D01*
X71608822Y-62599110D01*
X71450735Y-62592027D01*
X71331086Y-62582192D01*
X71251046Y-62612596D01*
X71201125Y-62703672D01*
X71171834Y-62875854D01*
X71153683Y-63149573D01*
X71149593Y-63240456D01*
X71132463Y-63462782D01*
X71099326Y-63585934D01*
X71041313Y-63637854D01*
X71021804Y-63642993D01*
X70971738Y-63640939D01*
X70939304Y-63597576D01*
X70920762Y-63491434D01*
X70912374Y-63301044D01*
X70910401Y-63004933D01*
X70910401Y-63003263D01*
X70910401Y-62342332D01*
X71244611Y-62336924D01*
X71516763Y-62349303D01*
G37*
G36*
X45456331Y-59541213D02*
G01*
X45635978Y-59590439D01*
X45840225Y-59663698D01*
X45858977Y-59671413D01*
X46005841Y-59744472D01*
X46058947Y-59821196D01*
X46046296Y-59942456D01*
X46045885Y-59944232D01*
X45982858Y-60136025D01*
X45870278Y-60404993D01*
X45723889Y-60719015D01*
X45559437Y-61045969D01*
X45392666Y-61353733D01*
X45239322Y-61610184D01*
X45200293Y-61669368D01*
X45026278Y-61913918D01*
X44902039Y-62063350D01*
X44832166Y-62113278D01*
X44821248Y-62059315D01*
X44829763Y-62023608D01*
X44850823Y-61925300D01*
X44889476Y-61723367D01*
X44941701Y-61439657D01*
X45003478Y-61096015D01*
X45070788Y-60714288D01*
X45072364Y-60705261D01*
X45281711Y-59506289D01*
X45456331Y-59541213D01*
G37*
G36*
X44032923Y-58258981D02*
G01*
X44293486Y-58300618D01*
X44619633Y-58363112D01*
X44982559Y-58440821D01*
X45353460Y-58528103D01*
X45478571Y-58559547D01*
X45846998Y-58658384D01*
X46103212Y-58741065D01*
X46259907Y-58816099D01*
X46329775Y-58891991D01*
X46325512Y-58977248D01*
X46259810Y-59080376D01*
X46258396Y-59082136D01*
X46198811Y-59135774D01*
X46117185Y-59143754D01*
X45975608Y-59104477D01*
X45867906Y-59065660D01*
X45579016Y-58972151D01*
X45165095Y-58859324D01*
X44626926Y-58727382D01*
X44109899Y-58608750D01*
X43901219Y-58552674D01*
X43789072Y-58492089D01*
X43743388Y-58409003D01*
X43739432Y-58387065D01*
X43750299Y-58276649D01*
X43848512Y-58244116D01*
X43866750Y-58243842D01*
X44032923Y-58258981D01*
G37*
G36*
X44072678Y-58731665D02*
G01*
X44326053Y-58784178D01*
X44629539Y-58856729D01*
X44959489Y-58942843D01*
X45292257Y-59036047D01*
X45604197Y-59129867D01*
X45871662Y-59217831D01*
X46071006Y-59293465D01*
X46178582Y-59350295D01*
X46189964Y-59363949D01*
X46187772Y-59486755D01*
X46168234Y-59530550D01*
X46118826Y-59565984D01*
X46020380Y-59564965D01*
X45849151Y-59523992D01*
X45605889Y-59447661D01*
X45298693Y-59356257D01*
X44932199Y-59261601D01*
X44572833Y-59180540D01*
X44479416Y-59161976D01*
X44193325Y-59104477D01*
X44008643Y-59057014D01*
X43901051Y-59009538D01*
X43846233Y-58952003D01*
X43823811Y-58891096D01*
X43803556Y-58765448D01*
X43810846Y-58712643D01*
X43893060Y-58705662D01*
X44072678Y-58731665D01*
G37*
G36*
X39384650Y-59544914D02*
G01*
X39405755Y-59613821D01*
X39444692Y-59784071D01*
X39497154Y-60033174D01*
X39558836Y-60338640D01*
X39625430Y-60677979D01*
X39692630Y-61028702D01*
X39756130Y-61368319D01*
X39811623Y-61674339D01*
X39854802Y-61924272D01*
X39881361Y-62095629D01*
X39886993Y-62165919D01*
X39886626Y-62166395D01*
X39844662Y-62127682D01*
X39754095Y-62022592D01*
X39732883Y-61996635D01*
X39554742Y-61751895D01*
X39363171Y-61447100D01*
X39170839Y-61107467D01*
X38990411Y-60758212D01*
X38834554Y-60424549D01*
X38715934Y-60131696D01*
X38647219Y-59904868D01*
X38635213Y-59811459D01*
X38690696Y-59747220D01*
X38829567Y-59672293D01*
X39010451Y-59601392D01*
X39191979Y-59549231D01*
X39332776Y-59530524D01*
X39384650Y-59544914D01*
G37*
G36*
X40955474Y-58278697D02*
G01*
X40985982Y-58377141D01*
X40941882Y-58475419D01*
X40861369Y-58520779D01*
X40688159Y-58577938D01*
X40454946Y-58636624D01*
X40373819Y-58653879D01*
X40117680Y-58710480D01*
X39813627Y-58784550D01*
X39488967Y-58868603D01*
X39171007Y-58955153D01*
X38887053Y-59036712D01*
X38664412Y-59105794D01*
X38530389Y-59154912D01*
X38512029Y-59164334D01*
X38452723Y-59141216D01*
X38406201Y-59037514D01*
X38393780Y-58894876D01*
X38420249Y-58815772D01*
X38513341Y-58770178D01*
X38706483Y-58706270D01*
X38974743Y-58630002D01*
X39293185Y-58547325D01*
X39636878Y-58464194D01*
X39980887Y-58386561D01*
X40300278Y-58320379D01*
X40570118Y-58271601D01*
X40765474Y-58246181D01*
X40815538Y-58243884D01*
X40955474Y-58278697D01*
G37*
G36*
X43903722Y-57751734D02*
G01*
X44171977Y-57791750D01*
X44498303Y-57851916D01*
X44861102Y-57927816D01*
X45238778Y-58015035D01*
X45609735Y-58109157D01*
X45952376Y-58205765D01*
X46130934Y-58261628D01*
X46300754Y-58350906D01*
X46393916Y-58467283D01*
X46392331Y-58582237D01*
X46359854Y-58622545D01*
X46277872Y-58627547D01*
X46106641Y-58599836D01*
X45878290Y-58545127D01*
X45796867Y-58522409D01*
X45452574Y-58428551D01*
X45082752Y-58336984D01*
X44716146Y-58253872D01*
X44381505Y-58185380D01*
X44107574Y-58137675D01*
X43923101Y-58116921D01*
X43904312Y-58116513D01*
X43750810Y-58080667D01*
X43662083Y-57951550D01*
X43660929Y-57948537D01*
X43624243Y-57817092D01*
X43627807Y-57749816D01*
X43715133Y-57736284D01*
X43903722Y-57751734D01*
G37*
G36*
X52964885Y-62346662D02*
G01*
X53036448Y-62446733D01*
X53116992Y-62639438D01*
X53163498Y-62773802D01*
X53315427Y-63229587D01*
X53476517Y-62789717D01*
X53582720Y-62537232D01*
X53679803Y-62377892D01*
X53743678Y-62329264D01*
X53810029Y-62329324D01*
X53838985Y-62373570D01*
X53828000Y-62479083D01*
X53774528Y-62662946D01*
X53676022Y-62942243D01*
X53636231Y-63050097D01*
X53525964Y-63322455D01*
X53426185Y-63522821D01*
X53347916Y-63630126D01*
X53326578Y-63642032D01*
X53264939Y-63612228D01*
X53188243Y-63492698D01*
X53089980Y-63271338D01*
X52998555Y-63032141D01*
X52903239Y-62768837D01*
X52827050Y-62551104D01*
X52779231Y-62405806D01*
X52767543Y-62360633D01*
X52820798Y-62325479D01*
X52889557Y-62318017D01*
X52964885Y-62346662D01*
G37*
G36*
X40832753Y-58716577D02*
G01*
X40861777Y-58809503D01*
X40863283Y-58863720D01*
X40857400Y-58956099D01*
X40822488Y-59016343D01*
X40732656Y-59058396D01*
X40562009Y-59096202D01*
X40369924Y-59129399D01*
X40059304Y-59190502D01*
X39700409Y-59274358D01*
X39365889Y-59363871D01*
X39335463Y-59372805D01*
X39003941Y-59470634D01*
X38775401Y-59533983D01*
X38630694Y-59564333D01*
X38550667Y-59563161D01*
X38516169Y-59531946D01*
X38508047Y-59472167D01*
X38507894Y-59436690D01*
X38532389Y-59322590D01*
X38628201Y-59250580D01*
X38746616Y-59210759D01*
X39317804Y-59052536D01*
X39781135Y-58929241D01*
X40132262Y-58841995D01*
X40366841Y-58791915D01*
X40385839Y-58788641D01*
X40578347Y-58753208D01*
X40730675Y-58719398D01*
X40751879Y-58713591D01*
X40832753Y-58716577D01*
G37*
G36*
X41035490Y-57779534D02*
G01*
X41061923Y-57882510D01*
X41026596Y-57995735D01*
X40933953Y-58071376D01*
X40911027Y-58077404D01*
X40776840Y-58101726D01*
X40563718Y-58139375D01*
X40322180Y-58181440D01*
X40090662Y-58226963D01*
X39793678Y-58293130D01*
X39462760Y-58372022D01*
X39129437Y-58455717D01*
X38825242Y-58536293D01*
X38581706Y-58605828D01*
X38430360Y-58656401D01*
X38428320Y-58657235D01*
X38349843Y-58667650D01*
X38319867Y-58591621D01*
X38316917Y-58509796D01*
X38327525Y-58395323D01*
X38379552Y-58322481D01*
X38503301Y-58265072D01*
X38653684Y-58218624D01*
X39054510Y-58108360D01*
X39477690Y-58002715D01*
X39896731Y-57907291D01*
X40285138Y-57827689D01*
X40616415Y-57769511D01*
X40864069Y-57738358D01*
X40942857Y-57734645D01*
X41035490Y-57779534D01*
G37*
G36*
X67096496Y-56736719D02*
G01*
X67154108Y-56802804D01*
X67154511Y-56811501D01*
X67161456Y-56884605D01*
X67203521Y-56897361D01*
X67312548Y-56849821D01*
X67385956Y-56811893D01*
X67639322Y-56731509D01*
X67922649Y-56719492D01*
X68183971Y-56773669D01*
X68327888Y-56851307D01*
X68499888Y-56986603D01*
X68325030Y-57169115D01*
X68206043Y-57281815D01*
X68128405Y-57308933D01*
X68052250Y-57262936D01*
X68045199Y-57256626D01*
X67906815Y-57187533D01*
X67743552Y-57161626D01*
X67545220Y-57175736D01*
X67396196Y-57228245D01*
X67289738Y-57334418D01*
X67219103Y-57509522D01*
X67177549Y-57768824D01*
X67158332Y-58127588D01*
X67154511Y-58495307D01*
X67154511Y-59389696D01*
X66931704Y-59389696D01*
X66708897Y-59389696D01*
X66708897Y-58052854D01*
X66708897Y-56716012D01*
X66931704Y-56716012D01*
X67096496Y-56736719D01*
G37*
G36*
X46293127Y-54296964D02*
G01*
X46346668Y-54505484D01*
X46393441Y-54795804D01*
X46433036Y-55149603D01*
X46465046Y-55548559D01*
X46489063Y-55974350D01*
X46504680Y-56408653D01*
X46511488Y-56833148D01*
X46509081Y-57229512D01*
X46497049Y-57579424D01*
X46474987Y-57864560D01*
X46442485Y-58066601D01*
X46399136Y-58167223D01*
X46379434Y-58175037D01*
X46281298Y-58155619D01*
X46105421Y-58110960D01*
X45956015Y-58069515D01*
X45764292Y-58013642D01*
X45631134Y-57973127D01*
X45591345Y-57959313D01*
X45598648Y-57896728D01*
X45626326Y-57724356D01*
X45671703Y-57457625D01*
X45732103Y-57111963D01*
X45804849Y-56702797D01*
X45887263Y-56245554D01*
X45918176Y-56075486D01*
X46004446Y-55610782D01*
X46084898Y-55194272D01*
X46156511Y-54840284D01*
X46216267Y-54563142D01*
X46261144Y-54377172D01*
X46288123Y-54296701D01*
X46293127Y-54296964D01*
G37*
G36*
X38453164Y-54260640D02*
G01*
X38470147Y-54303768D01*
X38488011Y-54386236D01*
X38524116Y-54573905D01*
X38574847Y-54846549D01*
X38636588Y-55183940D01*
X38705722Y-55565852D01*
X38778635Y-55972058D01*
X38851710Y-56382331D01*
X38921332Y-56776445D01*
X38983884Y-57134171D01*
X39035751Y-57435284D01*
X39073317Y-57659557D01*
X39092967Y-57786762D01*
X39093461Y-57790585D01*
X39089439Y-57881899D01*
X39031406Y-57948595D01*
X38892534Y-58012267D01*
X38762531Y-58056925D01*
X38559882Y-58120277D01*
X38402841Y-58163757D01*
X38341484Y-58175961D01*
X38292051Y-58121726D01*
X38246808Y-57979231D01*
X38230081Y-57884821D01*
X38204333Y-57589971D01*
X38191602Y-57200730D01*
X38191233Y-56749289D01*
X38202569Y-56267839D01*
X38224957Y-55788570D01*
X38257741Y-55343674D01*
X38287522Y-55061843D01*
X38334118Y-54698954D01*
X38370927Y-54450061D01*
X38401002Y-54302493D01*
X38427397Y-54243576D01*
X38453164Y-54260640D01*
G37*
G36*
X51573666Y-62337950D02*
G01*
X51752045Y-62362063D01*
X51816325Y-62383639D01*
X51915399Y-62491854D01*
X51991846Y-62677747D01*
X52042895Y-62908942D01*
X52065777Y-63153064D01*
X52057722Y-63377737D01*
X52015961Y-63550585D01*
X51937724Y-63639234D01*
X51924060Y-63643016D01*
X51864138Y-63638959D01*
X51830344Y-63581059D01*
X51815570Y-63443700D01*
X51812656Y-63241557D01*
X51796986Y-62922450D01*
X51746261Y-62713690D01*
X51654907Y-62601768D01*
X51536682Y-62572654D01*
X51396047Y-62596281D01*
X51306228Y-62680597D01*
X51257531Y-62845756D01*
X51240268Y-63111908D01*
X51239724Y-63190147D01*
X51234695Y-63437095D01*
X51216291Y-63580714D01*
X51179539Y-63644715D01*
X51142237Y-63654859D01*
X51036383Y-63607275D01*
X51012282Y-63570247D01*
X50999695Y-63471499D01*
X50993814Y-63280010D01*
X50995373Y-63030216D01*
X50998365Y-62917954D01*
X51016917Y-62350274D01*
X51357040Y-62335070D01*
X51573666Y-62337950D01*
G37*
G36*
X61253019Y-62418858D02*
G01*
X61399920Y-62597413D01*
X61480041Y-62853825D01*
X61488847Y-62986438D01*
X61444145Y-63272899D01*
X61323737Y-63486775D01*
X61148168Y-63615933D01*
X60937980Y-63648243D01*
X60713719Y-63571572D01*
X60617083Y-63501223D01*
X60512349Y-63394543D01*
X60458724Y-63276682D01*
X60439917Y-63100678D01*
X60438471Y-62986438D01*
X60661278Y-62986438D01*
X60701316Y-63199318D01*
X60804453Y-63346033D01*
X60945217Y-63409279D01*
X61098139Y-63371748D01*
X61157819Y-63323832D01*
X61210876Y-63202636D01*
X61231688Y-63015683D01*
X61220255Y-62820381D01*
X61176576Y-62674140D01*
X61157819Y-62649045D01*
X61007227Y-62565696D01*
X60858460Y-62590146D01*
X60736988Y-62705086D01*
X60668282Y-62893211D01*
X60661278Y-62986438D01*
X60438471Y-62986438D01*
X60446676Y-62767610D01*
X60482154Y-62628666D01*
X60561199Y-62522647D01*
X60617083Y-62471653D01*
X60841056Y-62343847D01*
X61059883Y-62330292D01*
X61253019Y-62418858D01*
G37*
G36*
X70325625Y-62385769D02*
G01*
X70481722Y-62533692D01*
X70586283Y-62744014D01*
X70621139Y-63000947D01*
X70588987Y-63220822D01*
X70474219Y-63456413D01*
X70297311Y-63604352D01*
X70086069Y-63655652D01*
X69868295Y-63601322D01*
X69729813Y-63498605D01*
X69634470Y-63378071D01*
X69587329Y-63232978D01*
X69573653Y-63015024D01*
X69573558Y-62986438D01*
X69573797Y-62981501D01*
X69828195Y-62981501D01*
X69856692Y-63218864D01*
X69948469Y-63353986D01*
X70112958Y-63399998D01*
X70128969Y-63400223D01*
X70268133Y-63349131D01*
X70345006Y-63225160D01*
X70384962Y-63017466D01*
X70359308Y-62814880D01*
X70279533Y-62657003D01*
X70158902Y-62583682D01*
X69977846Y-62604712D01*
X69868006Y-62730143D01*
X69828367Y-62961192D01*
X69828195Y-62981501D01*
X69573797Y-62981501D01*
X69584618Y-62758209D01*
X69627621Y-62607829D01*
X69717304Y-62486995D01*
X69729813Y-62474271D01*
X69931500Y-62340271D01*
X70136161Y-62316033D01*
X70325625Y-62385769D01*
G37*
G36*
X58278409Y-62037021D02*
G01*
X58305889Y-62158869D01*
X58335729Y-62283667D01*
X58433208Y-62318017D01*
X58539602Y-62363031D01*
X58560526Y-62445335D01*
X58515512Y-62551729D01*
X58433208Y-62572654D01*
X58362529Y-62586381D01*
X58324100Y-62646846D01*
X58308426Y-62782977D01*
X58305889Y-62960568D01*
X58311514Y-63180019D01*
X58334722Y-63303839D01*
X58385013Y-63363462D01*
X58433208Y-63381777D01*
X58530943Y-63449679D01*
X58559336Y-63550701D01*
X58516126Y-63634101D01*
X58445375Y-63654859D01*
X58302381Y-63618330D01*
X58209126Y-63566310D01*
X58139230Y-63484757D01*
X58095013Y-63345099D01*
X58068366Y-63117421D01*
X58062457Y-63025208D01*
X58042663Y-62803686D01*
X58014377Y-62642391D01*
X57983391Y-62573267D01*
X57980410Y-62572654D01*
X57934504Y-62519273D01*
X57923934Y-62445335D01*
X57950593Y-62341891D01*
X57987594Y-62318017D01*
X58035448Y-62263539D01*
X58051253Y-62158869D01*
X58081093Y-62034071D01*
X58178571Y-61999721D01*
X58278409Y-62037021D01*
G37*
G36*
X58755135Y-62328330D02*
G01*
X58846349Y-62363957D01*
X58920298Y-62458365D01*
X58994852Y-62638720D01*
X59030989Y-62747716D01*
X59101059Y-62950094D01*
X59161121Y-63093359D01*
X59197117Y-63145586D01*
X59234802Y-63089898D01*
X59295409Y-62944164D01*
X59363246Y-62747716D01*
X59445553Y-62519236D01*
X59520333Y-62390217D01*
X59603924Y-62335058D01*
X59630139Y-62329504D01*
X59739749Y-62324243D01*
X59770050Y-62337231D01*
X59747187Y-62430464D01*
X59685622Y-62610790D01*
X59595886Y-62851998D01*
X59488512Y-63127875D01*
X59374033Y-63412208D01*
X59262981Y-63678786D01*
X59165889Y-63901396D01*
X59093290Y-64053826D01*
X59058096Y-64109053D01*
X58906915Y-64163508D01*
X58792593Y-64133038D01*
X58751503Y-64036814D01*
X58792038Y-63932518D01*
X58848568Y-63909496D01*
X58940347Y-63856183D01*
X59007890Y-63745746D01*
X59020873Y-63599433D01*
X58979033Y-63364999D01*
X58880487Y-63035428D01*
X58723350Y-62603702D01*
X58652829Y-62423819D01*
X58639150Y-62339099D01*
X58715286Y-62323519D01*
X58755135Y-62328330D01*
G37*
G36*
X62268303Y-61840141D02*
G01*
X62317698Y-61911117D01*
X62265650Y-61986847D01*
X62189097Y-62018166D01*
X62081327Y-62103483D01*
X62061779Y-62184739D01*
X62103766Y-62295088D01*
X62189097Y-62318017D01*
X62295491Y-62363031D01*
X62316416Y-62445335D01*
X62271079Y-62552070D01*
X62191672Y-62572654D01*
X62129652Y-62584766D01*
X62090512Y-62637806D01*
X62067408Y-62756829D01*
X62053498Y-62966889D01*
X62048439Y-63097138D01*
X62035055Y-63361661D01*
X62013773Y-63523924D01*
X61978634Y-63608969D01*
X61923677Y-63641839D01*
X61918546Y-63642908D01*
X61864422Y-63640239D01*
X61831195Y-63591427D01*
X61813926Y-63473223D01*
X61807678Y-63262379D01*
X61807142Y-63118424D01*
X61800158Y-62853276D01*
X61780928Y-62665305D01*
X61752040Y-62576686D01*
X61743483Y-62572654D01*
X61691761Y-62519336D01*
X61679824Y-62445335D01*
X61706483Y-62341891D01*
X61743483Y-62318017D01*
X61794649Y-62264521D01*
X61807142Y-62186514D01*
X61852201Y-61969762D01*
X61979993Y-61840477D01*
X62127678Y-61808744D01*
X62268303Y-61840141D01*
G37*
G36*
X69053692Y-62355834D02*
G01*
X69235820Y-62424033D01*
X69297554Y-62497715D01*
X69244085Y-62561419D01*
X69080603Y-62599682D01*
X68970222Y-62604483D01*
X68768375Y-62615143D01*
X68664383Y-62652964D01*
X68632535Y-62709704D01*
X68651784Y-62784158D01*
X68760894Y-62834479D01*
X68885746Y-62859867D01*
X69162864Y-62941377D01*
X69329963Y-63075066D01*
X69382581Y-63246321D01*
X69325276Y-63413588D01*
X69175474Y-63545859D01*
X68966343Y-63628577D01*
X68731053Y-63647190D01*
X68555012Y-63609456D01*
X68384689Y-63518427D01*
X68341032Y-63418509D01*
X68371696Y-63359162D01*
X68461209Y-63306647D01*
X68527186Y-63339886D01*
X68653863Y-63388675D01*
X68824179Y-63392842D01*
X68988722Y-63359156D01*
X69098085Y-63294385D01*
X69115730Y-63259264D01*
X69086089Y-63165075D01*
X68957111Y-63113685D01*
X68657232Y-63037403D01*
X68470001Y-62946973D01*
X68380758Y-62829790D01*
X68374842Y-62673250D01*
X68385680Y-62622395D01*
X68486076Y-62461939D01*
X68671871Y-62361522D01*
X68910091Y-62334302D01*
X69053692Y-62355834D01*
G37*
G36*
X57007099Y-62384042D02*
G01*
X57117588Y-62452226D01*
X57117168Y-62517424D01*
X57021798Y-62565947D01*
X56847436Y-62584105D01*
X56777211Y-62581241D01*
X56592292Y-62585002D01*
X56499266Y-62636639D01*
X56483613Y-62666011D01*
X56463315Y-62758116D01*
X56508192Y-62813886D01*
X56642824Y-62851887D01*
X56754267Y-62870454D01*
X57006749Y-62946945D01*
X57166388Y-63073275D01*
X57224447Y-63230548D01*
X57172190Y-63399868D01*
X57055951Y-63522920D01*
X56827060Y-63628541D01*
X56554196Y-63642411D01*
X56354885Y-63591626D01*
X56205484Y-63501916D01*
X56180495Y-63405462D01*
X56232000Y-63340685D01*
X56326201Y-63302695D01*
X56362375Y-63333472D01*
X56457504Y-63386759D01*
X56617080Y-63402835D01*
X56787660Y-63384908D01*
X56915800Y-63336184D01*
X56948492Y-63298309D01*
X56938147Y-63184541D01*
X56822844Y-63107945D01*
X56649001Y-63082902D01*
X56428227Y-63035326D01*
X56279144Y-62914796D01*
X56215521Y-62750029D01*
X56251130Y-62569738D01*
X56344459Y-62447815D01*
X56552511Y-62337662D01*
X56816421Y-62331673D01*
X57007099Y-62384042D01*
G37*
G36*
X66355875Y-62340885D02*
G01*
X66510455Y-62378635D01*
X66628054Y-62459534D01*
X66629323Y-62460719D01*
X66700787Y-62542036D01*
X66743787Y-62642825D01*
X66765288Y-62795610D01*
X66772257Y-63032914D01*
X66772556Y-63129521D01*
X66769808Y-63390924D01*
X66758173Y-63548510D01*
X66732564Y-63625725D01*
X66687894Y-63646014D01*
X66661152Y-63642998D01*
X66602736Y-63610537D01*
X66563589Y-63523306D01*
X66536982Y-63356405D01*
X66517919Y-63113142D01*
X66500408Y-62860734D01*
X66479511Y-62708399D01*
X66444217Y-62629123D01*
X66383513Y-62595890D01*
X66302020Y-62583471D01*
X66168820Y-62585396D01*
X66082657Y-62641077D01*
X66033900Y-62770603D01*
X66012918Y-62994063D01*
X66009621Y-63193330D01*
X66005888Y-63432546D01*
X65990984Y-63571287D01*
X65957462Y-63636341D01*
X65897877Y-63654497D01*
X65881328Y-63654859D01*
X65824066Y-63646336D01*
X65787122Y-63605617D01*
X65766081Y-63509977D01*
X65756527Y-63336690D01*
X65754046Y-63063031D01*
X65754010Y-62999525D01*
X65754010Y-62344190D01*
X66120050Y-62335390D01*
X66355875Y-62340885D01*
G37*
G36*
X49648245Y-62504447D02*
G01*
X49654746Y-62862427D01*
X49679532Y-63112054D01*
X49730530Y-63271874D01*
X49815666Y-63360429D01*
X49942868Y-63396264D01*
X50031137Y-63400223D01*
X50183419Y-63376493D01*
X50291023Y-63294461D01*
X50360562Y-63137859D01*
X50398649Y-62890420D01*
X50411897Y-62535876D01*
X50412155Y-62463000D01*
X50413816Y-62168547D01*
X50421749Y-61978656D01*
X50440381Y-61870583D01*
X50474136Y-61821586D01*
X50527441Y-61808920D01*
X50539473Y-61808744D01*
X50596377Y-61817157D01*
X50633238Y-61857435D01*
X50654375Y-61952136D01*
X50664101Y-62123819D01*
X50666735Y-62395042D01*
X50666792Y-62474170D01*
X50657939Y-62858979D01*
X50627068Y-63138942D01*
X50567715Y-63335580D01*
X50473412Y-63470411D01*
X50339264Y-63564145D01*
X50056973Y-63650742D01*
X49791280Y-63611321D01*
X49574124Y-63473078D01*
X49487197Y-63391745D01*
X49428462Y-63314403D01*
X49391184Y-63214227D01*
X49368624Y-63064390D01*
X49354045Y-62838064D01*
X49342302Y-62550021D01*
X49313928Y-61808744D01*
X49481087Y-61808744D01*
X49648245Y-61808744D01*
X49648245Y-62504447D01*
G37*
G36*
X68034380Y-61814441D02*
G01*
X68069109Y-61844481D01*
X68090400Y-61918289D01*
X68100639Y-62055287D01*
X68102213Y-62274899D01*
X68097507Y-62596549D01*
X68095231Y-62715628D01*
X68077568Y-63622512D01*
X67711697Y-63638854D01*
X67479406Y-63638935D01*
X67331207Y-63607406D01*
X67225887Y-63535215D01*
X67221890Y-63531261D01*
X67106952Y-63344309D01*
X67052323Y-63101228D01*
X67053773Y-62986438D01*
X67281829Y-62986438D01*
X67320832Y-63214616D01*
X67429315Y-63358306D01*
X67568295Y-63400223D01*
X67718797Y-63351679D01*
X67788863Y-63277089D01*
X67854094Y-63067787D01*
X67844633Y-62859793D01*
X67771314Y-62687720D01*
X67644977Y-62586178D01*
X67568295Y-62572654D01*
X67410326Y-62628991D01*
X67310848Y-62785689D01*
X67281829Y-62986438D01*
X67053773Y-62986438D01*
X67055610Y-62841009D01*
X67114418Y-62602642D01*
X67226356Y-62425119D01*
X67292804Y-62375802D01*
X67448922Y-62335568D01*
X67638312Y-62338552D01*
X67640685Y-62338932D01*
X67854761Y-62373672D01*
X67854761Y-62091208D01*
X67863209Y-61913939D01*
X67898518Y-61830716D01*
X67975636Y-61808825D01*
X67983828Y-61808744D01*
X68034380Y-61814441D01*
G37*
G36*
X54689525Y-62375414D02*
G01*
X54860797Y-62522987D01*
X54971801Y-62723811D01*
X54995614Y-62867801D01*
X54995614Y-63081927D01*
X54581829Y-63081927D01*
X54371084Y-63086982D01*
X54222046Y-63100207D01*
X54168045Y-63117941D01*
X54194780Y-63196814D01*
X54233944Y-63277089D01*
X54341984Y-63363107D01*
X54511543Y-63401648D01*
X54683731Y-63386608D01*
X54781870Y-63333865D01*
X54866352Y-63310442D01*
X54924955Y-63359960D01*
X54960963Y-63442630D01*
X54898382Y-63523126D01*
X54857166Y-63553635D01*
X54637159Y-63640332D01*
X54389757Y-63639756D01*
X54187081Y-63559173D01*
X54024058Y-63380334D01*
X53944669Y-63153558D01*
X53941750Y-62908014D01*
X53971278Y-62803432D01*
X54199936Y-62803432D01*
X54252210Y-62865376D01*
X54408568Y-62889332D01*
X54496950Y-62890949D01*
X54674793Y-62870742D01*
X54740794Y-62812416D01*
X54740977Y-62808192D01*
X54688797Y-62674406D01*
X54563165Y-62594391D01*
X54410442Y-62578856D01*
X54276992Y-62638510D01*
X54236183Y-62691602D01*
X54199936Y-62803432D01*
X53971278Y-62803432D01*
X54008141Y-62672873D01*
X54136678Y-62477306D01*
X54320199Y-62350481D01*
X54491824Y-62318017D01*
X54689525Y-62375414D01*
G37*
G36*
X70343112Y-56736719D02*
G01*
X70400725Y-56802804D01*
X70401127Y-56811501D01*
X70421161Y-56889262D01*
X70496494Y-56890362D01*
X70649974Y-56814803D01*
X70655764Y-56811501D01*
X70907371Y-56729932D01*
X71202862Y-56724602D01*
X71486349Y-56792662D01*
X71617152Y-56860514D01*
X71771212Y-56978201D01*
X71885091Y-57109748D01*
X71964601Y-57275791D01*
X72015557Y-57496966D01*
X72043770Y-57793908D01*
X72055055Y-58187255D01*
X72056166Y-58418894D01*
X72056265Y-59389696D01*
X71833458Y-59389696D01*
X71610651Y-59389696D01*
X71610651Y-58577622D01*
X71603428Y-58111832D01*
X71577579Y-57758220D01*
X71526837Y-57502245D01*
X71444933Y-57329367D01*
X71325598Y-57225046D01*
X71162565Y-57174742D01*
X71001071Y-57163651D01*
X70786230Y-57189210D01*
X70626769Y-57286441D01*
X70587287Y-57325787D01*
X70527431Y-57396024D01*
X70484734Y-57473645D01*
X70455632Y-57581187D01*
X70436564Y-57741189D01*
X70423968Y-57976187D01*
X70414280Y-58308720D01*
X70411204Y-58439822D01*
X70389450Y-59389696D01*
X70172482Y-59389696D01*
X69955513Y-59389696D01*
X69955513Y-58052854D01*
X69955513Y-56716012D01*
X70178320Y-56716012D01*
X70343112Y-56736719D01*
G37*
G36*
X52644741Y-56736121D02*
G01*
X52703167Y-56801194D01*
X52703884Y-56813135D01*
X52716653Y-56872612D01*
X52777302Y-56867823D01*
X52891700Y-56813135D01*
X53153378Y-56733581D01*
X53458746Y-56721564D01*
X53748870Y-56775461D01*
X53894403Y-56840753D01*
X54044438Y-56946394D01*
X54155554Y-57067707D01*
X54233409Y-57224768D01*
X54283661Y-57437650D01*
X54311967Y-57726431D01*
X54323984Y-58111184D01*
X54325701Y-58371150D01*
X54327193Y-59357867D01*
X54088471Y-59377624D01*
X53849749Y-59397382D01*
X53849749Y-58447237D01*
X53848317Y-58074878D01*
X53842238Y-57807163D01*
X53828838Y-57621433D01*
X53805443Y-57495029D01*
X53769377Y-57405290D01*
X53717967Y-57329558D01*
X53717810Y-57329359D01*
X53598370Y-57215529D01*
X53445911Y-57167992D01*
X53311078Y-57161626D01*
X53041430Y-57201703D01*
X52885999Y-57283177D01*
X52828954Y-57334997D01*
X52787958Y-57397467D01*
X52759792Y-57491588D01*
X52741241Y-57638361D01*
X52729086Y-57858786D01*
X52720109Y-58173864D01*
X52715318Y-58397212D01*
X52694922Y-59389696D01*
X52476596Y-59389696D01*
X52258270Y-59389696D01*
X52258270Y-58052854D01*
X52258270Y-56716012D01*
X52481077Y-56716012D01*
X52644741Y-56736121D01*
G37*
G36*
X59139102Y-56736719D02*
G01*
X59196715Y-56802804D01*
X59197117Y-56811501D01*
X59217151Y-56889262D01*
X59292483Y-56890362D01*
X59445964Y-56814803D01*
X59451754Y-56811501D01*
X59703361Y-56729932D01*
X59998852Y-56724602D01*
X60282339Y-56792662D01*
X60413142Y-56860514D01*
X60566950Y-56977940D01*
X60680708Y-57109111D01*
X60760202Y-57274622D01*
X60811220Y-57495065D01*
X60839548Y-57791033D01*
X60850973Y-58183121D01*
X60852156Y-58422737D01*
X60852255Y-59397382D01*
X60613533Y-59377624D01*
X60374812Y-59357867D01*
X60357116Y-58405187D01*
X60348857Y-58033548D01*
X60338041Y-57767128D01*
X60321564Y-57583831D01*
X60296319Y-57461558D01*
X60259202Y-57378213D01*
X60207107Y-57311698D01*
X60202787Y-57307067D01*
X60009334Y-57185765D01*
X59772940Y-57155020D01*
X59539098Y-57213791D01*
X59383277Y-57325787D01*
X59323421Y-57396024D01*
X59280724Y-57473645D01*
X59251622Y-57581187D01*
X59232554Y-57741189D01*
X59219958Y-57976187D01*
X59210270Y-58308720D01*
X59207194Y-58439822D01*
X59185440Y-59389696D01*
X58968472Y-59389696D01*
X58751503Y-59389696D01*
X58751503Y-58052854D01*
X58751503Y-56716012D01*
X58974310Y-56716012D01*
X59139102Y-56736719D01*
G37*
G36*
X62823219Y-56773382D02*
G01*
X63114347Y-56936219D01*
X63336680Y-57190611D01*
X63477954Y-57522651D01*
X63525939Y-57907195D01*
X63525939Y-58243832D01*
X62698370Y-58243832D01*
X61870802Y-58243832D01*
X61870802Y-58398095D01*
X61910931Y-58546396D01*
X62010012Y-58715930D01*
X62035608Y-58748220D01*
X62155511Y-58869325D01*
X62282109Y-58927150D01*
X62469881Y-58943763D01*
X62519140Y-58944082D01*
X62812216Y-58910588D01*
X63028673Y-58808215D01*
X63219481Y-58672347D01*
X63380873Y-58833739D01*
X63542265Y-58995131D01*
X63270586Y-59174920D01*
X62970608Y-59316846D01*
X62634407Y-59385878D01*
X62302421Y-59379729D01*
X62015089Y-59296109D01*
X61935976Y-59250456D01*
X61643920Y-58980333D01*
X61457923Y-58640224D01*
X61393263Y-58370459D01*
X61374718Y-57912287D01*
X61421210Y-57653234D01*
X61870802Y-57653234D01*
X61876692Y-57720128D01*
X61910149Y-57762457D01*
X61994853Y-57785835D01*
X62154486Y-57795874D01*
X62412727Y-57798188D01*
X62482465Y-57798218D01*
X63094128Y-57798218D01*
X63050437Y-57623155D01*
X62932195Y-57367383D01*
X62740394Y-57199150D01*
X62498640Y-57132425D01*
X62275614Y-57164587D01*
X62048255Y-57291786D01*
X61906765Y-57481527D01*
X61870802Y-57653234D01*
X61421210Y-57653234D01*
X61446694Y-57511237D01*
X61601411Y-57179196D01*
X61831092Y-56928057D01*
X62127959Y-56769709D01*
X62475563Y-56716012D01*
X62823219Y-56773382D01*
G37*
G36*
X65441856Y-56774075D02*
G01*
X65726712Y-56938069D01*
X65946173Y-57192700D01*
X66087000Y-57522675D01*
X66135964Y-57907195D01*
X66135964Y-58243832D01*
X65308396Y-58243832D01*
X64480827Y-58243832D01*
X64480827Y-58398095D01*
X64520956Y-58546396D01*
X64620037Y-58715930D01*
X64645633Y-58748220D01*
X64760961Y-58866144D01*
X64881320Y-58924396D01*
X65058234Y-58943130D01*
X65146322Y-58944082D01*
X65408335Y-58922385D01*
X65597147Y-58848734D01*
X65655448Y-58807808D01*
X65828693Y-58671533D01*
X65990491Y-58833332D01*
X66152290Y-58995131D01*
X65880611Y-59174920D01*
X65604597Y-59305141D01*
X65284720Y-59376253D01*
X64963887Y-59384967D01*
X64685004Y-59327995D01*
X64576315Y-59274882D01*
X64279590Y-59013948D01*
X64080532Y-58673961D01*
X63982164Y-58261027D01*
X63971553Y-58052854D01*
X64016054Y-57653234D01*
X64480827Y-57653234D01*
X64486717Y-57720128D01*
X64520174Y-57762457D01*
X64604878Y-57785835D01*
X64764511Y-57795874D01*
X65022752Y-57798188D01*
X65092490Y-57798218D01*
X65704153Y-57798218D01*
X65660462Y-57623155D01*
X65542220Y-57367383D01*
X65350419Y-57199150D01*
X65108665Y-57132425D01*
X64885639Y-57164587D01*
X64658280Y-57291786D01*
X64516790Y-57481527D01*
X64480827Y-57653234D01*
X64016054Y-57653234D01*
X64019473Y-57622530D01*
X64157124Y-57263180D01*
X64375349Y-56985609D01*
X64664988Y-56800621D01*
X65016883Y-56719020D01*
X65104843Y-56716012D01*
X65441856Y-56774075D01*
G37*
G36*
X64968257Y-61829546D02*
G01*
X64990100Y-61856796D01*
X64974659Y-61943318D01*
X64933149Y-62121476D01*
X64872790Y-62363920D01*
X64800801Y-62643300D01*
X64724400Y-62932267D01*
X64650807Y-63203472D01*
X64587242Y-63429565D01*
X64540923Y-63583198D01*
X64520293Y-63636612D01*
X64434397Y-63655502D01*
X64341711Y-63549120D01*
X64243357Y-63319267D01*
X64168076Y-63072528D01*
X64079195Y-62756277D01*
X64013591Y-62554700D01*
X63964070Y-62458855D01*
X63923434Y-62459798D01*
X63884487Y-62548585D01*
X63849704Y-62676876D01*
X63748336Y-63069127D01*
X63665841Y-63349665D01*
X63597275Y-63531847D01*
X63537691Y-63629029D01*
X63487595Y-63654859D01*
X63385051Y-63603506D01*
X63358626Y-63561046D01*
X63304764Y-63397054D01*
X63239954Y-63164523D01*
X63170249Y-62890098D01*
X63101701Y-62600424D01*
X63040361Y-62322146D01*
X62992282Y-62081910D01*
X62963516Y-61906360D01*
X62960115Y-61822141D01*
X62962863Y-61818654D01*
X63056745Y-61813248D01*
X63137670Y-61884414D01*
X63213578Y-62046443D01*
X63292412Y-62313625D01*
X63334589Y-62487583D01*
X63479770Y-63113756D01*
X63560584Y-62827290D01*
X63625771Y-62596177D01*
X63703031Y-62322202D01*
X63744595Y-62174784D01*
X63820310Y-61950478D01*
X63893938Y-61834930D01*
X63958647Y-61808744D01*
X64022260Y-61838408D01*
X64084216Y-61940054D01*
X64153428Y-62132660D01*
X64220221Y-62365761D01*
X64291563Y-62617875D01*
X64355236Y-62822293D01*
X64401406Y-62948279D01*
X64414035Y-62971407D01*
X64446736Y-62937613D01*
X64495801Y-62804956D01*
X64552191Y-62599334D01*
X64569527Y-62525793D01*
X64639976Y-62218931D01*
X64690956Y-62015130D01*
X64731218Y-61893300D01*
X64769514Y-61832352D01*
X64814595Y-61811195D01*
X64867071Y-61808744D01*
X64968257Y-61829546D01*
G37*
G36*
X74666290Y-58214047D02*
G01*
X74664717Y-58742311D01*
X74657880Y-59159724D01*
X74642602Y-59482735D01*
X74615708Y-59727795D01*
X74574020Y-59911351D01*
X74514362Y-60049855D01*
X74433557Y-60159756D01*
X74328430Y-60257504D01*
X74261521Y-60310194D01*
X73973155Y-60457529D01*
X73630887Y-60521175D01*
X73280087Y-60497163D01*
X73034921Y-60417488D01*
X72826501Y-60304954D01*
X72731262Y-60206209D01*
X72739483Y-60101797D01*
X72822383Y-59992108D01*
X72965248Y-59840035D01*
X73124103Y-59964991D01*
X73350542Y-60070106D01*
X73617700Y-60089497D01*
X73873373Y-60024473D01*
X74002495Y-59942968D01*
X74116508Y-59812688D01*
X74179713Y-59640901D01*
X74205816Y-59458295D01*
X74238264Y-59120600D01*
X74086237Y-59218609D01*
X73783955Y-59344786D01*
X73467557Y-59360302D01*
X73166251Y-59272779D01*
X72909249Y-59089841D01*
X72749927Y-58869870D01*
X72652206Y-58585338D01*
X72601892Y-58233524D01*
X72598844Y-57858847D01*
X72600773Y-57843391D01*
X73081828Y-57843391D01*
X73086109Y-58188766D01*
X73105693Y-58436064D01*
X73138614Y-58594602D01*
X73197749Y-58702936D01*
X73287768Y-58792609D01*
X73520949Y-58921406D01*
X73768041Y-58928974D01*
X73911955Y-58875299D01*
X74055580Y-58732179D01*
X74157249Y-58497044D01*
X74211585Y-58199830D01*
X74213211Y-57870470D01*
X74156751Y-57538901D01*
X74153877Y-57528415D01*
X74058552Y-57318709D01*
X73901728Y-57202219D01*
X73658904Y-57162108D01*
X73620099Y-57161626D01*
X73389664Y-57199608D01*
X73226349Y-57319724D01*
X73125342Y-57531233D01*
X73081828Y-57843391D01*
X72600773Y-57843391D01*
X72642918Y-57505726D01*
X72733971Y-57218581D01*
X72755368Y-57177278D01*
X72902266Y-56978930D01*
X73074972Y-56833162D01*
X73110773Y-56813807D01*
X73393246Y-56733133D01*
X73705593Y-56725751D01*
X73986811Y-56791706D01*
X74032860Y-56813135D01*
X74160645Y-56872612D01*
X74212032Y-56867823D01*
X74220676Y-56813135D01*
X74266808Y-56741793D01*
X74416089Y-56716325D01*
X74443483Y-56716012D01*
X74666290Y-56716012D01*
X74666290Y-58214047D01*
G37*
G36*
X56969047Y-58198513D02*
G01*
X56968466Y-58673447D01*
X56965732Y-59039421D01*
X56959355Y-59314791D01*
X56947848Y-59517915D01*
X56929722Y-59667148D01*
X56903489Y-59780847D01*
X56867660Y-59877370D01*
X56825814Y-59965055D01*
X56622612Y-60234130D01*
X56337833Y-60421860D01*
X55994663Y-60519250D01*
X55616290Y-60517305D01*
X55473057Y-60489861D01*
X55341154Y-60432295D01*
X55173972Y-60328417D01*
X55134155Y-60299450D01*
X54922572Y-60139970D01*
X55064688Y-59988694D01*
X55206804Y-59837418D01*
X55411104Y-59963683D01*
X55651307Y-60059106D01*
X55918239Y-60085405D01*
X56159426Y-60040779D01*
X56252158Y-59992581D01*
X56368244Y-59852534D01*
X56462671Y-59634057D01*
X56516816Y-59385999D01*
X56523078Y-59281872D01*
X56523433Y-59142219D01*
X56232687Y-59270830D01*
X55892239Y-59364099D01*
X55576969Y-59334407D01*
X55293926Y-59182883D01*
X55209731Y-59107272D01*
X55022813Y-58848042D01*
X54912609Y-58514300D01*
X54876381Y-58101654D01*
X55347143Y-58101654D01*
X55371550Y-58384938D01*
X55429844Y-58602165D01*
X55578205Y-58814060D01*
X55788081Y-58921624D01*
X56037792Y-58916907D01*
X56166010Y-58872165D01*
X56333792Y-58728393D01*
X56440241Y-58476801D01*
X56486073Y-58115389D01*
X56488029Y-57973161D01*
X56463103Y-57634498D01*
X56387902Y-57402368D01*
X56251893Y-57262348D01*
X56044546Y-57200017D01*
X55918671Y-57193456D01*
X55716478Y-57205773D01*
X55589180Y-57256339D01*
X55485611Y-57365575D01*
X55484849Y-57366594D01*
X55405786Y-57547706D01*
X55359220Y-57807651D01*
X55347143Y-58101654D01*
X54876381Y-58101654D01*
X54875588Y-58092621D01*
X54882369Y-57861877D01*
X54932140Y-57461890D01*
X55033275Y-57162824D01*
X55194115Y-56945771D01*
X55332915Y-56840753D01*
X55544843Y-56757518D01*
X55803030Y-56719021D01*
X56058063Y-56726855D01*
X56260531Y-56782610D01*
X56304374Y-56809476D01*
X56442096Y-56893795D01*
X56510489Y-56880101D01*
X56523433Y-56811501D01*
X56571749Y-56740876D01*
X56725948Y-56716185D01*
X56746240Y-56716012D01*
X56969047Y-56716012D01*
X56969047Y-58198513D01*
G37*
G36*
X41864707Y-53431222D02*
G01*
X41865888Y-53432235D01*
X41870017Y-53506458D01*
X41852161Y-53678982D01*
X41815714Y-53923346D01*
X41769178Y-54186243D01*
X41711704Y-54490504D01*
X41637721Y-54882431D01*
X41554297Y-55324572D01*
X41468499Y-55779475D01*
X41405947Y-56111250D01*
X41331844Y-56496120D01*
X41261820Y-56844641D01*
X41200526Y-57134828D01*
X41152611Y-57344694D01*
X41122726Y-57452253D01*
X41121910Y-57454262D01*
X41067249Y-57529837D01*
X40959948Y-57583247D01*
X40771311Y-57625407D01*
X40608066Y-57649720D01*
X40339211Y-57678317D01*
X40182212Y-57675048D01*
X40126645Y-57643551D01*
X40100004Y-57533820D01*
X40059150Y-57324146D01*
X40007032Y-57033242D01*
X39946604Y-56679820D01*
X39880816Y-56282593D01*
X39812620Y-55860274D01*
X39744966Y-55431574D01*
X39680807Y-55015207D01*
X39650249Y-54811188D01*
X39854293Y-54811188D01*
X39874967Y-54987407D01*
X39912835Y-55069169D01*
X39982023Y-55154449D01*
X40061535Y-55129242D01*
X40071983Y-55120849D01*
X40186908Y-55086954D01*
X40288636Y-55154257D01*
X40348339Y-55297601D01*
X40354010Y-55366947D01*
X40397019Y-55530553D01*
X40492760Y-55677805D01*
X40631510Y-55825498D01*
X40779226Y-55686726D01*
X40890200Y-55526065D01*
X40926942Y-55375868D01*
X40962090Y-55205854D01*
X41049445Y-55103323D01*
X41161869Y-55092812D01*
X41208969Y-55120849D01*
X41302372Y-55144309D01*
X41375447Y-55075274D01*
X41411369Y-54948521D01*
X41393315Y-54798824D01*
X41380470Y-54766356D01*
X41287341Y-54641623D01*
X41161632Y-54629992D01*
X41008620Y-54711659D01*
X40916534Y-54768838D01*
X40887480Y-54744239D01*
X40902007Y-54617003D01*
X40904717Y-54600235D01*
X40898836Y-54396179D01*
X40797697Y-54213485D01*
X40656953Y-54034558D01*
X40500325Y-54181676D01*
X40387263Y-54329572D01*
X40361887Y-54508542D01*
X40365328Y-54555742D01*
X40386958Y-54782690D01*
X40217949Y-54685692D01*
X40083109Y-54625271D01*
X39989157Y-54642631D01*
X39946838Y-54673431D01*
X39854293Y-54811188D01*
X39650249Y-54811188D01*
X39623094Y-54629884D01*
X39574778Y-54294320D01*
X39538811Y-54027225D01*
X39518144Y-53847313D01*
X39515728Y-53773295D01*
X39516127Y-53772723D01*
X39602901Y-53737700D01*
X39788658Y-53693296D01*
X40048620Y-53643103D01*
X40358009Y-53590710D01*
X40692045Y-53539707D01*
X41025952Y-53493686D01*
X41334949Y-53456236D01*
X41594260Y-53430949D01*
X41779106Y-53421414D01*
X41864707Y-53431222D01*
G37*
G36*
X43045995Y-53426728D02*
G01*
X43290794Y-53452517D01*
X43584836Y-53487616D01*
X43902578Y-53528743D01*
X44218479Y-53572619D01*
X44506995Y-53615963D01*
X44742585Y-53655495D01*
X44873809Y-53681718D01*
X45100327Y-53748677D01*
X45204866Y-53819223D01*
X45213396Y-53854260D01*
X45192457Y-54008141D01*
X45154924Y-54253911D01*
X45103989Y-54572853D01*
X45042846Y-54946251D01*
X44974689Y-55355389D01*
X44902713Y-55781548D01*
X44830110Y-56206013D01*
X44760075Y-56610067D01*
X44695802Y-56974993D01*
X44640483Y-57282074D01*
X44597314Y-57512594D01*
X44569487Y-57647835D01*
X44561321Y-57675647D01*
X44484033Y-57684700D01*
X44317455Y-57673349D01*
X44097547Y-57644055D01*
X44096061Y-57643817D01*
X43871243Y-57600295D01*
X43696319Y-57552521D01*
X43610546Y-57511751D01*
X43582369Y-57433043D01*
X43535552Y-57247895D01*
X43474249Y-56975131D01*
X43402611Y-56633572D01*
X43324792Y-56242042D01*
X43287542Y-56047591D01*
X43201871Y-55595925D01*
X43115984Y-55144736D01*
X43035517Y-54723508D01*
X43016023Y-54621909D01*
X43259538Y-54621909D01*
X43313810Y-54741902D01*
X43409647Y-54879965D01*
X43505009Y-54956527D01*
X43567112Y-54995937D01*
X43562010Y-55068492D01*
X43509368Y-55180011D01*
X43450820Y-55307817D01*
X43467902Y-55366002D01*
X43575549Y-55396863D01*
X43586716Y-55399064D01*
X43734815Y-55404843D01*
X43820250Y-55374273D01*
X43911846Y-55318720D01*
X43964320Y-55375036D01*
X43982468Y-55549003D01*
X43982581Y-55570147D01*
X43996700Y-55729601D01*
X44031970Y-55818291D01*
X44046240Y-55824784D01*
X44086104Y-55768309D01*
X44108276Y-55627227D01*
X44109899Y-55570147D01*
X44128592Y-55396076D01*
X44177013Y-55314995D01*
X44243678Y-55342078D01*
X44262487Y-55368556D01*
X44341927Y-55397742D01*
X44486935Y-55393471D01*
X44487098Y-55393447D01*
X44614825Y-55367629D01*
X44643793Y-55316412D01*
X44592624Y-55198436D01*
X44583163Y-55180110D01*
X44524331Y-55050078D01*
X44532016Y-54987128D01*
X44587471Y-54956527D01*
X44686994Y-54875295D01*
X44778670Y-54741902D01*
X44833813Y-54618089D01*
X44809927Y-54562045D01*
X44696742Y-54531706D01*
X44548643Y-54525928D01*
X44463208Y-54556498D01*
X44345248Y-54614686D01*
X44257859Y-54564263D01*
X44235193Y-54472027D01*
X44195024Y-54304522D01*
X44141694Y-54207944D01*
X44038671Y-54135265D01*
X43943958Y-54171887D01*
X43876655Y-54300253D01*
X43855263Y-54471228D01*
X43850071Y-54616352D01*
X43817422Y-54656129D01*
X43731706Y-54612518D01*
X43708279Y-54597254D01*
X43525177Y-54532770D01*
X43391988Y-54533312D01*
X43278880Y-54564103D01*
X43259538Y-54621909D01*
X43016023Y-54621909D01*
X42966102Y-54361726D01*
X42913377Y-54088872D01*
X42904307Y-54042328D01*
X42855777Y-53781866D01*
X42821282Y-53572995D01*
X42805221Y-53443809D01*
X42806296Y-53416196D01*
X42875982Y-53413527D01*
X43045995Y-53426728D01*
G37*
G36*
X42959480Y-59405611D02*
G01*
X43118243Y-60184889D01*
X43253112Y-60848897D01*
X43365714Y-61407095D01*
X43457675Y-61868949D01*
X43530624Y-62243920D01*
X43586187Y-62541471D01*
X43625992Y-62771065D01*
X43651665Y-62942166D01*
X43664834Y-63064235D01*
X43667126Y-63146736D01*
X43660168Y-63199133D01*
X43645588Y-63230886D01*
X43625011Y-63251461D01*
X43621278Y-63254342D01*
X43504048Y-63328170D01*
X43308838Y-63436760D01*
X43070998Y-63562013D01*
X42825879Y-63685831D01*
X42608831Y-63790115D01*
X42455206Y-63856767D01*
X42422932Y-63867864D01*
X42292093Y-63855803D01*
X42071055Y-63776372D01*
X41777623Y-63636495D01*
X41529734Y-63505579D01*
X41311512Y-63385655D01*
X41157865Y-63296082D01*
X41122042Y-63272904D01*
X40984452Y-63177416D01*
X41217623Y-62008581D01*
X41505702Y-62008581D01*
X41539821Y-62248602D01*
X41589974Y-62410426D01*
X41732012Y-62626442D01*
X41924882Y-62740082D01*
X42111770Y-62746687D01*
X42228773Y-62747673D01*
X42263644Y-62826640D01*
X42263784Y-62836118D01*
X42292209Y-62934670D01*
X42327443Y-62954608D01*
X42364017Y-62897411D01*
X42387037Y-62751402D01*
X42391102Y-62641618D01*
X42395337Y-62582788D01*
X42456841Y-62582788D01*
X42484070Y-62669887D01*
X42572243Y-62742492D01*
X42664474Y-62763631D01*
X42812650Y-62718698D01*
X42958229Y-62610663D01*
X42958254Y-62610636D01*
X43097403Y-62387479D01*
X43173080Y-62109934D01*
X43177930Y-61828023D01*
X43107355Y-61596563D01*
X43060514Y-61599619D01*
X42990718Y-61687079D01*
X42917279Y-61823250D01*
X42859512Y-61972438D01*
X42836716Y-62096749D01*
X42783903Y-62273266D01*
X42654130Y-62435786D01*
X42514925Y-62520769D01*
X42456841Y-62582788D01*
X42395337Y-62582788D01*
X42405092Y-62447281D01*
X42441729Y-62325714D01*
X42464621Y-62304121D01*
X42508396Y-62233146D01*
X42553317Y-62070123D01*
X42589866Y-61849876D01*
X42590744Y-61842662D01*
X42647345Y-61528872D01*
X42730830Y-61323431D01*
X42775315Y-61265238D01*
X42860400Y-61164138D01*
X42858104Y-61112914D01*
X42797695Y-61082713D01*
X42672356Y-61078820D01*
X42621342Y-61107427D01*
X42553068Y-61114922D01*
X42468003Y-61006924D01*
X42445798Y-60966281D01*
X42337022Y-60758368D01*
X42251107Y-60959914D01*
X42175534Y-61093960D01*
X42099365Y-61120285D01*
X42068350Y-61107265D01*
X41934431Y-61089237D01*
X41879777Y-61109761D01*
X41829556Y-61164939D01*
X41870350Y-61240050D01*
X41923741Y-61292873D01*
X42018425Y-61431188D01*
X42080825Y-61652273D01*
X42105041Y-61820910D01*
X42138265Y-62043298D01*
X42178906Y-62218602D01*
X42212472Y-62299044D01*
X42256010Y-62425040D01*
X42253126Y-62480180D01*
X42204210Y-62535907D01*
X42116647Y-62503690D01*
X42014004Y-62406668D01*
X41919851Y-62267979D01*
X41857754Y-62110761D01*
X41852663Y-62087020D01*
X41795720Y-61879261D01*
X41718583Y-61714726D01*
X41637325Y-61618075D01*
X41568018Y-61613966D01*
X41554698Y-61629883D01*
X41509883Y-61785128D01*
X41505702Y-62008581D01*
X41217623Y-62008581D01*
X41371783Y-61235811D01*
X41468806Y-60751271D01*
X41559110Y-60303746D01*
X41639378Y-59909396D01*
X41706296Y-59584384D01*
X41756548Y-59344870D01*
X41786819Y-59207016D01*
X41792932Y-59182804D01*
X41827884Y-59127196D01*
X41908523Y-59093494D01*
X42060686Y-59076615D01*
X42310208Y-59071473D01*
X42359049Y-59071400D01*
X42891349Y-59071400D01*
X42959480Y-59405611D01*
G37*
G36*
X43183527Y-52822572D02*
G01*
X44376804Y-52961152D01*
X45528286Y-53219926D01*
X46042818Y-53378960D01*
X46306868Y-53467538D01*
X46520821Y-53538744D01*
X46659430Y-53584213D01*
X46699073Y-53596434D01*
X46730794Y-53655620D01*
X46778865Y-53815953D01*
X46837267Y-54053239D01*
X46899981Y-54343286D01*
X46952552Y-54615260D01*
X47002335Y-54982841D01*
X47038516Y-55445994D01*
X47061091Y-55974287D01*
X47070052Y-56537293D01*
X47065395Y-57104580D01*
X47047114Y-57645720D01*
X47015203Y-58130282D01*
X46969657Y-58527838D01*
X46953297Y-58625786D01*
X46804571Y-59357984D01*
X46643045Y-59990311D01*
X46459398Y-60550169D01*
X46244309Y-61064958D01*
X45988460Y-61562080D01*
X45905243Y-61706963D01*
X45664171Y-62062896D01*
X45343647Y-62457268D01*
X44972049Y-62860820D01*
X44577752Y-63244291D01*
X44189134Y-63578421D01*
X43855263Y-63820792D01*
X43618883Y-63962917D01*
X43343391Y-64113701D01*
X43056238Y-64259876D01*
X42784874Y-64388175D01*
X42556750Y-64485332D01*
X42399316Y-64538079D01*
X42359273Y-64543799D01*
X42270115Y-64520650D01*
X42103421Y-64461314D01*
X41936093Y-64395185D01*
X41132800Y-63996877D01*
X40393739Y-63492557D01*
X39728261Y-62891096D01*
X39145719Y-62201363D01*
X38655464Y-61432230D01*
X38504684Y-61140323D01*
X38168144Y-60349516D01*
X37913184Y-59520932D01*
X37736201Y-58636786D01*
X37633589Y-57679293D01*
X37601711Y-56684182D01*
X37601787Y-56672422D01*
X37836497Y-56672422D01*
X37874121Y-57581861D01*
X37977719Y-58492490D01*
X38142852Y-59364814D01*
X38355998Y-60132117D01*
X38697548Y-60968068D01*
X39145175Y-61746105D01*
X39689109Y-62454828D01*
X40319581Y-63082834D01*
X41026821Y-63618721D01*
X41651878Y-63978750D01*
X41936258Y-64119874D01*
X42142051Y-64207460D01*
X42305469Y-64243029D01*
X42462723Y-64228102D01*
X42650025Y-64164196D01*
X42903587Y-64052834D01*
X42947353Y-64033130D01*
X43614729Y-63669619D01*
X44254775Y-63199169D01*
X44847423Y-62641950D01*
X45372607Y-62018134D01*
X45810257Y-61347892D01*
X46013751Y-60950880D01*
X46315721Y-60175013D01*
X46551485Y-59312447D01*
X46719071Y-58386410D01*
X46816508Y-57420130D01*
X46841823Y-56436834D01*
X46793045Y-55459751D01*
X46668200Y-54512109D01*
X46592876Y-54129694D01*
X46521739Y-53803276D01*
X45904666Y-53607584D01*
X45350206Y-53439613D01*
X44855306Y-53309963D01*
X44390289Y-53214773D01*
X43925479Y-53150185D01*
X43431198Y-53112338D01*
X42877769Y-53097374D01*
X42235517Y-53101432D01*
X42042545Y-53105299D01*
X41519138Y-53119516D01*
X41098165Y-53137590D01*
X40754755Y-53161591D01*
X40464037Y-53193588D01*
X40201140Y-53235648D01*
X40010632Y-53274305D01*
X39564845Y-53379389D01*
X39150761Y-53491234D01*
X38786225Y-53603807D01*
X38489083Y-53711073D01*
X38277181Y-53806999D01*
X38168366Y-53885551D01*
X38159989Y-53900015D01*
X38105907Y-54090824D01*
X38047598Y-54382792D01*
X37989018Y-54750023D01*
X37934121Y-55166622D01*
X37886861Y-55606693D01*
X37869290Y-55803666D01*
X37836497Y-56672422D01*
X37601787Y-56672422D01*
X37605156Y-56151938D01*
X37618853Y-55709873D01*
X37646326Y-55321030D01*
X37691098Y-54948449D01*
X37756695Y-54555169D01*
X37846638Y-54104232D01*
X37848555Y-54095106D01*
X37951204Y-53606781D01*
X38627419Y-53383110D01*
X39191323Y-53206935D01*
X39690987Y-53075934D01*
X40176127Y-52978509D01*
X40672305Y-52906057D01*
X41948634Y-52804201D01*
X43183527Y-52822572D01*
G37*
D13*
%TO.C,C11*%
X45928748Y-103913000D02*
X46451252Y-103913000D01*
X45928748Y-105383000D02*
X46451252Y-105383000D01*
%TO.C,D6*%
X50675200Y-88520000D02*
X50675200Y-91820000D01*
X50675200Y-88520000D02*
X56185200Y-88520000D01*
X50675200Y-91820000D02*
X56185200Y-91820000D01*
%TO.C,C8*%
X31269000Y-96273252D02*
X31269000Y-95750748D01*
X32739000Y-96273252D02*
X32739000Y-95750748D01*
%TO.C,R5*%
X39992936Y-104207000D02*
X40447064Y-104207000D01*
X39992936Y-105677000D02*
X40447064Y-105677000D01*
%TO.C,J3*%
X75858000Y-46412000D02*
G75*
G02*
X64858000Y-46412000I-5500000J0D01*
G01*
X64858000Y-46412000D02*
G75*
G02*
X75858000Y-46412000I5500000J0D01*
G01*
%TO.C,R13*%
X50484264Y-85371000D02*
X50030136Y-85371000D01*
X50484264Y-86841000D02*
X50030136Y-86841000D01*
%TO.C,R12*%
X56697200Y-96765064D02*
X56697200Y-95310936D01*
X58517200Y-96765064D02*
X58517200Y-95310936D01*
%TO.C,C5*%
X133638113Y-83107000D02*
X134138113Y-83107000D01*
X133888113Y-82857000D02*
X133888113Y-83357000D01*
X136442888Y-82002000D02*
X136442888Y-83542000D01*
X136442888Y-85622000D02*
X136442888Y-87162000D01*
X136482888Y-82002000D02*
X136482888Y-83542000D01*
X136482888Y-85622000D02*
X136482888Y-87162000D01*
X136522888Y-82003000D02*
X136522888Y-83542000D01*
X136522888Y-85622000D02*
X136522888Y-87161000D01*
X136562888Y-82004000D02*
X136562888Y-83542000D01*
X136562888Y-85622000D02*
X136562888Y-87160000D01*
X136602888Y-82006000D02*
X136602888Y-83542000D01*
X136602888Y-85622000D02*
X136602888Y-87158000D01*
X136642888Y-82009000D02*
X136642888Y-83542000D01*
X136642888Y-85622000D02*
X136642888Y-87155000D01*
X136682888Y-82013000D02*
X136682888Y-83542000D01*
X136682888Y-85622000D02*
X136682888Y-87151000D01*
X136722888Y-82017000D02*
X136722888Y-83542000D01*
X136722888Y-85622000D02*
X136722888Y-87147000D01*
X136762888Y-82021000D02*
X136762888Y-83542000D01*
X136762888Y-85622000D02*
X136762888Y-87143000D01*
X136802888Y-82026000D02*
X136802888Y-83542000D01*
X136802888Y-85622000D02*
X136802888Y-87138000D01*
X136842888Y-82032000D02*
X136842888Y-83542000D01*
X136842888Y-85622000D02*
X136842888Y-87132000D01*
X136882888Y-82039000D02*
X136882888Y-83542000D01*
X136882888Y-85622000D02*
X136882888Y-87125000D01*
X136922888Y-82046000D02*
X136922888Y-83542000D01*
X136922888Y-85622000D02*
X136922888Y-87118000D01*
X136962888Y-82054000D02*
X136962888Y-83542000D01*
X136962888Y-85622000D02*
X136962888Y-87110000D01*
X137002888Y-82062000D02*
X137002888Y-83542000D01*
X137002888Y-85622000D02*
X137002888Y-87102000D01*
X137042888Y-82071000D02*
X137042888Y-83542000D01*
X137042888Y-85622000D02*
X137042888Y-87093000D01*
X137082888Y-82081000D02*
X137082888Y-83542000D01*
X137082888Y-85622000D02*
X137082888Y-87083000D01*
X137122888Y-82091000D02*
X137122888Y-83542000D01*
X137122888Y-85622000D02*
X137122888Y-87073000D01*
X137163888Y-82102000D02*
X137163888Y-83542000D01*
X137163888Y-85622000D02*
X137163888Y-87062000D01*
X137203888Y-82114000D02*
X137203888Y-83542000D01*
X137203888Y-85622000D02*
X137203888Y-87050000D01*
X137243888Y-82127000D02*
X137243888Y-83542000D01*
X137243888Y-85622000D02*
X137243888Y-87037000D01*
X137283888Y-82140000D02*
X137283888Y-83542000D01*
X137283888Y-85622000D02*
X137283888Y-87024000D01*
X137323888Y-82154000D02*
X137323888Y-83542000D01*
X137323888Y-85622000D02*
X137323888Y-87010000D01*
X137363888Y-82168000D02*
X137363888Y-83542000D01*
X137363888Y-85622000D02*
X137363888Y-86996000D01*
X137403888Y-82184000D02*
X137403888Y-83542000D01*
X137403888Y-85622000D02*
X137403888Y-86980000D01*
X137443888Y-82200000D02*
X137443888Y-83542000D01*
X137443888Y-85622000D02*
X137443888Y-86964000D01*
X137483888Y-82217000D02*
X137483888Y-83542000D01*
X137483888Y-85622000D02*
X137483888Y-86947000D01*
X137523888Y-82234000D02*
X137523888Y-83542000D01*
X137523888Y-85622000D02*
X137523888Y-86930000D01*
X137563888Y-82253000D02*
X137563888Y-83542000D01*
X137563888Y-85622000D02*
X137563888Y-86911000D01*
X137603888Y-82272000D02*
X137603888Y-83542000D01*
X137603888Y-85622000D02*
X137603888Y-86892000D01*
X137643888Y-82292000D02*
X137643888Y-83542000D01*
X137643888Y-85622000D02*
X137643888Y-86872000D01*
X137683888Y-82314000D02*
X137683888Y-83542000D01*
X137683888Y-85622000D02*
X137683888Y-86850000D01*
X137723888Y-82335000D02*
X137723888Y-83542000D01*
X137723888Y-85622000D02*
X137723888Y-86829000D01*
X137763888Y-82358000D02*
X137763888Y-83542000D01*
X137763888Y-85622000D02*
X137763888Y-86806000D01*
X137803888Y-82382000D02*
X137803888Y-83542000D01*
X137803888Y-85622000D02*
X137803888Y-86782000D01*
X137843888Y-82407000D02*
X137843888Y-83542000D01*
X137843888Y-85622000D02*
X137843888Y-86757000D01*
X137883888Y-82433000D02*
X137883888Y-83542000D01*
X137883888Y-85622000D02*
X137883888Y-86731000D01*
X137923888Y-82460000D02*
X137923888Y-83542000D01*
X137923888Y-85622000D02*
X137923888Y-86704000D01*
X137963888Y-82487000D02*
X137963888Y-83542000D01*
X137963888Y-85622000D02*
X137963888Y-86677000D01*
X138003888Y-82517000D02*
X138003888Y-83542000D01*
X138003888Y-85622000D02*
X138003888Y-86647000D01*
X138043888Y-82547000D02*
X138043888Y-83542000D01*
X138043888Y-85622000D02*
X138043888Y-86617000D01*
X138083888Y-82578000D02*
X138083888Y-83542000D01*
X138083888Y-85622000D02*
X138083888Y-86586000D01*
X138123888Y-82611000D02*
X138123888Y-83542000D01*
X138123888Y-85622000D02*
X138123888Y-86553000D01*
X138163888Y-82645000D02*
X138163888Y-83542000D01*
X138163888Y-85622000D02*
X138163888Y-86519000D01*
X138203888Y-82681000D02*
X138203888Y-83542000D01*
X138203888Y-85622000D02*
X138203888Y-86483000D01*
X138243888Y-82718000D02*
X138243888Y-83542000D01*
X138243888Y-85622000D02*
X138243888Y-86446000D01*
X138283888Y-82756000D02*
X138283888Y-83542000D01*
X138283888Y-85622000D02*
X138283888Y-86408000D01*
X138323888Y-82797000D02*
X138323888Y-83542000D01*
X138323888Y-85622000D02*
X138323888Y-86367000D01*
X138363888Y-82839000D02*
X138363888Y-83542000D01*
X138363888Y-85622000D02*
X138363888Y-86325000D01*
X138403888Y-82883000D02*
X138403888Y-83542000D01*
X138403888Y-85622000D02*
X138403888Y-86281000D01*
X138443888Y-82929000D02*
X138443888Y-83542000D01*
X138443888Y-85622000D02*
X138443888Y-86235000D01*
X138483888Y-82977000D02*
X138483888Y-86187000D01*
X138523888Y-83028000D02*
X138523888Y-86136000D01*
X138563888Y-83082000D02*
X138563888Y-86082000D01*
X138603888Y-83139000D02*
X138603888Y-86025000D01*
X138643888Y-83199000D02*
X138643888Y-85965000D01*
X138683888Y-83263000D02*
X138683888Y-85901000D01*
X138723888Y-83331000D02*
X138723888Y-85833000D01*
X138763888Y-83404000D02*
X138763888Y-85760000D01*
X138803888Y-83484000D02*
X138803888Y-85680000D01*
X138843888Y-83571000D02*
X138843888Y-85593000D01*
X138883888Y-83667000D02*
X138883888Y-85497000D01*
X138923888Y-83777000D02*
X138923888Y-85387000D01*
X138963888Y-83905000D02*
X138963888Y-85259000D01*
X139003888Y-84064000D02*
X139003888Y-85100000D01*
X139043888Y-84298000D02*
X139043888Y-84866000D01*
X139062888Y-84582000D02*
G75*
G02*
X133822888Y-84582000I-2620000J0D01*
G01*
X133822888Y-84582000D02*
G75*
G02*
X139062888Y-84582000I2620000J0D01*
G01*
%TO.C,R10*%
X53316200Y-95597064D02*
X53316200Y-95142936D01*
X54786200Y-95597064D02*
X54786200Y-95142936D01*
%TO.C,D2*%
X38852500Y-107263000D02*
X38852500Y-108733000D01*
X38852500Y-108733000D02*
X41312500Y-108733000D01*
X41312500Y-107263000D02*
X38852500Y-107263000D01*
%TO.C,L1*%
X104467000Y-98806000D02*
G75*
G02*
X100257000Y-98806000I-2105000J0D01*
G01*
X100257000Y-98806000D02*
G75*
G02*
X104467000Y-98806000I2105000J0D01*
G01*
X122802000Y-98806000D02*
G75*
G02*
X81922000Y-98806000I-20440000J0D01*
G01*
X81922000Y-98806000D02*
G75*
G02*
X122802000Y-98806000I20440000J0D01*
G01*
%TO.C,R4*%
X136895064Y-96801000D02*
X136440936Y-96801000D01*
X136895064Y-98271000D02*
X136440936Y-98271000D01*
%TO.C,D7*%
X53520200Y-85371000D02*
X53520200Y-86841000D01*
X53520200Y-86841000D02*
X55980200Y-86841000D01*
X55980200Y-85371000D02*
X53520200Y-85371000D01*
%TO.C,R11*%
X50014200Y-95597064D02*
X50014200Y-95142936D01*
X51484200Y-95597064D02*
X51484200Y-95142936D01*
D15*
%TO.C,U2*%
X21336000Y-120904000D02*
X151130000Y-120904000D01*
X21336000Y-179324000D02*
X21336000Y-120904000D01*
X151130000Y-120904000D02*
X151130000Y-179324000D01*
X151130000Y-179324000D02*
X21336000Y-179324000D01*
D13*
%TO.C,C9*%
X28192000Y-93071733D02*
X28192000Y-93364267D01*
X29212000Y-93071733D02*
X29212000Y-93364267D01*
%TO.C,L2*%
X104467000Y-55372000D02*
G75*
G02*
X100257000Y-55372000I-2105000J0D01*
G01*
X100257000Y-55372000D02*
G75*
G02*
X104467000Y-55372000I2105000J0D01*
G01*
X122802000Y-55372000D02*
G75*
G02*
X81922000Y-55372000I-20440000J0D01*
G01*
X81922000Y-55372000D02*
G75*
G02*
X122802000Y-55372000I20440000J0D01*
G01*
%TO.C,C10*%
X45908748Y-100611000D02*
X46431252Y-100611000D01*
X45908748Y-102081000D02*
X46431252Y-102081000D01*
%TO.C,D5*%
X26108000Y-104367000D02*
X28568000Y-104367000D01*
X28568000Y-102897000D02*
X26108000Y-102897000D01*
X28568000Y-104367000D02*
X28568000Y-102897000D01*
%TO.C,R2*%
X144245064Y-110263000D02*
X143790936Y-110263000D01*
X144245064Y-111733000D02*
X143790936Y-111733000D01*
%TO.C,C7*%
X41225252Y-100611000D02*
X40702748Y-100611000D01*
X41225252Y-102081000D02*
X40702748Y-102081000D01*
%TO.C,C4*%
X68572748Y-97563000D02*
X69095252Y-97563000D01*
X68572748Y-99033000D02*
X69095252Y-99033000D01*
%TO.C,R1*%
X144245064Y-106453000D02*
X143790936Y-106453000D01*
X144245064Y-107923000D02*
X143790936Y-107923000D01*
D15*
%TO.C,U1*%
X137287000Y-101123000D02*
X130937000Y-101123000D01*
X137287000Y-110713000D02*
X130937000Y-110713000D01*
D16*
X139247000Y-109728000D02*
G75*
G02*
X139047000Y-109728000I-100000J0D01*
G01*
X139047000Y-109728000D02*
G75*
G02*
X139247000Y-109728000I100000J0D01*
G01*
D13*
%TO.C,C12*%
X46015248Y-107215000D02*
X46537752Y-107215000D01*
X46015248Y-108685000D02*
X46537752Y-108685000D01*
%TO.C,Q1*%
X62698000Y-90202000D02*
X62698000Y-94843000D01*
X62698000Y-90202000D02*
X72938000Y-90202000D01*
X62698000Y-91712000D02*
X72938000Y-91712000D01*
X62698000Y-94843000D02*
X72938000Y-94843000D01*
X65968000Y-90202000D02*
X65968000Y-91712000D01*
X69669000Y-90202000D02*
X69669000Y-91712000D01*
X72938000Y-90202000D02*
X72938000Y-94843000D01*
%TO.C,R3*%
X144229064Y-98833000D02*
X143774936Y-98833000D01*
X144229064Y-100303000D02*
X143774936Y-100303000D01*
%TO.C,R9*%
X24236000Y-94733064D02*
X24236000Y-93278936D01*
X26056000Y-94733064D02*
X26056000Y-93278936D01*
%TO.C,R7*%
X138457000Y-117559064D02*
X138457000Y-117104936D01*
X139927000Y-117559064D02*
X139927000Y-117104936D01*
%TO.C,D1*%
X76074000Y-100776000D02*
X76074000Y-93766000D01*
X76074000Y-100776000D02*
X79374000Y-100776000D01*
X79374000Y-100776000D02*
X79374000Y-93766000D01*
D17*
%TO.C,U4*%
X28249400Y-110977500D02*
X28249400Y-118724500D01*
X28249400Y-118724500D02*
X48010600Y-118724500D01*
X48010600Y-110977500D02*
X28249400Y-110977500D01*
X48010600Y-118724500D02*
X48010600Y-110977500D01*
D13*
%TO.C,J4*%
X146928000Y-46412000D02*
G75*
G02*
X135928000Y-46412000I-5500000J0D01*
G01*
X135928000Y-46412000D02*
G75*
G02*
X146928000Y-46412000I5500000J0D01*
G01*
%TO.C,J1*%
X35928000Y-46412000D02*
G75*
G02*
X24928000Y-46412000I-5500000J0D01*
G01*
X24928000Y-46412000D02*
G75*
G02*
X35928000Y-46412000I5500000J0D01*
G01*
%TO.C,C6*%
X31283248Y-107215000D02*
X31805752Y-107215000D01*
X31283248Y-108685000D02*
X31805752Y-108685000D01*
%TO.C,J5*%
X35928000Y-71412000D02*
G75*
G02*
X24928000Y-71412000I-5500000J0D01*
G01*
X24928000Y-71412000D02*
G75*
G02*
X35928000Y-71412000I5500000J0D01*
G01*
%TO.C,R8*%
X26897064Y-99595000D02*
X26442936Y-99595000D01*
X26897064Y-101065000D02*
X26442936Y-101065000D01*
%TO.C,D4*%
X134901000Y-116670000D02*
X134901000Y-119130000D01*
X134901000Y-119130000D02*
X136371000Y-119130000D01*
X136371000Y-119130000D02*
X136371000Y-116670000D01*
%TO.C,C3*%
X59388560Y-104867000D02*
X61188560Y-104867000D01*
X60288560Y-103967000D02*
X60288560Y-105767000D01*
X69148000Y-100901000D02*
X69148000Y-119063000D01*
X69188000Y-100902000D02*
X69188000Y-119062000D01*
X69228000Y-100902000D02*
X69228000Y-119062000D01*
X69268000Y-100902000D02*
X69268000Y-119062000D01*
X69308000Y-100903000D02*
X69308000Y-119061000D01*
X69348000Y-100904000D02*
X69348000Y-119060000D01*
X69388000Y-100905000D02*
X69388000Y-119059000D01*
X69428000Y-100906000D02*
X69428000Y-119058000D01*
X69468000Y-100907000D02*
X69468000Y-119057000D01*
X69508000Y-100909000D02*
X69508000Y-119055000D01*
X69548000Y-100910000D02*
X69548000Y-119054000D01*
X69588000Y-100912000D02*
X69588000Y-119052000D01*
X69628000Y-100914000D02*
X69628000Y-119050000D01*
X69668000Y-100916000D02*
X69668000Y-119048000D01*
X69708000Y-100919000D02*
X69708000Y-119045000D01*
X69748000Y-100921000D02*
X69748000Y-119043000D01*
X69788000Y-100924000D02*
X69788000Y-119040000D01*
X69828000Y-100927000D02*
X69828000Y-119037000D01*
X69869000Y-100930000D02*
X69869000Y-119034000D01*
X69909000Y-100933000D02*
X69909000Y-119031000D01*
X69949000Y-100937000D02*
X69949000Y-119027000D01*
X69989000Y-100940000D02*
X69989000Y-119024000D01*
X70029000Y-100944000D02*
X70029000Y-119020000D01*
X70069000Y-100948000D02*
X70069000Y-119016000D01*
X70109000Y-100952000D02*
X70109000Y-119012000D01*
X70149000Y-100956000D02*
X70149000Y-119008000D01*
X70189000Y-100961000D02*
X70189000Y-119003000D01*
X70229000Y-100966000D02*
X70229000Y-118998000D01*
X70269000Y-100971000D02*
X70269000Y-118993000D01*
X70309000Y-100976000D02*
X70309000Y-118988000D01*
X70349000Y-100981000D02*
X70349000Y-118983000D01*
X70389000Y-100986000D02*
X70389000Y-118978000D01*
X70429000Y-100992000D02*
X70429000Y-118972000D01*
X70469000Y-100998000D02*
X70469000Y-118966000D01*
X70509000Y-101003000D02*
X70509000Y-118961000D01*
X70549000Y-101010000D02*
X70549000Y-118954000D01*
X70589000Y-101016000D02*
X70589000Y-118948000D01*
X70629000Y-101022000D02*
X70629000Y-118942000D01*
X70669000Y-101029000D02*
X70669000Y-118935000D01*
X70709000Y-101036000D02*
X70709000Y-118928000D01*
X70749000Y-101043000D02*
X70749000Y-118921000D01*
X70789000Y-101050000D02*
X70789000Y-118914000D01*
X70829000Y-101058000D02*
X70829000Y-118906000D01*
X70869000Y-101065000D02*
X70869000Y-118899000D01*
X70909000Y-101073000D02*
X70909000Y-118891000D01*
X70949000Y-101081000D02*
X70949000Y-118883000D01*
X70989000Y-101089000D02*
X70989000Y-118875000D01*
X71029000Y-101097000D02*
X71029000Y-118867000D01*
X71069000Y-101106000D02*
X71069000Y-118858000D01*
X71109000Y-101115000D02*
X71109000Y-118849000D01*
X71149000Y-101124000D02*
X71149000Y-118840000D01*
X71189000Y-101133000D02*
X71189000Y-118831000D01*
X71229000Y-101142000D02*
X71229000Y-118822000D01*
X71269000Y-101151000D02*
X71269000Y-118813000D01*
X71309000Y-101161000D02*
X71309000Y-118803000D01*
X71349000Y-101171000D02*
X71349000Y-118793000D01*
X71389000Y-101181000D02*
X71389000Y-118783000D01*
X71429000Y-101191000D02*
X71429000Y-118773000D01*
X71469000Y-101202000D02*
X71469000Y-108542000D01*
X71469000Y-111422000D02*
X71469000Y-118762000D01*
X71509000Y-101212000D02*
X71509000Y-108542000D01*
X71509000Y-111422000D02*
X71509000Y-118752000D01*
X71549000Y-101223000D02*
X71549000Y-108542000D01*
X71549000Y-111422000D02*
X71549000Y-118741000D01*
X71589000Y-101234000D02*
X71589000Y-108542000D01*
X71589000Y-111422000D02*
X71589000Y-118730000D01*
X71629000Y-101245000D02*
X71629000Y-108542000D01*
X71629000Y-111422000D02*
X71629000Y-118719000D01*
X71669000Y-101257000D02*
X71669000Y-108542000D01*
X71669000Y-111422000D02*
X71669000Y-118707000D01*
X71709000Y-101268000D02*
X71709000Y-108542000D01*
X71709000Y-111422000D02*
X71709000Y-118696000D01*
X71749000Y-101280000D02*
X71749000Y-108542000D01*
X71749000Y-111422000D02*
X71749000Y-118684000D01*
X71789000Y-101292000D02*
X71789000Y-108542000D01*
X71789000Y-111422000D02*
X71789000Y-118672000D01*
X71829000Y-101304000D02*
X71829000Y-108542000D01*
X71829000Y-111422000D02*
X71829000Y-118660000D01*
X71869000Y-101317000D02*
X71869000Y-108542000D01*
X71869000Y-111422000D02*
X71869000Y-118647000D01*
X71909000Y-101329000D02*
X71909000Y-108542000D01*
X71909000Y-111422000D02*
X71909000Y-118635000D01*
X71949000Y-101342000D02*
X71949000Y-108542000D01*
X71949000Y-111422000D02*
X71949000Y-118622000D01*
X71989000Y-101355000D02*
X71989000Y-108542000D01*
X71989000Y-111422000D02*
X71989000Y-118609000D01*
X72029000Y-101368000D02*
X72029000Y-108542000D01*
X72029000Y-111422000D02*
X72029000Y-118596000D01*
X72069000Y-101382000D02*
X72069000Y-108542000D01*
X72069000Y-111422000D02*
X72069000Y-118582000D01*
X72109000Y-101395000D02*
X72109000Y-108542000D01*
X72109000Y-111422000D02*
X72109000Y-118569000D01*
X72149000Y-101409000D02*
X72149000Y-108542000D01*
X72149000Y-111422000D02*
X72149000Y-118555000D01*
X72189000Y-101423000D02*
X72189000Y-108542000D01*
X72189000Y-111422000D02*
X72189000Y-118541000D01*
X72229000Y-101437000D02*
X72229000Y-108542000D01*
X72229000Y-111422000D02*
X72229000Y-118527000D01*
X72269000Y-101452000D02*
X72269000Y-108542000D01*
X72269000Y-111422000D02*
X72269000Y-118512000D01*
X72309000Y-101466000D02*
X72309000Y-108542000D01*
X72309000Y-111422000D02*
X72309000Y-118498000D01*
X72349000Y-101481000D02*
X72349000Y-108542000D01*
X72349000Y-111422000D02*
X72349000Y-118483000D01*
X72389000Y-101496000D02*
X72389000Y-108542000D01*
X72389000Y-111422000D02*
X72389000Y-118468000D01*
X72429000Y-101512000D02*
X72429000Y-108542000D01*
X72429000Y-111422000D02*
X72429000Y-118452000D01*
X72469000Y-101527000D02*
X72469000Y-108542000D01*
X72469000Y-111422000D02*
X72469000Y-118437000D01*
X72509000Y-101543000D02*
X72509000Y-108542000D01*
X72509000Y-111422000D02*
X72509000Y-118421000D01*
X72549000Y-101559000D02*
X72549000Y-108542000D01*
X72549000Y-111422000D02*
X72549000Y-118405000D01*
X72589000Y-101575000D02*
X72589000Y-108542000D01*
X72589000Y-111422000D02*
X72589000Y-118389000D01*
X72629000Y-101592000D02*
X72629000Y-108542000D01*
X72629000Y-111422000D02*
X72629000Y-118372000D01*
X72669000Y-101608000D02*
X72669000Y-108542000D01*
X72669000Y-111422000D02*
X72669000Y-118356000D01*
X72709000Y-101625000D02*
X72709000Y-108542000D01*
X72709000Y-111422000D02*
X72709000Y-118339000D01*
X72749000Y-101642000D02*
X72749000Y-108542000D01*
X72749000Y-111422000D02*
X72749000Y-118322000D01*
X72789000Y-101659000D02*
X72789000Y-108542000D01*
X72789000Y-111422000D02*
X72789000Y-118305000D01*
X72829000Y-101677000D02*
X72829000Y-108542000D01*
X72829000Y-111422000D02*
X72829000Y-118287000D01*
X72869000Y-101695000D02*
X72869000Y-108542000D01*
X72869000Y-111422000D02*
X72869000Y-118269000D01*
X72909000Y-101713000D02*
X72909000Y-108542000D01*
X72909000Y-111422000D02*
X72909000Y-118251000D01*
X72949000Y-101731000D02*
X72949000Y-108542000D01*
X72949000Y-111422000D02*
X72949000Y-118233000D01*
X72989000Y-101749000D02*
X72989000Y-108542000D01*
X72989000Y-111422000D02*
X72989000Y-118215000D01*
X73029000Y-101768000D02*
X73029000Y-108542000D01*
X73029000Y-111422000D02*
X73029000Y-118196000D01*
X73069000Y-101787000D02*
X73069000Y-108542000D01*
X73069000Y-111422000D02*
X73069000Y-118177000D01*
X73109000Y-101806000D02*
X73109000Y-108542000D01*
X73109000Y-111422000D02*
X73109000Y-118158000D01*
X73149000Y-101826000D02*
X73149000Y-108542000D01*
X73149000Y-111422000D02*
X73149000Y-118138000D01*
X73189000Y-101845000D02*
X73189000Y-108542000D01*
X73189000Y-111422000D02*
X73189000Y-118119000D01*
X73229000Y-101865000D02*
X73229000Y-108542000D01*
X73229000Y-111422000D02*
X73229000Y-118099000D01*
X73269000Y-101885000D02*
X73269000Y-108542000D01*
X73269000Y-111422000D02*
X73269000Y-118079000D01*
X73309000Y-101906000D02*
X73309000Y-108542000D01*
X73309000Y-111422000D02*
X73309000Y-118058000D01*
X73349000Y-101926000D02*
X73349000Y-108542000D01*
X73349000Y-111422000D02*
X73349000Y-118038000D01*
X73389000Y-101947000D02*
X73389000Y-108542000D01*
X73389000Y-111422000D02*
X73389000Y-118017000D01*
X73429000Y-101968000D02*
X73429000Y-108542000D01*
X73429000Y-111422000D02*
X73429000Y-117996000D01*
X73469000Y-101990000D02*
X73469000Y-108542000D01*
X73469000Y-111422000D02*
X73469000Y-117974000D01*
X73509000Y-102011000D02*
X73509000Y-108542000D01*
X73509000Y-111422000D02*
X73509000Y-117953000D01*
X73549000Y-102033000D02*
X73549000Y-108542000D01*
X73549000Y-111422000D02*
X73549000Y-117931000D01*
X73589000Y-102055000D02*
X73589000Y-108542000D01*
X73589000Y-111422000D02*
X73589000Y-117909000D01*
X73629000Y-102078000D02*
X73629000Y-108542000D01*
X73629000Y-111422000D02*
X73629000Y-117886000D01*
X73669000Y-102100000D02*
X73669000Y-108542000D01*
X73669000Y-111422000D02*
X73669000Y-117864000D01*
X73709000Y-102123000D02*
X73709000Y-108542000D01*
X73709000Y-111422000D02*
X73709000Y-117841000D01*
X73749000Y-102147000D02*
X73749000Y-108542000D01*
X73749000Y-111422000D02*
X73749000Y-117817000D01*
X73789000Y-102170000D02*
X73789000Y-108542000D01*
X73789000Y-111422000D02*
X73789000Y-117794000D01*
X73829000Y-102194000D02*
X73829000Y-108542000D01*
X73829000Y-111422000D02*
X73829000Y-117770000D01*
X73869000Y-102218000D02*
X73869000Y-108542000D01*
X73869000Y-111422000D02*
X73869000Y-117746000D01*
X73909000Y-102242000D02*
X73909000Y-108542000D01*
X73909000Y-111422000D02*
X73909000Y-117722000D01*
X73949000Y-102267000D02*
X73949000Y-108542000D01*
X73949000Y-111422000D02*
X73949000Y-117697000D01*
X73989000Y-102292000D02*
X73989000Y-108542000D01*
X73989000Y-111422000D02*
X73989000Y-117672000D01*
X74029000Y-102317000D02*
X74029000Y-108542000D01*
X74029000Y-111422000D02*
X74029000Y-117647000D01*
X74069000Y-102342000D02*
X74069000Y-108542000D01*
X74069000Y-111422000D02*
X74069000Y-117622000D01*
X74109000Y-102368000D02*
X74109000Y-108542000D01*
X74109000Y-111422000D02*
X74109000Y-117596000D01*
X74149000Y-102394000D02*
X74149000Y-108542000D01*
X74149000Y-111422000D02*
X74149000Y-117570000D01*
X74189000Y-102421000D02*
X74189000Y-108542000D01*
X74189000Y-111422000D02*
X74189000Y-117543000D01*
X74229000Y-102447000D02*
X74229000Y-108542000D01*
X74229000Y-111422000D02*
X74229000Y-117517000D01*
X74269000Y-102474000D02*
X74269000Y-108542000D01*
X74269000Y-111422000D02*
X74269000Y-117490000D01*
X74309000Y-102502000D02*
X74309000Y-108542000D01*
X74309000Y-111422000D02*
X74309000Y-117462000D01*
X74349000Y-102529000D02*
X74349000Y-117435000D01*
X74389000Y-102557000D02*
X74389000Y-117407000D01*
X74429000Y-102585000D02*
X74429000Y-117379000D01*
X74469000Y-102614000D02*
X74469000Y-117350000D01*
X74509000Y-102643000D02*
X74509000Y-117321000D01*
X74549000Y-102672000D02*
X74549000Y-117292000D01*
X74589000Y-102702000D02*
X74589000Y-117262000D01*
X74629000Y-102732000D02*
X74629000Y-117232000D01*
X74669000Y-102762000D02*
X74669000Y-117202000D01*
X74709000Y-102792000D02*
X74709000Y-117172000D01*
X74749000Y-102823000D02*
X74749000Y-117141000D01*
X74789000Y-102855000D02*
X74789000Y-117109000D01*
X74829000Y-102886000D02*
X74829000Y-117078000D01*
X74869000Y-102918000D02*
X74869000Y-117046000D01*
X74909000Y-102951000D02*
X74909000Y-117013000D01*
X74949000Y-102983000D02*
X74949000Y-116981000D01*
X74989000Y-103017000D02*
X74989000Y-116947000D01*
X75029000Y-103050000D02*
X75029000Y-116914000D01*
X75069000Y-103084000D02*
X75069000Y-116880000D01*
X75109000Y-103118000D02*
X75109000Y-116846000D01*
X75149000Y-103153000D02*
X75149000Y-116811000D01*
X75189000Y-103188000D02*
X75189000Y-116776000D01*
X75229000Y-103224000D02*
X75229000Y-116740000D01*
X75269000Y-103260000D02*
X75269000Y-116704000D01*
X75309000Y-103296000D02*
X75309000Y-116668000D01*
X75349000Y-103333000D02*
X75349000Y-116631000D01*
X75389000Y-103370000D02*
X75389000Y-116594000D01*
X75429000Y-103408000D02*
X75429000Y-116556000D01*
X75469000Y-103446000D02*
X75469000Y-116518000D01*
X75509000Y-103485000D02*
X75509000Y-116479000D01*
X75549000Y-103524000D02*
X75549000Y-116440000D01*
X75589000Y-103564000D02*
X75589000Y-116400000D01*
X75629000Y-103604000D02*
X75629000Y-116360000D01*
X75669000Y-103645000D02*
X75669000Y-116319000D01*
X75709000Y-103686000D02*
X75709000Y-116278000D01*
X75749000Y-103728000D02*
X75749000Y-116236000D01*
X75789000Y-103770000D02*
X75789000Y-116194000D01*
X75829000Y-103812000D02*
X75829000Y-116152000D01*
X75869000Y-103856000D02*
X75869000Y-116108000D01*
X75909000Y-103900000D02*
X75909000Y-116064000D01*
X75949000Y-103944000D02*
X75949000Y-116020000D01*
X75989000Y-103989000D02*
X75989000Y-115975000D01*
X76029000Y-104035000D02*
X76029000Y-115929000D01*
X76069000Y-104081000D02*
X76069000Y-115883000D01*
X76109000Y-104128000D02*
X76109000Y-115836000D01*
X76149000Y-104176000D02*
X76149000Y-115788000D01*
X76189000Y-104224000D02*
X76189000Y-115740000D01*
X76229000Y-104273000D02*
X76229000Y-115691000D01*
X76269000Y-104322000D02*
X76269000Y-115642000D01*
X76309000Y-104373000D02*
X76309000Y-115591000D01*
X76349000Y-104424000D02*
X76349000Y-115540000D01*
X76389000Y-104476000D02*
X76389000Y-115488000D01*
X76429000Y-104528000D02*
X76429000Y-115436000D01*
X76469000Y-104582000D02*
X76469000Y-115382000D01*
X76509000Y-104636000D02*
X76509000Y-115328000D01*
X76549000Y-104691000D02*
X76549000Y-115273000D01*
X76589000Y-104747000D02*
X76589000Y-115217000D01*
X76629000Y-104804000D02*
X76629000Y-115160000D01*
X76669000Y-104862000D02*
X76669000Y-115102000D01*
X76709000Y-104920000D02*
X76709000Y-115044000D01*
X76749000Y-104980000D02*
X76749000Y-114984000D01*
X76789000Y-105041000D02*
X76789000Y-114923000D01*
X76829000Y-105103000D02*
X76829000Y-114861000D01*
X76869000Y-105166000D02*
X76869000Y-114798000D01*
X76909000Y-105230000D02*
X76909000Y-114734000D01*
X76949000Y-105296000D02*
X76949000Y-114668000D01*
X76989000Y-105362000D02*
X76989000Y-114602000D01*
X77029000Y-105430000D02*
X77029000Y-114534000D01*
X77069000Y-105500000D02*
X77069000Y-114464000D01*
X77109000Y-105570000D02*
X77109000Y-114394000D01*
X77149000Y-105643000D02*
X77149000Y-114321000D01*
X77189000Y-105717000D02*
X77189000Y-114247000D01*
X77229000Y-105792000D02*
X77229000Y-114172000D01*
X77269000Y-105869000D02*
X77269000Y-114095000D01*
X77309000Y-105949000D02*
X77309000Y-114015000D01*
X77348000Y-106030000D02*
X77348000Y-113934000D01*
X77388000Y-106113000D02*
X77388000Y-113851000D01*
X77428000Y-106198000D02*
X77428000Y-113766000D01*
X77468000Y-106286000D02*
X77468000Y-113678000D01*
X77508000Y-106377000D02*
X77508000Y-113587000D01*
X77548000Y-106470000D02*
X77548000Y-113494000D01*
X77588000Y-106566000D02*
X77588000Y-113398000D01*
X77628000Y-106665000D02*
X77628000Y-113299000D01*
X77668000Y-106768000D02*
X77668000Y-113196000D01*
X77708000Y-106875000D02*
X77708000Y-113089000D01*
X77748000Y-106986000D02*
X77748000Y-112978000D01*
X77788000Y-107102000D02*
X77788000Y-112862000D01*
X77828000Y-107223000D02*
X77828000Y-112741000D01*
X77868000Y-107350000D02*
X77868000Y-112614000D01*
X77908000Y-107484000D02*
X77908000Y-112480000D01*
X77948000Y-107627000D02*
X77948000Y-112337000D01*
X77988000Y-107779000D02*
X77988000Y-112185000D01*
X78028000Y-107943000D02*
X78028000Y-112021000D01*
X78068000Y-108122000D02*
X78068000Y-111842000D01*
X78108000Y-108321000D02*
X78108000Y-111643000D01*
X78148000Y-108547000D02*
X78148000Y-111417000D01*
X78188000Y-108816000D02*
X78188000Y-111148000D01*
X78228000Y-109168000D02*
X78228000Y-110796000D01*
X78268000Y-109942000D02*
X78268000Y-110022000D01*
X78268000Y-109982000D02*
G75*
G02*
X60028000Y-109982000I-9120000J0D01*
G01*
X60028000Y-109982000D02*
G75*
G02*
X78268000Y-109982000I9120000J0D01*
G01*
%TO.C,R6*%
X54749936Y-113819000D02*
X55204064Y-113819000D01*
X54749936Y-115289000D02*
X55204064Y-115289000D01*
%TO.C,J2*%
X146928000Y-71412000D02*
G75*
G02*
X135928000Y-71412000I-5500000J0D01*
G01*
X135928000Y-71412000D02*
G75*
G02*
X146928000Y-71412000I5500000J0D01*
G01*
%TO.C,C1*%
X143735248Y-102643000D02*
X144257752Y-102643000D01*
X143735248Y-104113000D02*
X144257752Y-104113000D01*
%TO.C,C2*%
X131035248Y-113311000D02*
X131557752Y-113311000D01*
X131035248Y-114781000D02*
X131557752Y-114781000D01*
D17*
%TO.C,U3*%
X37477700Y-92405200D02*
X37477700Y-98602800D01*
X37477700Y-98602800D02*
X45326300Y-98602800D01*
X45326300Y-92405200D02*
X37477700Y-92405200D01*
X45326300Y-98602800D02*
X45326300Y-92405200D01*
%TD*%
M02*
