M48
; DRILL file {KiCad 8.0.7} date 2025-03-02T22:24:46-0500
; FORMAT={-:-/ absolute / inch / decimal}
; #@! TF.CreationDate,2025-03-02T22:24:46-05:00
; #@! TF.GenerationSoftware,Kicad,Pcbnew,8.0.7
; #@! TF.FileFunction,Plated,1,2,PTH
FMAT,2
INCH
; #@! TA.AperFunction,Plated,PTH,ViaDrill
T1C0.0118
; #@! TA.AperFunction,Plated,PTH,ComponentDrill
T2C0.0300
; #@! TA.AperFunction,Plated,PTH,ComponentDrill
T3C0.0307
; #@! TA.AperFunction,Plated,PTH,ComponentDrill
T4C0.0315
; #@! TA.AperFunction,Plated,PTH,ComponentDrill
T5C0.0394
; #@! TA.AperFunction,Plated,PTH,ComponentDrill
T6C0.0400
; #@! TA.AperFunction,Plated,PTH,ComponentDrill
T7C0.0433
; #@! TA.AperFunction,Plated,PTH,ComponentDrill
T8C0.0472
; #@! TA.AperFunction,Plated,PTH,ComponentDrill
T9C0.2402
%
G90
G05
T1
X1.08Y-4.54
X1.09Y-4.22
X1.1528Y-4.6241
X1.34Y-3.9681
X2.55Y-3.78
T2
X1.2Y-4.44
X1.3Y-4.44
X1.6Y-4.44
X1.8Y-4.44
T3
X5.1237Y-4.02
X5.1237Y-4.12
X5.1237Y-4.22
X5.1237Y-4.32
X5.4363Y-4.02
X5.4363Y-4.12
X5.4363Y-4.22
X5.4363Y-4.32
T4
X5.3324Y-3.33
X5.4111Y-3.33
T5
X3.3628Y-5.0192
X3.3628Y-5.1192
X3.4628Y-5.0192
X3.4628Y-5.1192
X3.495Y-2.18
X3.495Y-3.89
X3.5628Y-5.0192
X3.5628Y-5.1192
X3.6628Y-5.0192
X3.6628Y-5.1192
X4.565Y-2.18
X4.565Y-3.89
T6
X0.9Y-5.01
X0.9Y-5.21
X0.9Y-5.31
X0.9Y-5.41
X0.9Y-5.61
X0.9Y-5.71
X0.9Y-5.81
X0.9Y-5.91
X0.9Y-6.01
X0.9Y-6.21
X0.9Y-6.31
X0.9Y-6.41
X0.9Y-6.51
X0.9Y-6.61
X0.9Y-6.81
X1.0Y-5.01
X1.0Y-6.81
X1.1Y-5.01
X1.1Y-6.81
X1.3Y-5.01
X1.3Y-5.11
X1.3Y-6.71
X1.3Y-6.81
X1.4Y-5.01
X1.4Y-5.11
X1.4Y-6.71
X1.4Y-6.81
X1.5Y-5.01
X1.5Y-5.11
X1.5Y-6.71
X1.5Y-6.81
X1.6Y-5.01
X1.6Y-5.11
X1.6Y-6.71
X1.6Y-6.81
X1.7Y-5.01
X1.7Y-5.11
X1.7Y-6.71
X1.7Y-6.81
X1.8Y-5.01
X1.8Y-5.11
X1.8Y-6.71
X1.8Y-6.81
X1.9Y-5.01
X1.9Y-5.11
X1.9Y-6.71
X1.9Y-6.81
X2.0Y-5.01
X2.0Y-5.11
X2.0Y-6.71
X2.0Y-6.81
X2.1Y-5.01
X2.1Y-5.11
X2.1Y-6.71
X2.1Y-6.81
X2.2Y-5.01
X2.2Y-5.11
X2.2Y-6.71
X2.2Y-6.81
X3.8Y-5.01
X3.8Y-5.11
X3.8Y-6.71
X3.8Y-6.81
X3.9Y-5.01
X3.9Y-5.11
X3.9Y-6.71
X3.9Y-6.81
X4.0Y-5.01
X4.0Y-5.11
X4.0Y-6.71
X4.0Y-6.81
X4.1Y-5.01
X4.1Y-5.11
X4.1Y-6.71
X4.1Y-6.81
X4.2Y-5.01
X4.2Y-5.11
X4.2Y-6.71
X4.2Y-6.81
X4.3Y-5.01
X4.3Y-5.11
X4.3Y-6.71
X4.3Y-6.81
X4.4Y-5.01
X4.4Y-5.11
X4.4Y-6.71
X4.4Y-6.81
X4.5Y-5.01
X4.5Y-5.11
X4.5Y-6.71
X4.5Y-6.81
X4.6Y-5.01
X4.6Y-5.11
X4.6Y-6.71
X4.6Y-6.81
X4.7Y-5.01
X4.7Y-5.11
X4.7Y-6.71
X4.7Y-6.81
T7
X2.57Y-3.68
X2.67Y-3.68
X2.77Y-3.68
T8
X2.5747Y-4.33
X2.87Y-4.33
T9
X1.198Y-1.8272
X1.198Y-2.8115
X2.77Y-1.8272
X5.568Y-1.8272
X5.568Y-2.8115
M30
